<svg width="32" height="32" viewBox="0 0 32 32" fill="none" xmlns="http://www.w3.org/2000/svg">
<circle cx="16" cy="16" r="16" fill="#141416"/>
<path d="M16.5 17.174L17.374 16.176C17.4628 16.0822 17.5845 16.0264 17.7136 16.0203C17.8427 16.0142 17.9691 16.0583 18.0664 16.1434C18.1636 16.2285 18.2241 16.348 18.2353 16.4767C18.2464 16.6055 18.2072 16.7335 18.126 16.834L16.376 18.834C16.3291 18.8875 16.2713 18.9304 16.2064 18.9598C16.1416 18.9892 16.0712 19.0044 16 19.0044C15.9288 19.0044 15.8584 18.9892 15.7936 18.9598C15.7287 18.9304 15.6709 18.8875 15.624 18.834L13.874 16.834C13.8277 16.7851 13.7918 16.7274 13.7684 16.6643C13.7449 16.6012 13.7345 16.534 13.7377 16.4668C13.7408 16.3996 13.7575 16.3336 13.7868 16.273C13.816 16.2124 13.8572 16.1583 13.9079 16.114C13.9585 16.0697 14.0176 16.036 14.0816 16.0151C14.1455 15.9941 14.2131 15.9863 14.2801 15.9921C14.3472 15.9979 14.4124 16.0172 14.4718 16.0488C14.5313 16.0804 14.5837 16.1236 14.626 16.176L15.5 17.174V13.495C15.5 13.3624 15.5527 13.2352 15.6464 13.1414C15.7402 13.0477 15.8674 12.995 16 12.995C16.1326 12.995 16.2598 13.0477 16.3536 13.1414C16.4473 13.2352 16.5 13.3624 16.5 13.495V17.175V17.174ZM10 10C9.46957 10 8.96086 10.2107 8.58579 10.5858C8.21071 10.9609 8 11.4696 8 12V20C8 20.5304 8.21071 21.0391 8.58579 21.4142C8.96086 21.7893 9.46957 22 10 22H22C22.5304 22 23.0391 21.7893 23.4142 21.4142C23.7893 21.0391 24 20.5304 24 20V12C24 11.4696 23.7893 10.9609 23.4142 10.5858C23.0391 10.2107 22.5304 10 22 10H10ZM9 12C9 11.7348 9.10536 11.4804 9.29289 11.2929C9.48043 11.1054 9.73478 11 10 11H22C22.2652 11 22.5196 11.1054 22.7071 11.2929C22.8946 11.4804 23 11.7348 23 12V17H19.166C19.1029 17.1812 19.0054 17.3486 18.879 17.493L17.129 19.493C16.9882 19.6539 16.8146 19.7829 16.6199 19.8713C16.4252 19.9597 16.2138 20.0054 16 20.0054C15.7862 20.0054 15.5748 19.9597 15.3801 19.8713C15.1854 19.7829 15.0118 19.6539 14.871 19.493L13.121 17.493C12.9946 17.3486 12.8972 17.1812 12.834 17H9V12Z" fill="white"/>
</svg>
