<svg width="32" height="32" viewBox="0 0 32 32" fill="none" xmlns="http://www.w3.org/2000/svg">
<circle cx="16" cy="16" r="16" fill="#141416"/>
<path d="M23.6129 11.9374C23.3646 11.3626 23.0067 10.8417 22.5591 10.4039C22.1111 9.96476 21.583 9.61581 21.0033 9.37598C20.4023 9.12631 19.7577 8.99852 19.1068 9.00001C18.1938 9.00001 17.3029 9.25004 16.5288 9.72232C16.3435 9.83529 16.1676 9.95938 16.0009 10.0946C15.8342 9.95938 15.6583 9.83529 15.4731 9.72232C14.6989 9.25004 13.8081 9.00001 12.895 9.00001C12.2375 9.00001 11.6004 9.12595 10.9985 9.37598C10.4169 9.61675 9.89281 9.96309 9.44276 10.4039C8.99455 10.8412 8.63651 11.3622 8.38893 11.9374C8.1315 12.5356 8 13.1709 8 13.8246C8 14.4414 8.12594 15.084 8.37597 15.7378C8.58525 16.2842 8.88529 16.8509 9.26866 17.4232C9.87614 18.3289 10.7114 19.2734 11.7486 20.2309C13.4673 21.8181 15.1693 22.9146 15.2416 22.959L15.6805 23.2405C15.875 23.3646 16.125 23.3646 16.3195 23.2405L16.7584 22.959C16.8306 22.9127 18.5308 21.8181 20.2514 20.2309C21.2886 19.2734 22.1238 18.3289 22.7313 17.4232C23.1147 16.8509 23.4166 16.2842 23.624 15.7378C23.874 15.084 24 14.4414 24 13.8246C24.0018 13.1709 23.8703 12.5356 23.6129 11.9374ZM16.0009 21.7755C16.0009 21.7755 9.40757 17.551 9.40757 13.8246C9.40757 11.9374 10.9689 10.4076 12.895 10.4076C14.2489 10.4076 15.4231 11.1632 16.0009 12.2671C16.5788 11.1632 17.753 10.4076 19.1068 10.4076C21.033 10.4076 22.5943 11.9374 22.5943 13.8246C22.5943 17.551 16.0009 21.7755 16.0009 21.7755Z" fill="white"/>
</svg>
