<svg width="32" height="32" viewBox="0 0 32 32" fill="none" xmlns="http://www.w3.org/2000/svg">
<rect width="32" height="32" rx="16" fill="#141416"/>
<path fill-rule="evenodd" clip-rule="evenodd" d="M20.666 11.3333H11.3327C10.5963 11.3333 9.99935 11.9303 9.99935 12.6667V19.3333C9.99935 20.0697 10.5963 20.6667 11.3327 20.6667H20.666C21.4024 20.6667 21.9993 20.0697 21.9993 19.3333V12.6667C21.9993 11.9303 21.4024 11.3333 20.666 11.3333ZM11.3327 10C9.85992 10 8.66602 11.1939 8.66602 12.6667V19.3333C8.66602 20.8061 9.85992 22 11.3327 22H20.666C22.1388 22 23.3327 20.8061 23.3327 19.3333V12.6667C23.3327 11.1939 22.1388 10 20.666 10H11.3327Z" fill="#FCFCFD"/>
<path fill-rule="evenodd" clip-rule="evenodd" d="M16.666 15.9993C16.666 14.1584 18.1584 12.666 19.9993 12.666H22.666C23.0342 12.666 23.3327 12.9645 23.3327 13.3327C23.3327 13.7009 23.0342 13.9993 22.666 13.9993H19.9993C18.8948 13.9993 17.9993 14.8948 17.9993 15.9993C17.9993 17.1039 18.8948 17.9993 19.9993 17.9993H22.666C23.0342 17.9993 23.3327 18.2978 23.3327 18.666C23.3327 19.0342 23.0342 19.3327 22.666 19.3327H19.9993C18.1584 19.3327 16.666 17.8403 16.666 15.9993Z" fill="#FCFCFD"/>
<path d="M20.6673 16.0007C20.6673 16.3688 20.3688 16.6673 20.0007 16.6673C19.6325 16.6673 19.334 16.3688 19.334 16.0007C19.334 15.6325 19.6325 15.334 20.0007 15.334C20.3688 15.334 20.6673 15.6325 20.6673 16.0007Z" fill="#777E91"/>
</svg>
