<svg width="32" height="32" viewBox="0 0 32 32" fill="none" xmlns="http://www.w3.org/2000/svg">
<circle cx="16" cy="16" r="16" fill="#141416"/>
<path d="M9 14.8239C8.783 14.8241 8.57182 14.7536 8.39841 14.6232C8.22499 14.4927 8.09878 14.3093 8.03885 14.1008C7.97892 13.8922 7.98854 13.6698 8.06624 13.4672C8.14394 13.2645 8.28551 13.0927 8.46953 12.9777L11.1548 10.2924C11.3423 10.1051 11.5965 9.99991 11.8615 10C12.1265 10.0001 12.3806 10.1055 12.5679 10.2929C12.7553 10.4804 12.8604 10.7346 12.8603 10.9996C12.8602 11.2646 12.7549 11.5187 12.5674 11.706L11.4476 12.8249H18.99C19.255 12.8249 19.5091 12.9301 19.6964 13.1175C19.8838 13.3048 19.989 13.5589 19.989 13.8239C19.989 14.0888 19.8838 14.3429 19.6964 14.5303C19.5091 14.7176 19.255 14.8229 18.99 14.8229H9V14.8239Z" fill="white"/>
<path d="M23.0007 16.7891C23.2177 16.7888 23.4289 16.8593 23.6023 16.9898C23.7757 17.1202 23.9019 17.3036 23.9619 17.5122C24.0218 17.7207 24.0122 17.9432 23.9345 18.1458C23.8568 18.3484 23.7152 18.5202 23.5312 18.6352L20.8459 21.3205C20.7531 21.4133 20.6429 21.4868 20.5216 21.537C20.4004 21.5872 20.2704 21.613 20.1392 21.6129C20.008 21.6129 19.8781 21.587 19.7569 21.5367C19.6357 21.4865 19.5255 21.4128 19.4328 21.32C19.34 21.2272 19.2665 21.117 19.2163 20.9958C19.1661 20.8745 19.1403 20.7446 19.1404 20.6134C19.1404 20.4822 19.1663 20.3522 19.2166 20.231C19.2668 20.1098 19.3405 19.9997 19.4333 19.9069L20.5532 18.7881H13.0107C12.7458 18.7881 12.4917 18.6828 12.3043 18.4955C12.117 18.3081 12.0117 18.054 12.0117 17.7891C12.0117 17.5241 12.117 17.27 12.3043 17.0827C12.4917 16.8953 12.7458 16.7901 13.0107 16.7901H23.0007V16.7891Z" fill="white"/>
</svg>
