<svg width="32" height="32" viewBox="0 0 32 32" fill="none" xmlns="http://www.w3.org/2000/svg">
<rect width="32" height="32" rx="16" fill="#141416"/>
<path fill-rule="evenodd" clip-rule="evenodd" d="M20.666 11.3333H11.3327C10.5963 11.3333 9.99935 11.9303 9.99935 12.6667V19.3333C9.99935 20.0697 10.5963 20.6667 11.3327 20.6667H20.666C21.4024 20.6667 21.9993 20.0697 21.9993 19.3333V12.6667C21.9993 11.9303 21.4024 11.3333 20.666 11.3333ZM11.3327 10C9.85992 10 8.66602 11.1939 8.66602 12.6667V19.3333C8.66602 20.8061 9.85992 22 11.3327 22H20.666C22.1388 22 23.3327 20.8061 23.3327 19.3333V12.6667C23.3327 11.1939 22.1388 10 20.666 10H11.3327Z" fill="#FCFCFD"/>
<path fill-rule="evenodd" clip-rule="evenodd" d="M16.666 16.0013C16.666 14.1604 18.1584 12.668 19.9993 12.668H22.666C23.0342 12.668 23.3327 12.9664 23.3327 13.3346C23.3327 13.7028 23.0342 14.0013 22.666 14.0013H19.9993C18.8948 14.0013 17.9993 14.8967 17.9993 16.0013C17.9993 17.1059 18.8948 18.0013 19.9993 18.0013H22.666C23.0342 18.0013 23.3327 18.2998 23.3327 18.668C23.3327 19.0362 23.0342 19.3346 22.666 19.3346H19.9993C18.1584 19.3346 16.666 17.8423 16.666 16.0013Z" fill="#FCFCFD"/>
<path d="M20.6673 15.9987C20.6673 16.3669 20.3688 16.6654 20.0007 16.6654C19.6325 16.6654 19.334 16.3669 19.334 15.9987C19.334 15.6305 19.6325 15.332 20.0007 15.332C20.3688 15.332 20.6673 15.6305 20.6673 15.9987Z" fill="#777E91"/>
<circle cx="16" cy="16" r="16" fill="#141416"/>
<path d="M16.5 17.174L17.374 16.176C17.4628 16.0822 17.5845 16.0264 17.7136 16.0203C17.8427 16.0142 17.9691 16.0583 18.0664 16.1434C18.1636 16.2285 18.2241 16.348 18.2353 16.4767C18.2464 16.6055 18.2072 16.7335 18.126 16.834L16.376 18.834C16.3291 18.8875 16.2713 18.9304 16.2064 18.9598C16.1416 18.9892 16.0712 19.0044 16 19.0044C15.9288 19.0044 15.8584 18.9892 15.7936 18.9598C15.7287 18.9304 15.6709 18.8875 15.624 18.834L13.874 16.834C13.8277 16.7851 13.7918 16.7274 13.7684 16.6643C13.7449 16.6012 13.7345 16.534 13.7377 16.4668C13.7408 16.3996 13.7575 16.3336 13.7868 16.273C13.816 16.2124 13.8572 16.1583 13.9079 16.114C13.9585 16.0697 14.0176 16.036 14.0816 16.0151C14.1455 15.9941 14.2131 15.9863 14.2801 15.9921C14.3472 15.9979 14.4124 16.0172 14.4718 16.0488C14.5313 16.0804 14.5837 16.1236 14.626 16.176L15.5 17.174V13.495C15.5 13.3624 15.5527 13.2352 15.6464 13.1414C15.7402 13.0477 15.8674 12.995 16 12.995C16.1326 12.995 16.2598 13.0477 16.3536 13.1414C16.4473 13.2352 16.5 13.3624 16.5 13.495V17.175V17.174ZM10 10C9.46957 10 8.96086 10.2107 8.58579 10.5858C8.21071 10.9609 8 11.4696 8 12V20C8 20.5304 8.21071 21.0391 8.58579 21.4142C8.96086 21.7893 9.46957 22 10 22H22C22.5304 22 23.0391 21.7893 23.4142 21.4142C23.7893 21.0391 24 20.5304 24 20V12C24 11.4696 23.7893 10.9609 23.4142 10.5858C23.0391 10.2107 22.5304 10 22 10H10ZM9 12C9 11.7348 9.10536 11.4804 9.29289 11.2929C9.48043 11.1054 9.73478 11 10 11H22C22.2652 11 22.5196 11.1054 22.7071 11.2929C22.8946 11.4804 23 11.7348 23 12V17H19.166C19.1029 17.1812 19.0054 17.3486 18.879 17.493L17.129 19.493C16.9882 19.6539 16.8146 19.7829 16.6199 19.8713C16.4252 19.9597 16.2138 20.0054 16 20.0054C15.7862 20.0054 15.5748 19.9597 15.3801 19.8713C15.1854 19.7829 15.0118 19.6539 14.871 19.493L13.121 17.493C12.9946 17.3486 12.8972 17.1812 12.834 17H9V12Z" fill="white"/>
<rect width="32" height="32" rx="16" fill="#EF466F"/>
<path d="M13.311 19.1149C13.6284 18.7599 13.8218 18.2918 13.8218 17.7792V17.143V16.5069C13.8218 15.4003 12.9215 14.5 11.8149 14.5H10.1073C9.83109 14.5 9.60715 14.7239 9.60715 15.0001V15.6363V17.7792C9.60715 18.2918 9.80058 18.7599 10.118 19.115C9.58404 19.3636 9.13958 19.7504 8.80124 20.2672C8.26958 21.0794 8 22.1911 8 23.5716C8 23.8479 8.22393 24.0718 8.50015 24.0718H14.9288C15.205 24.0718 15.4289 23.8479 15.4289 23.5716C15.4289 22.1912 15.1593 21.0794 14.6277 20.2672C14.2893 19.7503 13.8449 19.3635 13.311 19.1149ZM9.01454 23.0714C9.06942 22.1322 9.28222 21.3588 9.63816 20.8151C10.0914 20.1226 10.7706 19.786 11.7145 19.786C12.6583 19.786 13.3374 20.1226 13.7907 20.8151C14.1467 21.3588 14.3595 22.1322 14.4144 23.0714H9.01454ZM11.614 18.7857C11.059 18.7857 10.6075 18.3342 10.6075 17.7791V17.3714C10.9036 17.5438 11.2473 17.6431 11.614 17.6431H12.8215V17.7791C12.8215 18.3342 12.3699 18.7857 11.8149 18.7857H11.614ZM12.8215 16.5069V16.6429H11.614C11.059 16.6429 10.6075 16.1913 10.6075 15.6363V15.5003H11.8149C12.3699 15.5003 12.8215 15.9518 12.8215 16.5069Z" fill="white"/>
<path d="M23.198 20.2672C22.8596 19.7504 22.4152 19.3636 21.8812 19.115C22.1986 18.7599 22.3921 18.2918 22.3921 17.7792V15.6363V15.0002C22.3921 14.7239 22.1681 14.5 21.8919 14.5H20.1843C19.0777 14.5 18.1775 15.4003 18.1775 16.5069V17.143V17.7792C18.1775 18.2918 18.3709 18.7599 18.6883 19.115C18.1544 19.3635 17.7099 19.7503 17.3716 20.2672C16.8399 21.0793 16.5703 22.1911 16.5703 23.5716C16.5703 23.8479 16.7942 24.0718 17.0705 24.0718H23.4991C23.7753 24.0718 23.9992 23.8479 23.9992 23.5716C23.9992 22.1912 23.7296 21.0794 23.198 20.2672ZM17.5848 23.0715C17.6397 22.1323 17.8525 21.3588 18.2085 20.8151C18.6618 20.1226 19.3409 19.7861 20.2848 19.7861C21.2286 19.7861 21.9078 20.1227 22.361 20.8151C22.717 21.3588 22.9298 22.1323 22.9847 23.0715H17.5848ZM20.1843 18.7858C19.6293 18.7858 19.1778 18.3342 19.1778 17.7792V17.6432H20.3852C20.7519 17.6432 21.0956 17.5439 21.3918 17.3714V17.7792C21.3918 18.3342 20.9402 18.7858 20.3852 18.7858H20.1843ZM19.1778 16.5069C19.1778 15.9519 19.6293 15.5003 20.1843 15.5003H21.3918V15.6363C21.3918 16.1914 20.9402 16.6429 20.3852 16.6429H19.1778V16.5069Z" fill="white"/>
<path d="M18.6179 11.6278C18.576 11.502 18.4858 11.3979 18.3671 11.3386L16.5007 10.4054V7.50022C16.5007 7.26825 16.3413 7.06675 16.1155 7.01344C15.8896 6.96012 15.657 7.06905 15.5532 7.27655L13.4103 11.5623C13.2868 11.8093 13.387 12.1098 13.634 12.2333L15.5004 13.1665V16.0717C15.5004 16.3036 15.6599 16.5051 15.8857 16.5584C15.924 16.5675 15.9626 16.5719 16.0007 16.5719C16.1868 16.5719 16.3618 16.4676 16.4479 16.2953L18.5908 12.0096C18.6501 11.891 18.6599 11.7536 18.6179 11.6278ZM16.5007 13.953V12.8574C16.5007 12.6679 16.3937 12.4948 16.2243 12.4101L14.5287 11.5623L15.5004 9.61889V10.7145C15.5004 10.904 15.6074 11.0772 15.7769 11.1619L17.4724 12.0096L16.5007 13.953Z" fill="white"/>
<path d="M10.1423 10.1908L11.4768 10.9084C11.5522 10.9489 11.6333 10.9681 11.7133 10.9681C11.8915 10.9681 12.0639 10.8726 12.1542 10.7047C12.285 10.4615 12.1938 10.1582 11.9506 10.0274L10.616 9.30977C10.3727 9.17889 10.0695 9.27012 9.93866 9.5134C9.80782 9.75667 9.89901 10.06 10.1423 10.1908Z" fill="white"/>
<path d="M9.79403 12.8066L11.2782 13.1117C11.3122 13.1187 11.3461 13.1221 11.3795 13.1221C11.6119 13.1221 11.8202 12.9592 11.8689 12.7226C11.9245 12.4521 11.7503 12.1876 11.4797 12.132L9.99552 11.8268C9.72487 11.771 9.46053 11.9454 9.40487 12.2159C9.34926 12.4865 9.52348 12.751 9.79403 12.8066Z" fill="white"/>
<path d="M20.2897 10.9641C20.3697 10.9641 20.4508 10.9449 20.5262 10.9044L21.8607 10.1868C22.104 10.056 22.1952 9.75271 22.0644 9.50947C21.9335 9.26616 21.6303 9.17503 21.387 9.30584L20.0524 10.0234C19.8092 10.1542 19.718 10.4575 19.8488 10.7008C19.9391 10.8687 20.1116 10.9641 20.2897 10.9641Z" fill="white"/>
<path d="M22.0048 11.8229L20.5206 12.1281C20.2501 12.1837 20.0758 12.4482 20.1314 12.7187C20.1801 12.9553 20.3884 13.1182 20.6208 13.1182C20.6542 13.1182 20.6881 13.1148 20.7221 13.1078L22.2063 12.8026C22.4768 12.747 22.6511 12.4825 22.5954 12.212C22.5398 11.9414 22.2755 11.7672 22.0048 11.8229Z" fill="white"/>
</svg>
