<svg width="36" height="36" viewBox="0 0 36 36" fill="none" xmlns="http://www.w3.org/2000/svg">
<path fill-rule="evenodd" clip-rule="evenodd" d="M18 0.5C8.33502 0.5 0.5 8.33502 0.5 18C0.5 27.665 8.33502 35.5 18 35.5C27.665 35.5 35.5 27.665 35.5 18C35.5 8.33502 27.665 0.5 18 0.5ZM17.7744 26.75C17.1703 26.75 16.6807 26.2603 16.6807 25.6562L16.6807 19.0937H10.1182C9.5141 19.0937 9.02443 18.6041 9.02443 18C9.02443 17.3959 9.5141 16.9062 10.1182 16.9062H16.6807V10.3437C16.6807 9.73967 17.1703 9.25 17.7744 9.25C18.3785 9.25 18.8682 9.73967 18.8682 10.3437V16.9062L25.4307 16.9062C26.0347 16.9062 26.5244 17.3959 26.5244 18C26.5244 18.6041 26.0347 19.0938 25.4307 19.0938L18.8682 19.0937L18.8682 25.6562C18.8682 26.2603 18.3785 26.75 17.7744 26.75Z" fill="#8F59E8"/>
</svg>
