<svg  viewBox="0 0 14 16"  xmlns="http://www.w3.org/2000/svg">
<path d="M6.928 0L0 4V12L6.928 16L13.856 12V4L6.928 0ZM6.21267 0.963333H6.21333C6.41971 1.11568 6.66948 1.19788 6.926 1.19788C7.18252 1.19788 7.43229 1.11568 7.63867 0.963333L12.6613 3.86333C12.6512 3.9526 12.6512 4.04273 12.6613 4.132L7.638 7.032C7.43168 6.87981 7.18204 6.7977 6.92567 6.7977C6.66929 6.7977 6.41965 6.87981 6.21333 7.032L1.18933 4.132C1.19937 4.04295 1.19937 3.95305 1.18933 3.864L6.21267 0.963333ZM13.144 4.93333C13.2167 4.98667 13.2947 5.03133 13.3767 5.06733V10.8673C13.1415 10.9699 12.9454 11.1452 12.8171 11.3674C12.6889 11.5896 12.6352 11.8471 12.664 12.102L7.64067 15.002C7.56834 14.949 7.49029 14.9043 7.408 14.8687L7.402 9.1C7.63718 8.99757 7.83335 8.82247 7.96173 8.60038C8.09011 8.3783 8.14394 8.12092 8.11533 7.866L13.144 4.93333ZM0.712 4.96533L5.73533 7.86533C5.70653 8.12028 5.76019 8.37775 5.88845 8.59996C6.01672 8.82218 6.21282 8.99743 6.448 9.1V14.9C6.36533 14.936 6.288 14.9813 6.21533 15.0347L1.192 12.1347C1.22081 11.8797 1.16714 11.6222 1.03888 11.4C0.910617 11.1778 0.714509 11.0026 0.479333 10.9V5.1C0.561795 5.06377 0.64004 5.01861 0.712667 4.96533H0.712Z" />
</svg>
