<svg width="35" height="25" viewBox="0 0 35 25" fill="none" xmlns="http://www.w3.org/2000/svg">
<path d="M28.9268 2.07341C26.802 1.11514 24.5243 0.406848 22.1426 0.00409718C22.1213 2.5112e-05 22.0994 0.0026493 22.0797 0.0116069C22.0601 0.0205644 22.0437 0.0354122 22.0328 0.0540939C21.7412 0.56656 21.4162 1.23457 21.1885 1.76232C18.6624 1.38489 16.0942 1.38489 13.5681 1.76232C13.3144 1.17744 13.0284 0.607147 12.7112 0.0540939C12.7005 0.0351822 12.6842 0.0199986 12.6646 0.0105692C12.645 0.00113974 12.623 -0.00208711 12.6015 0.00131946C10.2211 0.404071 7.94349 1.11236 5.81724 2.07202C5.79895 2.07969 5.78344 2.09277 5.7728 2.10951C1.45086 8.46326 0.266213 14.6601 0.848119 20.7791C0.849739 20.7941 0.854391 20.8086 0.861792 20.8217C0.869193 20.8349 0.87919 20.8464 0.891172 20.8555C3.41377 22.6921 6.2274 24.0912 9.21424 24.9941C9.23506 25.0005 9.25733 25.0005 9.27814 24.9941C9.29895 24.9876 9.31734 24.9751 9.3309 24.958C9.97252 24.097 10.5447 23.1873 11.0336 22.2318C11.0627 22.1763 11.035 22.1096 10.9766 22.0874C10.0795 21.7495 9.21019 21.3418 8.37679 20.868C8.36182 20.8595 8.3492 20.8473 8.34007 20.8327C8.33094 20.8181 8.32558 20.8014 8.32448 20.7842C8.32338 20.767 8.32657 20.7498 8.33376 20.7341C8.34095 20.7184 8.35192 20.7048 8.36568 20.6944C8.54067 20.5652 8.71566 20.4305 8.88231 20.2958C8.89732 20.2837 8.91539 20.276 8.93451 20.2735C8.95364 20.2711 8.97307 20.274 8.99064 20.2819C14.4444 22.7318 20.351 22.7318 25.7409 20.2819C25.7586 20.2735 25.7782 20.2702 25.7976 20.2724C25.817 20.2747 25.8354 20.2823 25.8506 20.2944C26.0173 20.4305 26.1909 20.5652 26.3673 20.6944C26.3812 20.7046 26.3923 20.718 26.3997 20.7336C26.4072 20.7491 26.4106 20.7662 26.4098 20.7834C26.409 20.8006 26.4039 20.8174 26.395 20.8321C26.3861 20.8469 26.3738 20.8592 26.3589 20.868C25.5284 21.3457 24.6646 21.7499 23.7577 22.086C23.7438 22.091 23.7311 22.099 23.7205 22.1094C23.7099 22.1197 23.7016 22.1322 23.6962 22.146C23.6909 22.1598 23.6885 22.1746 23.6893 22.1894C23.69 22.2042 23.694 22.2186 23.7008 22.2318C24.2008 23.1859 24.7729 24.0942 25.4021 24.9566C25.4151 24.9743 25.4334 24.9876 25.4542 24.9945C25.4751 25.0015 25.4976 25.0018 25.5187 24.9955C28.5107 24.0951 31.3289 22.6954 33.8543 20.8555C33.8666 20.8469 33.8769 20.8357 33.8846 20.8228C33.8923 20.8099 33.8971 20.7955 33.8987 20.7805C34.5931 13.706 32.7349 7.55916 28.9699 2.11229C28.9607 2.09459 28.9454 2.08079 28.9268 2.07341ZM11.8488 17.053C10.2072 17.053 8.85315 15.5684 8.85315 13.7476C8.85315 11.9255 10.1808 10.4423 11.8488 10.4423C13.5292 10.4423 14.8708 11.938 14.8444 13.7476C14.8444 15.5697 13.5167 17.053 11.8488 17.053ZM22.9244 17.053C21.2815 17.053 19.9288 15.5684 19.9288 13.7476C19.9288 11.9255 21.2551 10.4423 22.9244 10.4423C24.6049 10.4423 25.9465 11.938 25.9201 13.7476C25.9201 15.5697 24.6063 17.053 22.9244 17.053Z" fill="#959595"/>
</svg>
