<svg viewBox="0 0 16 16" xmlns="http://www.w3.org/2000/svg">
<path d="M2 14.6667C2 14.2985 2.29848 14 2.66667 14H13.3333C13.7015 14 14 14.2985 14 14.6667C14 15.0349 13.7015 15.3333 13.3333 15.3333H2.66667C2.29848 15.3333 2 15.0349 2 14.6667Z" />
<path fill-rule="evenodd" clip-rule="evenodd" d="M11.1381 2.07938C10.8777 1.81903 10.4556 1.81903 10.1953 2.07938L9.6095 2.66514L12 5.05567L12.5858 4.4699C12.8461 4.20955 12.8461 3.78744 12.5858 3.52709L11.1381 2.07938ZM4.6095 7.66514L8.66669 3.60795L11.0572 5.99848L7.00002 10.0557L4.6095 7.66514ZM3.66669 8.60795L3.33333 8.94131V11.3318H5.72386L6.05721 10.9985L3.66669 8.60795ZM9.25245 1.13657C10.0335 0.355519 11.2998 0.355519 12.0809 1.13657L13.5286 2.58428C14.3096 3.36533 14.3096 4.63166 13.5286 5.41271L6.66667 12.2746C6.41662 12.5247 6.07748 12.6652 5.72386 12.6652H3.33333C2.59695 12.6652 2 12.0682 2 11.3318V8.94131C2 8.58768 2.14048 8.24854 2.39052 7.9985L9.25245 1.13657Z"/>
</svg>
