<svg width="17" height="17" viewBox="0 0 17 17" fill="none" xmlns="http://www.w3.org/2000/svg">
<path d="M3.10409 0C1.38456 0 0 1.38456 0 3.10409V13.8959C0 15.6154 1.38456 17 3.10409 17H8.95315V10.354H7.19578V7.9613H8.95315V5.91706C8.95315 4.31099 9.99149 2.83634 12.3834 2.83634C13.3519 2.83634 14.068 2.92932 14.068 2.92932L14.0117 5.16376C14.0117 5.16376 13.2813 5.15685 12.4843 5.15685C11.6218 5.15685 11.4835 5.55428 11.4835 6.21405V7.96132H14.0802L13.9671 10.3541H11.4835V17H13.8959C15.6154 17 17 15.6154 17 13.8959V3.10411C17 1.38458 15.6154 1.7e-05 13.8959 1.7e-05H3.10407L3.10409 0Z" fill="url(#paint0_linear_1_5840)"/>
<defs>
<linearGradient id="paint0_linear_1_5840" x1="8.49998" y1="0" x2="8.49998" y2="17" gradientUnits="userSpaceOnUse">
<stop stop-color="white"/>
<stop offset="1" stop-color="white" stop-opacity="0.28"/>
</linearGradient>
</defs>
</svg>
