<svg width="16" height="17" viewBox="0 0 16 17" fill="none" xmlns="http://www.w3.org/2000/svg">
<g clip-path="url(#clip0_40_6489)">
<path d="M8 0.5C6.95385 0.5 6.15385 1.3 6.15385 2.34615V6.03846C6.15385 7.08462 6.95385 7.88462 8 7.88462H11.6923L14.1538 10.3462V7.88462C15.2 7.88462 16 7.08462 16 6.03846V2.34615C16 1.3 15.2 0.5 14.1538 0.5H8ZM10.5772 2.34615H11.6345L12.6732 6.03846H11.7502L11.4997 5.11538H10.5766L10.3465 6.03846H9.53846L10.5772 2.34615ZM11.0769 2.96154C11.0154 3.20769 10.9465 3.508 10.8843 3.69262L10.712 4.5H11.4425L11.2689 3.692C11.1465 3.508 11.0769 3.20769 11.0769 2.96154ZM1.84615 6.65385C0.8 6.65385 0 7.45385 0 8.5V12.1923C0 13.2385 0.8 14.0385 1.84615 14.0385V16.5L4.30769 14.0385H8C9.04615 14.0385 9.84615 13.2385 9.84615 12.1923V8.5H8C6.83077 8.5 5.904 7.7 5.59631 6.65385H1.84615ZM4.67323 8.44215C5.71938 8.44215 6.21169 9.30369 6.21169 10.2883C6.21169 11.1498 5.91569 11.6963 5.42338 11.9425C5.66954 12.0655 5.96123 12.1308 6.26892 12.1923L6.03877 12.8077C5.608 12.6846 5.16123 12.4926 4.73046 12.3074C4.66892 12.2458 4.56123 12.2502 4.49969 12.2502C3.76123 12.1886 3.07692 11.5769 3.07692 10.3462C3.07692 9.3 3.68862 8.44215 4.67323 8.44215ZM4.67323 9.11539C4.18092 9.11539 3.94215 9.66923 3.94215 10.3462C3.94215 11.0846 4.18092 11.5769 4.67323 11.5769C5.16554 11.5769 5.42277 11.0231 5.42277 10.3462C5.42277 9.66923 5.16554 9.11539 4.67323 9.11539Z" fill="#777E90"/>
</g>
<defs>
<clipPath id="clip0_40_6489">
<rect width="16" height="16" fill="white" transform="translate(0 0.5)"/>
</clipPath>
</defs>
</svg>
