<svg width="20" height="21" viewBox="0 0 20 21" fill="none" xmlns="http://www.w3.org/2000/svg">
<path fill-rule="evenodd" clip-rule="evenodd" d="M10.9371 9.63114C10.9374 9.63156 16.5896 6.36747 16.5896 6.36747C16.8955 6.19081 16.9285 5.89799 16.9285 5.78031C16.9285 5.66264 16.8955 5.36989 16.5896 5.1933L10.7776 1.83773C10.5378 1.69929 10.2689 1.63004 10 1.63004C9.73117 1.63004 9.46226 1.69929 9.22246 1.83773L3.41045 5.19326C3.10457 5.36989 3.07153 5.66264 3.07153 5.78031C3.07153 5.89799 3.10454 6.19081 3.41045 6.36747L9.06269 9.63152C9.06508 9.63246 9.06724 9.63373 9.06942 9.63502L9.06944 9.63503L9.0713 9.63612C9.64515 9.96353 10.355 9.96356 10.9289 9.63608L10.9371 9.63114ZM17.786 7.26545C17.6841 7.20663 17.4141 7.08878 17.1081 7.26545C17.108 7.26528 11.4556 10.5295 11.4556 10.5295L11.4438 10.536C10.8727 10.8714 10.5184 11.4893 10.5184 12.1521V18.6898C10.5184 19.0434 10.7557 19.2184 10.8578 19.2772C10.9479 19.3291 11.1694 19.4266 11.4306 19.3267L17.3474 15.9107C17.827 15.6337 18.125 15.1177 18.125 14.5638V7.85257C18.125 7.49931 17.888 7.3243 17.786 7.26545ZM8.54452 10.5295L8.55634 10.5361C9.12739 10.8715 9.48165 11.4893 9.48162 12.1522V18.6899C9.48162 19.0434 9.2443 19.2184 9.14225 19.2772C9.05212 19.3292 8.83056 19.4267 8.56926 19.3267L2.65257 15.9107C2.17297 15.6338 1.875 15.1177 1.875 14.5639V7.85257C1.875 7.49934 2.11207 7.3243 2.21399 7.26548C2.3159 7.20666 2.58601 7.08892 2.892 7.26531L8.54452 10.5295Z" fill="url(#paint0_linear_1_3096)"/>
<defs>
<linearGradient id="paint0_linear_1_3096" x1="10" y1="1.63004" x2="10" y2="19.37" gradientUnits="userSpaceOnUse">
<stop stop-color="white"/>
<stop offset="1" stop-color="white" stop-opacity="0.28"/>
</linearGradient>
</defs>
</svg>
