<svg width="127" height="128" viewBox="0 0 127 128" fill="none" xmlns="http://www.w3.org/2000/svg">
<path d="M47.8062 1.25813C49.1144 0.231487 51.7926 0.0289064 52.2355 2.04786C52.6029 4.23505 49.8492 5.04194 48.1736 4.48227C48.3178 5.06598 48.4586 5.64969 48.5993 6.24026C48.2972 6.30893 47.686 6.44628 47.3804 6.51839C46.9581 4.79816 46.5735 3.07106 46.189 1.34397C46.7246 1.2959 47.2637 1.25813 47.8062 1.25813ZM47.7684 2.14743C47.765 2.71054 47.8989 3.26335 47.9882 3.81959C48.8122 3.84706 49.729 3.98097 50.4638 3.50713C51.2295 3.11227 51.1162 1.75256 50.2715 1.52938C49.3891 1.30963 48.5032 1.68733 47.7684 2.14743Z" fill="black"/>
<path d="M71.1968 2.93158C71.5607 2.23113 72.0826 1.36244 73.0269 1.57875C74.4038 1.7573 74.6269 3.92045 73.2913 4.32218C72.2475 4.76855 71.6466 3.6595 71.1968 2.93158Z" fill="black"/>
<path d="M39.4731 4.14296C40.7092 3.00644 42.3986 2.11714 44.1154 2.48454C45.3652 2.91374 45.3102 4.50692 45.9317 5.48549C45.712 5.57133 45.269 5.74301 45.0493 5.83228C44.8913 5.78421 44.5789 5.68807 44.4209 5.64C43.4492 6.5293 42.1582 7.24005 40.8019 7.08554C39.971 6.9688 39.8062 5.69151 40.4757 5.25201C41.5539 4.38331 43.0029 4.2494 44.1463 3.49744C42.6183 3.01674 41.159 3.94724 40.0362 4.89148C39.8474 4.64083 39.662 4.39017 39.4731 4.14296ZM41.056 6.05547C42.3574 6.17221 43.851 5.66404 44.4003 4.38331C43.2569 4.81938 41.6878 4.83998 41.056 6.05547Z" fill="black"/>
<path d="M36.8703 4.76402C37.2789 4.53397 37.6943 4.30048 38.1064 4.07043C38.0995 5.47477 38.1029 6.87911 38.1029 8.28688C37.6737 8.49633 37.248 8.70921 36.8222 8.91866C36.0771 8.38302 35.3183 7.87828 34.5766 7.34264C34.5766 8.25254 34.5766 9.16588 34.5835 10.0758C34.1646 10.2887 33.7457 10.4981 33.3268 10.7076C32.1972 9.9144 31.095 9.0766 29.9653 8.27658C30.3671 8.0637 30.7722 7.84738 31.1808 7.6345C31.9293 8.25941 32.6882 8.88089 33.4642 9.4749C33.4539 8.49976 33.4058 7.53149 33.3749 6.55979C33.7629 6.34004 34.1543 6.12029 34.5492 5.90054C35.3561 6.51172 36.1733 7.11602 37.0007 7.7066C36.9836 6.7246 36.9183 5.74603 36.8703 4.76402Z" fill="black"/>
<path d="M92.4297 10.2545C93.398 8.72653 94.3422 7.18142 95.3036 5.64661C96.8968 6.75909 98.8402 7.48701 100.052 9.06302C101.378 10.7661 99.4582 13.4615 97.4118 12.9498C95.5508 12.5103 94.0538 11.1987 92.4297 10.2545ZM95.8667 7.14708C95.2624 8.14282 94.6615 9.13857 94.0263 10.1171C95.0392 10.6734 95.9629 11.4322 97.0822 11.7721C98.4453 12.2082 99.7741 10.3506 98.8368 9.22784C98.047 8.2836 96.8693 7.8132 95.8667 7.14708Z" fill="black"/>
<path d="M25.2337 11.7723C25.9994 10.3783 27.5789 9.77055 28.9935 9.25208C29.0416 9.47182 29.1412 9.91132 29.1927 10.1311C27.9291 10.5637 26.5831 11.1062 25.8415 12.2908C27.5789 12.2839 29.0004 9.74995 30.724 11.0787C30.9095 13.0393 28.839 14.0763 27.3008 14.6977C26.6552 15.0892 26.1333 14.8042 26.1162 14.0557C27.5651 13.7295 28.9695 13.0462 29.876 11.8273C28.4338 11.7552 27.4896 13.3312 26.0269 13.2247C25.2749 13.2865 24.9179 12.3732 25.2337 11.7723Z" fill="black"/>
<path d="M100.196 14.5019C100.468 13.4546 101.288 12.6924 101.927 11.8615C102.236 12.1293 102.548 12.3937 102.864 12.658C102.322 13.4169 101.556 14.1001 101.401 15.0616C101.735 16.0024 102.737 16.3663 103.616 16.5998C104.166 15.9303 104.708 15.2573 105.251 14.5809C105.58 14.8349 105.913 15.0925 106.246 15.35C105.443 16.3388 104.636 17.3277 103.839 18.32C103.499 17.9595 103.17 17.6024 102.854 17.2281C101.608 16.8573 100.207 15.944 100.196 14.5019Z" fill="black"/>
<path d="M22.2153 14.1876C22.593 13.6898 23.1046 13.3155 23.5647 12.8966C23.3553 13.7104 23.1355 14.5241 22.9192 15.3413C24.042 15.3825 25.1614 15.4649 26.2807 15.537C25.8 15.9422 25.3159 16.3474 24.8317 16.7491C24.0763 16.6942 23.321 16.6152 22.5621 16.6564C22.1432 17.3225 22.4488 17.9062 22.9021 18.4247C22.593 18.6753 22.2909 18.926 21.9887 19.1801C20.7595 17.7757 19.5715 16.3371 18.3491 14.9327C18.6616 14.658 18.9809 14.3834 19.2968 14.1121C20.0384 14.9842 20.7904 15.8495 21.5389 16.7216C21.7621 15.877 21.8926 15.0014 22.2153 14.1876Z" fill="black"/>
<path d="M104.664 18.9622C105.584 18.1209 106.497 17.2694 107.356 16.3595C107.668 16.6685 107.984 16.9741 108.3 17.2831C108.176 17.3587 107.932 17.5063 107.809 17.5784C109.107 17.7947 110.439 18.5845 110.782 19.9339C111.047 21.3519 109.635 22.2172 108.849 23.1614C108.54 22.8524 108.231 22.5434 107.922 22.2378C108.54 21.5339 109.536 20.9571 109.608 19.9304C109.278 18.9038 108.238 18.4712 107.297 18.1724C106.713 18.7355 106.133 19.3021 105.56 19.8755C105.258 19.5665 104.962 19.2643 104.664 18.9622Z" fill="black"/>
<path d="M15.5271 21.2285C15.8189 19.8859 16.5812 18.3546 18.0851 18.1142C19.3967 18.0455 20.2139 19.2713 21.1273 20.0164C20.8388 20.3117 20.5538 20.607 20.2689 20.9057C19.4482 20.3083 18.6139 18.9486 17.4465 19.5289C16.7357 20.0302 16.4816 20.8989 16.2001 21.6748C16.7872 22.2689 17.4018 22.8354 18.0199 23.4019C17.7211 23.6972 17.4259 23.9994 17.1306 24.3015C16.2207 23.4466 15.3073 22.6019 14.4043 21.7435C14.6034 21.5135 15.0017 21.0602 15.2009 20.8302C15.2833 20.9298 15.4481 21.1289 15.5271 21.2285Z" fill="black"/>
<path d="M109.799 24.1839C111.259 23.013 112.756 21.8903 114.208 20.7091C114.4 20.9598 114.788 21.4645 114.981 21.7152C114.074 22.4328 113.161 23.1401 112.247 23.844C113.089 24.0809 113.957 24.2594 114.775 24.5959C115.272 24.9942 115.606 25.5505 116.024 26.0277C115.211 25.7805 114.407 25.5264 113.597 25.2895C113.487 26.3986 113.37 27.5042 113.271 28.6167C112.876 28.1188 112.484 27.6209 112.096 27.123C112.182 26.3745 112.265 25.626 112.354 24.8809C112.093 24.7985 111.571 24.6303 111.314 24.5479C111.07 24.7539 110.826 24.9599 110.586 25.1693C110.318 24.8397 110.06 24.5101 109.799 24.1839Z" fill="black"/>
<path d="M12.4814 24.4452C12.7217 24.1053 12.9655 23.7619 13.2093 23.422C14.2497 24.1774 15.2763 24.9568 16.3167 25.7191C15.939 26.0418 15.5613 26.3646 15.1664 26.6702C14.9844 27.7277 14.4419 28.799 13.4668 29.3278C12.0831 29.8668 10.9706 28.593 9.92334 27.9063C10.1706 27.5698 10.4212 27.2401 10.6719 26.9071C11.5303 27.3878 12.3852 28.5449 13.4668 28.0779C14.1638 27.6419 14.3389 26.7938 14.6033 26.0796C13.9235 25.4993 13.2024 24.974 12.4814 24.4452Z" fill="black"/>
<path d="M115.536 28.1739C115.993 27.5902 116.841 27.7001 117.339 28.167C118.403 29.0941 118.88 30.4916 119.306 31.7998C119.073 31.8204 118.609 31.8616 118.379 31.8822C118.032 30.6255 117.51 29.3447 116.449 28.5207C116.422 30.1654 118.07 31.3225 117.874 33.029C117.191 33.4376 116.309 33.5749 115.742 32.8985C114.664 31.8856 113.998 30.4778 113.737 29.0323C113.957 28.9361 114.4 28.7404 114.619 28.6443C114.891 30.107 115.406 31.7792 116.855 32.4796C116.576 30.9894 115.076 29.7808 115.536 28.1739Z" fill="black"/>
<path d="M7.24175 29.6788C8.8109 28.3672 11.5166 29.9398 11.235 31.945C11.0359 33.9364 9.60406 35.5056 8.76969 37.2602C7.19024 36.3571 5.59363 35.485 4.01074 34.5854C5.08202 32.9544 5.68977 30.9424 7.24175 29.6788ZM7.4306 30.9046C6.54817 31.7458 6.10523 32.9235 5.47689 33.9502C6.49666 34.5099 7.50957 35.0867 8.52934 35.6532C9.09932 34.5579 9.90621 33.5278 10.0951 32.2849C10.2496 30.9527 8.42634 30.0153 7.4306 30.9046Z" fill="black"/>
<path d="M117.507 35.8985C118.386 34.8032 119.272 33.7078 120.127 32.5919C120.309 33.0177 120.491 33.44 120.677 33.8692C120.048 34.6006 119.41 35.3251 118.757 36.0358C119.739 36.053 120.725 36.1148 121.71 36.1594C121.902 36.5302 122.098 36.9045 122.297 37.2788C121.655 38.0754 121.01 38.8685 120.367 39.6651C121.377 39.672 122.39 39.6823 123.403 39.7475C123.578 40.1595 123.753 40.5716 123.932 40.987C122.541 40.9046 121.154 40.7845 119.763 40.7604C119.554 40.3312 119.344 39.9055 119.138 39.4797C119.712 38.738 120.282 37.9964 120.869 37.2685C119.945 37.2204 119.018 37.1826 118.094 37.1689C117.899 36.7466 117.703 36.3208 117.507 35.8985Z" fill="black"/>
<path d="M123.387 42.9987C123.596 42.8647 124.008 42.5969 124.218 42.463C125.275 43.8811 126.395 45.876 125.433 47.6168C124.63 48.3653 123.421 48.4374 122.456 48.9147C122.388 48.355 122.336 47.8022 122.333 47.2426C121.584 46.1095 120.781 44.6365 121.375 43.2733C121.825 43.0227 122.47 42.7377 122.855 43.2665C123.857 44.2897 123.964 45.8348 124.475 47.119C124.62 46.8408 124.771 46.5661 124.922 46.2915C124.705 45.076 124.218 43.9189 123.387 42.9987ZM122.058 44.0562C122.199 45.3301 122.477 46.8305 123.765 47.4348C123.353 46.2674 123.445 44.5266 122.058 44.0562Z" fill="black"/>
<path d="M121.094 50.1494C122.849 49.8541 124.593 49.5039 126.348 49.2189C126.372 49.727 126.313 50.2215 126.169 50.709C127.443 52.0516 127.367 55.0388 125.142 55.2586C123.089 55.2551 122.468 52.6422 123.099 51.049C122.502 51.1726 121.908 51.2825 121.314 51.3992C121.242 50.9803 121.17 50.5648 121.094 50.1494ZM123.687 51.5056C123.58 52.3057 123.663 53.2533 124.349 53.7924C124.823 54.0637 125.558 54.0019 125.836 53.4731C126.427 52.5357 125.781 51.4541 125.294 50.6232C124.734 50.8533 123.752 50.6884 123.687 51.5056Z" fill="black"/>
<path d="M0.364534 53.3922C1.10619 52.4068 2.85732 53.042 2.82985 54.2609C2.94316 54.8652 2.38005 55.2566 2.06073 55.6824C1.7517 55.6893 1.13366 55.703 0.824634 55.7099C0.082979 55.2086 -0.349652 54.1064 0.364534 53.3922Z" fill="black"/>
<path d="M122.921 72.8145C122.818 72.1587 123.329 71.7089 123.769 71.3243C124.074 71.3381 124.685 71.3587 124.991 71.369C125.427 71.8394 125.983 72.4162 125.695 73.1235C125.558 73.7794 124.847 73.9613 124.359 74.2772C123.755 73.9579 122.89 73.642 122.921 72.8145Z" fill="black"/>
<path d="M0.310006 75.644C0.900583 74.5006 2.71695 74.3152 3.47577 75.383C4.28267 76.3204 4.25176 77.6114 4.06978 78.7617C4.64319 78.6209 5.22347 78.4904 5.80375 78.3668C5.88272 78.7754 5.96169 79.1909 6.0441 79.6029C4.3479 79.9703 2.65858 80.3583 0.969254 80.736C0.873114 80.3102 0.776975 79.8914 0.680834 79.469C0.783842 79.469 0.989859 79.469 1.0963 79.469C0.231037 78.4252 -0.294305 76.9385 0.310006 75.644ZM1.06539 76.6878C0.828477 77.608 1.31948 78.4836 1.77272 79.2493C2.30492 79.1394 2.83713 79.0227 3.3659 78.899C3.40024 78.0922 3.52728 77.196 3.05344 76.4887C2.63798 75.7058 1.31948 75.8397 1.06539 76.6878Z" fill="black"/>
<path d="M2.02621 82.8347C2.47601 81.578 4.08293 81.6123 5.0821 80.9943C5.15764 81.2277 5.31215 81.6982 5.38769 81.9316C5.32245 82.117 5.25378 82.3025 5.18854 82.4913C6.07097 83.4802 6.80233 84.7678 6.63752 86.1378C6.50361 86.9893 5.23318 87.1473 4.79368 86.4468C3.97992 85.3687 3.7533 83.9952 3.13869 82.8141C2.46571 84.2939 3.53355 85.791 4.44689 86.8966C4.26147 87.0408 3.88721 87.3258 3.7018 87.47C2.57902 86.2305 1.67598 84.548 2.02621 82.8347ZM3.92498 82.536C4.39195 83.645 4.36448 85.2828 5.6246 85.8356C5.68984 84.5549 5.21257 83.051 3.92498 82.536Z" fill="black"/>
<path d="M3.64404 88.7599C5.05181 88.8286 6.46302 88.8629 7.87079 88.8423C8.08024 89.2646 8.28968 89.687 8.4957 90.1127C7.95662 90.8647 7.42442 91.6235 6.87848 92.3755C7.77808 92.372 8.68111 92.3308 9.58071 92.3995C9.8657 92.7463 10.0752 93.1446 10.3121 93.5257C9.50518 94.6931 8.63991 95.8228 7.82615 96.9868C7.61327 96.5782 7.40038 96.1696 7.1875 95.7678C7.80555 95.0056 8.4236 94.2502 9.03134 93.4845C8.0459 93.4845 7.06389 93.5017 6.08189 93.5635C5.88274 93.1617 5.68359 92.7635 5.48788 92.3652C6.07502 91.5617 6.6656 90.7582 7.26304 89.9616C6.257 89.9651 5.25096 89.9651 4.24492 90.0063C4.04234 89.5874 3.84319 89.1719 3.64404 88.7599Z" fill="black"/>
<path d="M118.058 90.8243C119.63 91.7377 121.22 92.6201 122.799 93.5266C121.752 95.1678 121.083 97.1387 119.558 98.416C117.961 99.7345 115.283 98.1173 115.537 96.1258C115.829 94.1446 117.199 92.5789 118.058 90.8243ZM116.743 95.5387C116.382 96.8434 118.061 98.0795 119.177 97.2967C120.221 96.5241 120.653 95.2262 121.333 94.1652C120.313 93.5952 119.304 93.0115 118.288 92.4416C117.762 93.4648 117.031 94.409 116.743 95.5387Z" fill="black"/>
<path d="M10.2054 97.3744C10.0509 96.5675 11.0466 95.8567 11.7539 96.334C13.1136 97.0688 13.924 98.5658 14.3463 100.008C14.4974 100.53 14.2501 100.811 13.6046 100.849C13.2372 99.4414 12.7119 97.7108 11.1874 97.1855C11.6063 98.5864 13.0278 99.7195 12.7188 101.282C12.3754 102.047 11.3659 101.914 10.8646 101.402C9.80709 100.499 9.17531 99.201 8.84912 97.8722C9.06544 97.8413 9.49464 97.7829 9.70752 97.7555C10.0955 99.0156 10.6552 100.324 11.8054 101.076C11.7333 99.668 10.5041 98.71 10.2054 97.3744Z" fill="black"/>
<path d="M111.599 101.364C111.853 100.248 112.492 99.1083 113.597 98.6688C114.926 98.3839 115.891 99.5616 116.914 100.193C116.65 100.53 116.389 100.873 116.131 101.217C115.427 100.702 114.775 100.066 113.916 99.8328C112.835 99.977 112.485 101.144 112.21 102.034C112.893 102.593 113.604 103.122 114.308 103.654C114.057 103.987 113.807 104.324 113.559 104.66C112.543 103.881 111.52 103.115 110.486 102.36C110.85 102.02 111.221 101.687 111.599 101.364Z" fill="black"/>
<path d="M15.0978 100.608C15.4892 101.116 15.8978 101.614 16.3099 102.108C16.2583 102.887 16.1965 103.667 16.1691 104.446C16.8421 104.649 17.4601 104.498 17.9889 104.065C18.2395 104.36 18.4867 104.656 18.7408 104.954C17.3262 106.17 15.891 107.358 14.4832 108.58C14.2051 108.261 13.9304 107.949 13.6591 107.636C14.5381 106.891 15.4034 106.129 16.2893 105.394C15.4103 105.178 14.5347 104.961 13.6591 104.745C13.2711 104.285 12.8797 103.832 12.4917 103.378C13.2917 103.581 14.0952 103.794 14.8952 104.01C14.9433 102.874 15.0257 101.741 15.0978 100.608Z" fill="black"/>
<path d="M108.812 104.348C109.114 104.05 109.416 103.754 109.722 103.459C110.597 104.318 111.51 105.135 112.4 105.983C112.208 106.223 111.82 106.704 111.627 106.944C111.531 106.845 111.346 106.649 111.25 106.549C111.002 107.981 110.034 109.588 108.427 109.64C107.246 109.454 106.511 108.4 105.663 107.665C105.879 107.452 106.309 107.023 106.521 106.81C107.205 107.449 107.919 108.067 108.76 108.493C109.811 108.07 110.381 107.078 110.607 106.01C110.01 105.454 109.406 104.905 108.812 104.348Z" fill="black"/>
<path d="M17.6499 108.866C17.8456 107.73 18.8551 107.005 19.5624 106.178C19.868 106.435 20.177 106.696 20.486 106.957C19.8611 107.651 19.2465 108.362 18.7967 109.186C19.1675 110.278 20.1839 110.834 21.2483 111.074C21.8286 110.484 22.3814 109.872 22.9445 109.272C23.2432 109.567 23.5419 109.866 23.8441 110.168C22.9926 111.06 22.1582 111.97 21.3032 112.86C20.977 112.592 20.6543 112.331 20.335 112.07C20.4483 111.991 20.6783 111.836 20.7951 111.757C19.3495 111.466 17.6774 110.528 17.6499 108.866Z" fill="black"/>
<path d="M103.53 109.4C103.846 109.104 104.169 108.809 104.485 108.514C105.676 109.963 106.895 111.395 108.114 112.826C107.792 113.098 107.472 113.369 107.156 113.644C106.411 112.765 105.67 111.886 104.935 111C104.643 112.469 104.372 114.069 102.888 114.825C103.091 114.014 103.314 113.211 103.544 112.407C102.411 112.325 101.285 112.243 100.155 112.181C100.653 111.783 101.144 111.374 101.642 110.976C102.394 111.02 103.143 111.075 103.898 111.123C103.987 110.756 104.083 110.392 104.176 110.031C103.96 109.819 103.743 109.609 103.53 109.4Z" fill="black"/>
<path d="M22.6318 114.045C23.4078 113.025 24.1598 111.988 24.9255 110.965C25.2585 111.332 25.595 111.707 25.9178 112.091C27.0509 112.27 28.1668 112.963 28.6303 114.045C28.8947 115.381 27.7479 116.363 27.0886 117.375C26.759 117.111 26.4328 116.854 26.1066 116.596C26.6079 115.799 27.4972 115.065 27.4183 114.041C27.0097 113.207 26.0757 112.939 25.2654 112.675C24.7092 113.368 24.1701 114.076 23.6344 114.787C23.298 114.536 22.9649 114.289 22.6318 114.045Z" fill="black"/>
<path d="M96.5846 114.56C97.5701 113.681 98.7821 113.005 100.114 112.854C100.176 113.063 100.303 113.479 100.368 113.685C98.9091 114.035 97.4293 114.66 96.5675 115.958C98.0336 115.964 98.9916 114.406 100.471 114.526C101.196 114.478 101.615 115.439 101.213 116.006C100.417 117.359 98.8714 118.031 97.4258 118.45C97.3881 118.234 97.316 117.805 97.2782 117.589C98.5452 117.18 99.8603 116.648 100.629 115.491C99.2559 115.57 98.2945 116.692 97.0172 117.053C96.4438 117.262 95.9631 116.795 95.7228 116.332C95.6266 115.618 96.0867 115.01 96.5846 114.56Z" fill="black"/>
<path d="M28.8604 120.014C27.6174 118.438 29.087 115.931 31.0201 115.989C33.0631 116.226 34.6769 117.641 36.4658 118.527C35.5559 120.103 34.6631 121.689 33.7773 123.279C32.1395 122.201 30.1377 121.559 28.8604 120.014ZM30.1342 119.869C30.9823 120.724 32.1257 121.191 33.1489 121.796C33.712 120.769 34.282 119.753 34.8657 118.743C33.7532 118.194 32.7232 117.373 31.4733 117.184C30.1445 117.074 29.2003 118.87 30.1342 119.869Z" fill="black"/>
<path d="M91.9351 117.58C92.3369 117.384 92.742 117.195 93.1506 117.01C94.2768 117.824 95.379 118.672 96.5155 119.475C96.1069 119.678 95.6983 119.884 95.2932 120.093C94.5412 119.485 93.7927 118.881 93.0476 118.273C93.0373 119.266 93.0373 120.258 93.0373 121.254C92.6562 121.436 92.2785 121.614 91.9008 121.8C91.1076 121.206 90.3007 120.629 89.511 120.035C89.5076 121.01 89.5591 121.989 89.4767 122.964C89.099 123.208 88.7144 123.438 88.3196 123.654C88.3093 122.239 88.3676 120.821 88.4123 119.407C88.8071 119.187 89.2089 118.967 89.6106 118.754C90.3728 119.31 91.1488 119.849 91.918 120.406C91.9111 119.461 91.9145 118.521 91.9351 117.58Z" fill="black"/>
<path d="M80.501 122.109C82.3654 122.349 83.5672 120.505 85.411 120.618C86.2728 120.533 86.8119 121.751 86.1458 122.318C85.102 123.324 83.5637 123.451 82.3482 124.169C83.8384 124.773 85.3355 123.764 86.4342 122.83C86.5716 123.022 86.8531 123.41 86.9939 123.602C85.8299 124.66 84.2985 125.463 82.6882 125.319C81.119 125.12 81.1671 123.194 80.501 122.109ZM82.0495 123.355C83.1208 123.073 84.1715 122.703 85.1913 122.27C85.1913 122.098 85.1878 121.755 85.1878 121.583C83.962 121.703 82.5749 122.112 82.0495 123.355Z" fill="black"/>
<path d="M77.9121 121.491C78.3207 121.406 78.7293 121.323 79.1448 121.244C79.5225 122.937 79.8967 124.637 80.2676 126.333C79.962 126.401 79.3542 126.532 79.0486 126.601C79.0418 126.484 79.028 126.25 79.0212 126.134C77.7748 127.459 74.8459 127.857 74.2622 125.711C73.8399 123.504 76.628 122.721 78.307 123.225C78.1696 122.645 78.0357 122.072 77.9121 121.491ZM75.9996 124.242C75.3095 124.585 75.3404 125.773 76.0305 126.099C76.9473 126.614 77.9602 125.959 78.7774 125.536C78.6778 124.99 78.5542 124.444 78.4272 123.909C77.6134 123.881 76.7138 123.751 75.9996 124.242Z" fill="black"/>
</svg>
