<svg width="58" height="38" viewBox="0 0 58 38" fill="none" xmlns="http://www.w3.org/2000/svg">
<path d="M55.3816 2.52999C54.3132 1.51331 52.8622 0.938959 51.3468 0.932915L28.9121 0.932915V3.97819C28.9128 5.42372 29.52 6.80988 30.6004 7.83216C31.1374 8.34201 31.7757 8.74623 32.4787 9.02151C33.1816 9.29678 33.9352 9.43766 34.696 9.436H57.0556V10.1432H34.696C33.167 10.1444 31.7008 10.7187 30.6183 11.7403C29.5377 12.7638 28.9305 14.1511 28.93 15.5976V18.6429H51.404C52.9183 18.6242 54.3639 18.042 55.4277 17.0224C56.4915 16.0028 57.0879 14.6278 57.0878 13.1952V6.38396C57.0861 5.66687 56.9344 4.95719 56.6416 4.29576C56.3488 3.63433 55.9206 3.03423 55.3816 2.52999Z" fill="#1D1D3C"/>
<path d="M28.9125 19.3537H0V24.1247C0.0102621 25.5558 0.615446 26.9256 1.68474 27.938C2.22004 28.4448 2.85574 28.8467 3.55546 29.1208C4.25517 29.3948 5.00516 29.5356 5.76247 29.5351H28.1184V30.2423H5.76247C4.23327 30.2428 2.76674 30.8172 1.68474 31.8394C0.616098 32.8522 0.0110304 34.2218 0 35.6527L0 37.0671H57.0703V31.6533C57.0693 30.2078 56.4619 28.8219 55.3815 27.7998C54.301 26.7777 52.8358 26.2031 51.3078 26.2022H28.9483V25.495H51.3078C52.8359 25.4944 54.3013 24.92 55.382 23.898C55.8343 23.4696 56.2068 22.972 56.4837 22.4261C56.8654 21.6885 57.066 20.8788 57.0703 20.0575V19.3808H28.9125V19.3537Z" fill="#8F59E8"/>
<path d="M26.4694 7.83892C27.0069 7.33254 27.4336 6.73094 27.7251 6.06849C28.0166 5.40605 28.1673 4.69575 28.1685 3.97819V0.932915H0V9.436H22.4025C23.9282 9.43431 25.391 8.85991 26.4694 7.83892Z" fill="#1D1D3C"/>
<path d="M28.1685 15.5983C28.1675 14.1523 27.5596 12.7658 26.4784 11.7437C25.3971 10.7215 23.9311 10.1473 22.4024 10.1473H0V18.6504H28.1685V15.5983Z" fill="#1D1D3C"/>
</svg>
