<svg width="17" height="17" viewBox="0 0 17 17" fill="none" xmlns="http://www.w3.org/2000/svg">
<circle cx="8.5" cy="8.5" r="8.5" fill="#F6F6F6"/>
<g clip-path="url(#clip0_1_3214)">
<path d="M11.8177 6.4531C11.5807 6.31769 11.276 6.31769 11.0052 6.4531L9.10937 7.57029L7.82292 8.28123L5.96094 9.39842C5.72396 9.53383 5.41927 9.53383 5.14844 9.39842L3.69271 8.51821C3.45573 8.38279 3.28646 8.11196 3.28646 7.80727V6.11456C3.28646 5.84373 3.42187 5.5729 3.69271 5.40363L5.14844 4.55727C5.38542 4.42185 5.6901 4.42185 5.96094 4.55727L7.41667 5.43748C7.65365 5.5729 7.82292 5.84373 7.82292 6.14842V7.2656L9.10937 6.52081V5.36977C9.10937 5.09894 8.97396 4.8281 8.70312 4.65883L5.99479 3.06769C5.75781 2.93227 5.45312 2.93227 5.18229 3.06769L2.40625 4.69269C2.13542 4.8281 2 5.09894 2 5.36977V8.55206C2 8.8229 2.13542 9.09373 2.40625 9.263L5.14844 10.8541C5.38542 10.9896 5.6901 10.9896 5.96094 10.8541L7.82292 9.77081L9.10937 9.02602L10.9714 7.94269C11.2083 7.80727 11.513 7.80727 11.7839 7.94269L13.2396 8.78904C13.4766 8.92446 13.6458 9.19529 13.6458 9.49998V11.1927C13.6458 11.4635 13.5104 11.7344 13.2396 11.9036L11.8177 12.75C11.5807 12.8854 11.276 12.8854 11.0052 12.75L9.54948 11.9036C9.3125 11.7682 9.14323 11.4974 9.14323 11.1927V10.1094L7.85677 10.8541V11.9713C7.85677 12.2422 7.99219 12.513 8.26302 12.6823L11.0052 14.2734C11.2422 14.4088 11.5469 14.4088 11.8177 14.2734L14.5599 12.6823C14.7969 12.5469 14.9661 12.276 14.9661 11.9713V8.75519C14.9661 8.48435 14.8307 8.21352 14.5599 8.04425L11.8177 6.4531Z" fill="#8247E5"/>
</g>
<defs>
<clipPath id="clip0_1_3214">
<rect width="13" height="11.3411" fill="white" transform="translate(2 3)"/>
</clipPath>
</defs>
</svg>
