<svg viewBox="0 0 83 83"  xmlns="http://www.w3.org/2000/svg">
<path fill-rule="evenodd" clip-rule="evenodd" d="M41.25 0C18.4676 0 0 18.4676 0 41.25C0 64.0324 18.4676 82.5 41.25 82.5C64.0324 82.5 82.5 64.0324 82.5 41.25C82.5 18.4676 64.0324 0 41.25 0ZM41.25 4.125C20.7467 4.125 4.125 20.7467 4.125 41.25C4.125 61.7533 20.7467 78.375 41.25 78.375C61.7533 78.375 78.375 61.7533 78.375 41.25C78.375 20.7467 61.7533 4.125 41.25 4.125Z" />
<path d="M45.375 18.5625C45.375 17.4685 44.9404 16.4193 44.1668 15.6457C43.3932 14.8721 42.344 14.4375 41.25 14.4375C40.156 14.4375 39.1068 14.8721 38.3332 15.6457C37.5596 16.4193 37.125 17.4685 37.125 18.5625V47.4375C37.125 48.5315 37.5596 49.5807 38.3332 50.3543C39.1068 51.1279 40.156 51.5625 41.25 51.5625C42.344 51.5625 43.3932 51.1279 44.1668 50.3543C44.9404 49.5807 45.375 48.5315 45.375 47.4375V18.5625Z" />
<path d="M41.25 59.8125C42.344 59.8125 43.3932 60.2471 44.1668 61.0207C44.9404 61.7943 45.375 62.8435 45.375 63.9375C45.375 65.0315 44.9404 66.0807 44.1668 66.8543C43.3932 67.6279 42.344 68.0625 41.25 68.0625C40.156 68.0625 39.1068 67.6279 38.3332 66.8543C37.5596 66.0807 37.125 65.0315 37.125 63.9375C37.125 62.8435 37.5596 61.7943 38.3332 61.0207C39.1068 60.2471 40.156 59.8125 41.25 59.8125Z"/>
</svg>
