<svg width="18" height="18" viewBox="0 0 18 18" fill="none" xmlns="http://www.w3.org/2000/svg">
<path d="M16.7598 5.61719C16.6439 5.5005 16.506 5.40797 16.3542 5.34494C16.2023 5.28191 16.0394 5.24964 15.875 5.25H13.375V4.625C13.375 3.46468 12.9141 2.35188 12.0936 1.53141C11.2731 0.710936 10.1603 0.25 9 0.25C7.83968 0.25 6.72688 0.710936 5.90641 1.53141C5.08594 2.35188 4.625 3.46468 4.625 4.625V5.25H2.125C1.79348 5.25 1.47554 5.3817 1.24112 5.61612C1.0067 5.85054 0.875 6.16848 0.875 6.5V14.9375C0.875 16.4609 2.16406 17.75 3.6875 17.75H14.3125C15.0494 17.7502 15.7572 17.4621 16.2844 16.9473C16.5497 16.6941 16.761 16.3899 16.9055 16.0529C17.0499 15.7158 17.1246 15.353 17.125 14.9863V6.5C17.1255 6.33601 17.0935 6.17355 17.0308 6.02201C16.9681 5.87048 16.876 5.73288 16.7598 5.61719ZM11.9879 9.70312L8.48789 14.0781C8.43041 14.1499 8.35779 14.2082 8.27521 14.2487C8.19263 14.2892 8.10213 14.311 8.01016 14.3125H8C7.90972 14.3125 7.82052 14.293 7.73852 14.2552C7.65652 14.2174 7.58368 14.1624 7.525 14.0938L6.025 12.3406C5.97165 12.2782 5.93111 12.206 5.90569 12.1279C5.88027 12.0499 5.87048 11.9676 5.87686 11.8858C5.88325 11.8039 5.90569 11.7242 5.9429 11.651C5.98011 11.5778 6.03137 11.5127 6.09375 11.4594C6.15613 11.406 6.2284 11.3655 6.30645 11.3401C6.38449 11.3147 6.46678 11.3049 6.54861 11.3112C6.63045 11.3176 6.71022 11.3401 6.78338 11.3773C6.85654 11.4145 6.92165 11.4657 6.975 11.5281L7.98438 12.7074L11.0121 8.92188C11.1157 8.79237 11.2665 8.70933 11.4313 8.69102C11.5962 8.67271 11.7615 8.72062 11.891 8.82422C12.0205 8.92782 12.1036 9.07862 12.1219 9.24345C12.1402 9.40827 12.0923 9.57362 11.9887 9.70312H11.9879ZM12.125 5.25H5.875V4.625C5.875 3.7962 6.20424 3.00134 6.79029 2.41529C7.37634 1.82924 8.1712 1.5 9 1.5C9.8288 1.5 10.6237 1.82924 11.2097 2.41529C11.7958 3.00134 12.125 3.7962 12.125 4.625V5.25Z" fill="black"/>
</svg>
