<svg width="26" height="24" viewBox="0 0 26 24" fill="none" xmlns="http://www.w3.org/2000/svg">
<path d="M4.57072 9.36488C5.06853 7.62883 6.10316 6.09493 7.52632 4.98304C8.94948 3.87114 10.6881 3.23833 12.493 3.1753C14.2979 3.11228 16.0765 3.62226 17.5737 4.63218C19.071 5.64209 20.2101 7.10008 20.8278 8.79718" stroke="#14142B" stroke-width="2.33238" stroke-linecap="round" stroke-linejoin="round"/>
<path d="M20.6704 15.0439C20.0271 16.5686 18.9552 17.8739 17.5847 18.8015C16.2143 19.7291 14.6041 20.2392 12.9495 20.2698C11.2949 20.3005 9.66693 19.8504 8.26304 18.9742C6.85915 18.098 5.73963 16.8333 5.04024 15.3335" stroke="#14142B" stroke-width="2.33238" stroke-linecap="round" stroke-linejoin="round"/>
<path d="M6.79053 14.5703L4.2959 14.9402L3.09507 17.1579" stroke="#14142B" stroke-width="2.33238" stroke-linecap="round" stroke-linejoin="round"/>
<path d="M18.8604 9.51562L21.355 9.1457L22.5558 6.92804" stroke="#14142B" stroke-width="2.33238" stroke-linecap="round" stroke-linejoin="round"/>
</svg>
