<svg width="18" height="18" viewBox="0 0 18 18" fill="none" xmlns="http://www.w3.org/2000/svg">
<path fill-rule="evenodd" clip-rule="evenodd" d="M11.4207 12.5999C10.2918 13.4774 8.87327 14 7.33268 14C3.65078 14 0.666016 11.0152 0.666016 7.33333C0.666016 3.65143 3.65078 0.666664 7.33268 0.666664C11.0146 0.666664 13.9993 3.65143 13.9993 7.33333C13.9993 8.87392 13.4768 10.2925 12.5992 11.4214L17.0886 15.9107C17.414 16.2362 17.414 16.7638 17.0886 17.0893C16.7632 17.4147 16.2355 17.4147 15.9101 17.0893L11.4207 12.5999ZM12.3327 7.33333C12.3327 10.0948 10.0941 12.3333 7.33268 12.3333C4.57126 12.3333 2.33268 10.0948 2.33268 7.33333C2.33268 4.57191 4.57126 2.33333 7.33268 2.33333C10.0941 2.33333 12.3327 4.57191 12.3327 7.33333Z" fill="#777E91"/>
</svg>
