<svg width="40" height="40" viewBox="0 0 40 40" fill="none" xmlns="http://www.w3.org/2000/svg">
<circle cx="20" cy="20" r="20" fill="#47A5EA"/>
<g filter="url(#filter0_dd_1_3443)">
<path fill-rule="evenodd" clip-rule="evenodd" d="M21.3883 28.3335C21.3708 28.3335 21.3542 28.3327 21.3375 28.3319C20.9608 28.3094 20.6467 28.036 20.5717 27.666L19.29 21.3602C19.2233 21.0319 18.9675 20.776 18.6392 20.7094L12.3333 19.4269C11.9633 19.3527 11.69 19.0385 11.6675 18.6619C11.645 18.2844 11.8775 17.9394 12.2358 17.821L25.5692 13.3769C25.8683 13.2752 26.1983 13.3535 26.4217 13.5777C26.645 13.801 26.7225 14.131 26.6234 14.4302L22.1783 27.7635C22.065 28.106 21.745 28.3335 21.3883 28.3335Z" fill="#231F20"/>
<mask id="mask0_1_3443" style="mask-type:alpha" maskUnits="userSpaceOnUse" x="11" y="13" width="16" height="16">
<path fill-rule="evenodd" clip-rule="evenodd" d="M21.3883 28.3335C21.3708 28.3335 21.3542 28.3327 21.3375 28.3319C20.9608 28.3094 20.6467 28.036 20.5717 27.666L19.29 21.3602C19.2233 21.0319 18.9675 20.776 18.6392 20.7094L12.3333 19.4269C11.9633 19.3527 11.69 19.0385 11.6675 18.6619C11.645 18.2844 11.8775 17.9394 12.2358 17.821L25.5692 13.3769C25.8683 13.2752 26.1983 13.3535 26.4217 13.5777C26.645 13.801 26.7225 14.131 26.6234 14.4302L22.1783 27.7635C22.065 28.106 21.745 28.3335 21.3883 28.3335Z" fill="white"/>
</mask>
<g mask="url(#mask0_1_3443)">
<rect x="10" y="10" width="20" height="20" fill="white"/>
</g>
</g>
<defs>
<filter id="filter0_dd_1_3443" x="8" y="9" width="24" height="24" filterUnits="userSpaceOnUse" color-interpolation-filters="sRGB">
<feFlood flood-opacity="0" result="BackgroundImageFix"/>
<feColorMatrix in="SourceAlpha" type="matrix" values="0 0 0 0 0 0 0 0 0 0 0 0 0 0 0 0 0 0 127 0" result="hardAlpha"/>
<feOffset dy="1"/>
<feGaussianBlur stdDeviation="0.5"/>
<feColorMatrix type="matrix" values="0 0 0 0 0 0 0 0 0 0 0 0 0 0 0 0 0 0 0.03 0"/>
<feBlend mode="normal" in2="BackgroundImageFix" result="effect1_dropShadow_1_3443"/>
<feColorMatrix in="SourceAlpha" type="matrix" values="0 0 0 0 0 0 0 0 0 0 0 0 0 0 0 0 0 0 127 0" result="hardAlpha"/>
<feOffset dy="1"/>
<feGaussianBlur stdDeviation="1"/>
<feColorMatrix type="matrix" values="0 0 0 0 0 0 0 0 0 0 0 0 0 0 0 0 0 0 0.03 0"/>
<feBlend mode="normal" in2="effect1_dropShadow_1_3443" result="effect2_dropShadow_1_3443"/>
<feBlend mode="normal" in="SourceGraphic" in2="effect2_dropShadow_1_3443" result="shape"/>
</filter>
</defs>
</svg>
