<svg width="26" height="26" viewBox="0 0 26 26" fill="none" xmlns="http://www.w3.org/2000/svg">
<path d="M15.2742 25.5H10.7242C10.4392 25.5 10.1626 25.4026 9.9405 25.2239C9.71837 25.0452 9.564 24.796 9.50299 24.5175L8.99424 22.1625C8.31557 21.8651 7.67204 21.4933 7.07549 21.0538L4.77924 21.785C4.50745 21.8717 4.21418 21.8628 3.94815 21.7598C3.68211 21.6568 3.45931 21.4659 3.31675 21.2188L1.03675 17.28C0.895677 17.0327 0.842723 16.7448 0.886548 16.4634C0.930373 16.1821 1.06838 15.924 1.27799 15.7313L3.05924 14.1063C2.97824 13.3701 2.97824 12.6274 3.05924 11.8912L1.27799 10.27C1.06808 10.0772 0.929888 9.81884 0.886056 9.53723C0.842224 9.25561 0.895357 8.96746 1.03675 8.72L3.31175 4.77875C3.45431 4.53164 3.67711 4.34074 3.94315 4.23773C4.20918 4.13473 4.50245 4.12583 4.77425 4.2125L7.07049 4.94375C7.37549 4.71875 7.693 4.50875 8.02049 4.31875C8.33675 4.14125 8.66174 3.98 8.99424 3.83625L9.50425 1.48375C9.56496 1.20525 9.71904 0.95586 9.94093 0.776936C10.1628 0.598012 10.4392 0.5003 10.7242 0.5H15.2742C15.5593 0.5003 15.8357 0.598012 16.0576 0.776936C16.2795 0.95586 16.4335 1.20525 16.4942 1.48375L17.0092 3.8375C17.6875 4.13487 18.3306 4.50674 18.9267 4.94625L21.2242 4.215C21.4959 4.12865 21.7889 4.13771 22.0546 4.2407C22.3204 4.34369 22.543 4.53441 22.6855 4.78125L24.9605 8.7225C25.2505 9.23125 25.1505 9.875 24.7192 10.2713L22.938 11.8962C23.019 12.6324 23.019 13.3751 22.938 14.1112L24.7192 15.7362C25.1505 16.1337 25.2505 16.7763 24.9605 17.285L22.6855 21.2262C22.5429 21.4734 22.3201 21.6643 22.0541 21.7673C21.7881 21.8703 21.4948 21.8792 21.223 21.7925L18.9267 21.0612C18.3307 21.5004 17.6875 21.8719 17.0092 22.1687L16.4942 24.5175C16.4333 24.7958 16.2791 25.0449 16.0572 25.2236C15.8354 25.4022 15.5591 25.4998 15.2742 25.5ZM7.52424 18.2863L8.54924 19.0363C8.78049 19.2063 9.0205 19.3625 9.2705 19.505C9.5055 19.6413 9.74549 19.7638 9.99424 19.875L11.1605 20.3862L11.7317 23H14.2692L14.8405 20.385L16.0067 19.8738C16.5155 19.6488 16.9992 19.37 17.448 19.0413L18.473 18.2913L21.0255 19.1037L22.2942 16.9062L20.3155 15.1025L20.4555 13.8375C20.518 13.2838 20.518 12.725 20.4555 12.1725L20.3155 10.9075L22.2955 9.1L21.0255 6.90125L18.4742 7.71375L17.448 6.96375C16.999 6.63336 16.5158 6.35217 16.0067 6.125L14.8405 5.61375L14.2692 3H11.7317L11.1567 5.615L9.99424 6.125C9.48448 6.34826 9.00109 6.62747 8.55299 6.9575L7.52674 7.7075L4.97674 6.895L3.7055 9.1L5.68424 10.9012L5.54424 12.1675C5.48174 12.7212 5.48174 13.28 5.54424 13.8325L5.68424 15.0975L3.7055 16.9013L4.97425 19.0987L7.52424 18.2863ZM12.9942 18C11.6682 18 10.3964 17.4732 9.45871 16.5355C8.52103 15.5979 7.99424 14.3261 7.99424 13C7.99424 11.6739 8.52103 10.4021 9.45871 9.46447C10.3964 8.52678 11.6682 8 12.9942 8C14.3203 8 15.5921 8.52678 16.5298 9.46447C17.4675 10.4021 17.9942 11.6739 17.9942 13C17.9942 14.3261 17.4675 15.5979 16.5298 16.5355C15.5921 17.4732 14.3203 18 12.9942 18ZM12.9942 10.5C12.5047 10.5005 12.0261 10.6447 11.6177 10.9148C11.2094 11.1848 10.8893 11.5688 10.6972 12.0191C10.5052 12.4694 10.4495 12.9662 10.5372 13.4478C10.6249 13.9295 10.8521 14.3747 11.1905 14.7284C11.529 15.0821 11.9639 15.3287 12.4412 15.4375C12.9185 15.5463 13.4173 15.5125 13.8756 15.3405C14.3339 15.1684 14.7316 14.8655 15.0193 14.4694C15.3071 14.0734 15.4722 13.6016 15.4942 13.1125V13.6125V13C15.4942 12.337 15.2309 11.7011 14.762 11.2322C14.2932 10.7634 13.6573 10.5 12.9942 10.5Z" fill="black"/>
</svg>
