<svg viewBox="0 0 20 20" xmlns="http://www.w3.org/2000/svg">
<path fill-rule="evenodd" clip-rule="evenodd" d="M7.49882 8.36663C7.52332 8.82621 7.17061 9.21864 6.71103 9.24314C6.08379 9.27658 5.587 9.31748 5.19878 9.35843C4.67743 9.41341 4.36065 9.73365 4.30799 10.1943C4.23238 10.8557 4.16667 11.8565 4.16667 13.3334C4.16667 14.8103 4.23238 15.8111 4.30799 16.4725C4.36074 16.934 4.67672 17.2533 5.19729 17.3082C6.10898 17.4045 7.61604 17.5001 10 17.5001C12.384 17.5001 13.891 17.4045 14.8027 17.3082C15.3233 17.2533 15.6393 16.934 15.692 16.4725C15.7676 15.8111 15.8333 14.8103 15.8333 13.3334C15.8333 11.8565 15.7676 10.8557 15.692 10.1943C15.6394 9.73365 15.3226 9.41341 14.8012 9.35843C14.413 9.31748 13.9162 9.27658 13.289 9.24314C12.8294 9.21864 12.4767 8.82621 12.5012 8.36663C12.5257 7.90704 12.9181 7.55434 13.3777 7.57884C14.0301 7.61362 14.5558 7.65663 14.976 7.70095C16.213 7.83141 17.1997 8.70899 17.3479 10.005C17.4323 10.7436 17.5 11.8097 17.5 13.3334C17.5 14.8571 17.4323 15.9232 17.3479 16.6618C17.1998 17.9571 16.2154 18.8351 14.9776 18.9657C13.9933 19.0696 12.4257 19.1667 10 19.1667C7.57435 19.1667 6.00672 19.0696 5.02236 18.9657C3.78459 18.8351 2.80017 17.9571 2.65211 16.6618C2.56767 15.9232 2.5 14.8571 2.5 13.3334C2.5 11.8097 2.56767 10.7436 2.65211 10.005C2.80026 8.70899 3.78697 7.83141 5.02397 7.70095C5.44422 7.65663 5.96994 7.61362 6.6223 7.57884C7.08189 7.55434 7.47432 7.90704 7.49882 8.36663Z" />
<path fill-rule="evenodd" clip-rule="evenodd" d="M7.67259 5.17275C7.34715 5.49819 6.81951 5.49819 6.49408 5.17275C6.16864 4.84732 6.16864 4.31968 6.49408 3.99424L9.41074 1.07757C9.73618 0.752137 10.2638 0.752137 10.5893 1.07757L13.5059 3.99424C13.8314 4.31968 13.8314 4.84732 13.5059 5.17275C13.1805 5.49819 12.6528 5.49819 12.3274 5.17275L10.8333 3.67867V11.6668C10.8333 12.1271 10.4602 12.5002 10 12.5002C9.53976 12.5002 9.16667 12.1271 9.16667 11.6668V3.67867L7.67259 5.17275Z" fill="#353945"/>
</svg>
