<svg width="26" height="20" viewBox="0 0 26 20" fill="none" xmlns="http://www.w3.org/2000/svg">
<path d="M15.9125 20H15.65C15.1209 19.9475 14.6224 19.7278 14.2268 19.3726C13.8311 19.0174 13.559 18.5454 13.45 18.025L10.1 2.50004L6.65 10.5C6.55242 10.7236 6.39153 10.9138 6.18719 11.0471C5.98284 11.1803 5.74396 11.2509 5.5 11.25H1.75C1.41848 11.25 1.10054 11.1183 0.866116 10.8839C0.631696 10.6495 0.5 10.3316 0.5 10C0.5 9.66852 0.631696 9.35058 0.866116 9.11616C1.10054 8.88173 1.41848 8.75004 1.75 8.75004H4.675L7.8125 1.51254C8.02371 1.02687 8.38369 0.620813 8.84055 0.352926C9.29741 0.0850397 9.82754 -0.0308396 10.3545 0.0219961C10.8815 0.0748318 11.378 0.293653 11.7726 0.646909C12.1672 1.00016 12.4394 1.4696 12.55 1.98754L15.9 17.5L19.35 9.52504C19.4438 9.29676 19.603 9.10136 19.8077 8.96344C20.0123 8.82552 20.2532 8.75127 20.5 8.75004H24.25C24.5815 8.75004 24.8995 8.88173 25.1339 9.11616C25.3683 9.35058 25.5 9.66852 25.5 10C25.5 10.3316 25.3683 10.6495 25.1339 10.8839C24.8995 11.1183 24.5815 11.25 24.25 11.25H21.325L18.1875 18.4875C17.9959 18.9332 17.6788 19.3135 17.2749 19.582C16.8709 19.8506 16.3976 19.9958 15.9125 20Z" fill="black"/>
</svg>
