<svg width="32" height="32" viewBox="0 0 32 32" fill="none" xmlns="http://www.w3.org/2000/svg">
<circle cx="16" cy="16" r="16" fill="#141416"/>
<path d="M23 20.7891V20.7896C22.9996 21.1505 22.9261 21.5076 22.7839 21.8393C22.6421 22.1701 22.4349 22.4689 22.1747 22.7176C21.6598 23.2194 20.9691 23.5002 20.25 23.5C20.2499 23.5 20.2499 23.5 20.2498 23.5H11.75C10.2551 23.5 9 22.2449 9 20.75V14C9 13.6022 9.15804 13.2206 9.43934 12.9393C9.72064 12.658 10.1022 12.5 10.5 12.5H12C12 11.4391 12.4214 10.4217 13.1716 9.67157C13.9217 8.92143 14.9391 8.5 16 8.5C17.0609 8.5 18.0783 8.92143 18.8284 9.67157L18.4835 10.0165L18.8284 9.67157C19.5786 10.4217 20 11.4391 20 12.5H21.4995H21.5V13L23 20.7891ZM23 20.7891V14.0005M23 20.7891L22.5626 12.9415C22.7015 13.0802 22.8116 13.245 22.8867 13.4265C22.962 13.6085 23.0005 13.8036 23 14.0005M23 14.0005C23 14.0009 23 14.0012 23 14.0016L22.5 14M23 14.0005V14H22.5M22.5 14C22.5004 13.8688 22.4748 13.7388 22.4246 13.6176C22.3745 13.4964 22.3008 13.3863 22.2078 13.2938L22.5 14ZM15.2 19.75L15.2 19.75L13.9999 18.3475L13.9999 18.3475L14 18.3475L14 18.3475L13.675 17.9675L14 18.3475L14 18.3475L14 18.3475L14 18.3475L14 18.3475L14.0001 18.3476L14.8076 19.2911L15.2002 19.7497L15.2 19.75ZM13.9999 18.3474L13.9999 18.3475L13.5617 18.1246L13.9999 18.3474ZM17.9999 16.2502L18.0001 16.2498L18.0003 16.2498L18.0005 16.2498L18.0006 16.25L17.9999 16.2502ZM18 12.5H14C14 11.9696 14.2107 11.4609 14.5858 11.0858C14.9609 10.7107 15.4696 10.5 16 10.5C16.5304 10.5 17.0391 10.7107 17.4142 11.0858C17.7893 11.4609 18 11.9696 18 12.5Z" stroke="white"/>
</svg>
