<svg width="32" height="32" viewBox="0 0 32 32" fill="none" xmlns="http://www.w3.org/2000/svg">
<circle cx="16" cy="16" r="16" fill="#141416"/>
<path d="M8 19.3083C8 19.3083 8 16.8083 9.66667 16.8083C10.2333 16.8083 10.8833 16.7667 11.5667 16.6583C12.3333 17.2583 13.4167 17.6417 14.6667 17.6417H14.875L13.4667 16.2167C13.7583 16.125 14.0417 16.0167 14.325 15.9L15.9167 17.4917C16.2417 17.425 16.5417 17.3333 16.8167 17.225L15.125 15.5167C15.375 15.375 15.6167 15.2333 15.8583 15.0667L17.5833 16.8083C17.8333 16.6333 18.0333 16.4417 18.2083 16.2417L16.5167 14.55C16.7167 14.3667 16.9167 14.1667 17.1 13.9583L18.6583 15.5167C18.7583 15.2583 18.8333 15 18.8333 14.725C18.8333 14.0167 18.4583 13.3833 17.8667 12.875C17.9083 12.8 17.9583 12.725 18 12.6417L19.275 12C19.9833 12.7833 21.45 13.3417 23.2083 13.45L23.25 13.475H23.8333C23.8333 13.475 24.6667 14.3083 24.6667 17.225C24.6667 17.7 24.6667 18.1167 24.6333 18.475H22.1667C21.25 18.475 20.15 18.6917 19.0833 18.8917C18.1 19.1083 17.0833 19.3083 16.3333 19.3083H8ZM23.8333 20.975C23.8333 20.975 24.3167 20.975 24.55 19.3083H22.1667C20.5 19.3083 18 20.1417 16.3333 20.1417H8.23333C8.51667 20.6417 9.05 20.975 9.66667 20.975H23.8333Z" fill="white"/>
</svg>
