<svg width="32" height="32" viewBox="0 0 32 32" fill="none" xmlns="http://www.w3.org/2000/svg">
<rect width="32" height="32" rx="16" fill="#EF466F"/>
<path d="M10.666 8.66667C10.666 8.29848 10.9645 8 11.3327 8C11.7009 8 11.9993 8.29848 11.9993 8.66667V23.3333C11.9993 23.7015 11.7009 24 11.3327 24C10.9645 24 10.666 23.7015 10.666 23.3333V8.66667Z" fill="#FCFCFD"/>
<path fill-rule="evenodd" clip-rule="evenodd" d="M15.4465 17.332H10.666V9.33203H14.666C15.5368 9.33203 16.2777 9.88857 16.5522 10.6654H19.842C20.8331 10.6654 21.4778 11.7084 21.0345 12.595L19.9993 14.6654L21.0345 16.7357C21.4778 17.6223 20.8331 18.6654 19.842 18.6654H17.3327C16.4619 18.6654 15.721 18.1088 15.4465 17.332ZM11.9993 10.6654H14.666C15.0342 10.6654 15.3327 10.9638 15.3327 11.332V15.9987H11.9993V10.6654ZM16.666 16.6654C16.666 17.0336 16.9645 17.332 17.3327 17.332H19.842L18.5086 14.6654L19.842 11.9987H16.666V16.6654Z" fill="#FCFCFD"/>
</svg>
