<svg  viewBox="0 0 364 77" fill="none" xmlns="http://www.w3.org/2000/svg">
<path d="M30 38.5V77H31.8667H33.7333V38.5V1.52588e-05H31.8667H30V38.5Z" fill="black"/>
<path d="M36.3994 38.5V77H37.1994H37.9994V38.5V1.52588e-05H37.1994H36.3994V38.5Z" fill="black"/>
<path d="M42.5342 38.5V77H43.3342H44.1342V38.5V1.52588e-05H43.3342H42.5342V38.5Z" fill="black"/>
<path d="M53.1992 38.5V77H57.0659H60.9325V38.5V1.52588e-05H57.0659H53.1992V38.5Z" fill="black"/>
<path d="M63.6006 38.5V77H64.4006H65.2006V38.5V1.52588e-05H64.4006H63.6006V38.5Z" fill="black"/>
<path d="M67.8672 38.5V77H70.8005H73.7338V38.5V1.52588e-05H70.8005H67.8672V38.5Z" fill="black"/>
<path d="M76.4014 38.5V77H79.2014H82.0014V38.5V1.52588e-05H79.2014H76.4014V38.5Z" fill="black"/>
<path d="M84.667 38.5V77H85.467H86.267V38.5V1.52588e-05H85.467H84.667V38.5Z" fill="black"/>
<path d="M92.9336 38.5V77H94.8003H96.6669V38.5V1.52588e-05H94.8003H92.9336V38.5Z" fill="black"/>
<path d="M99.332 38.5V77H100.132H100.932V38.5V1.52588e-05H100.132H99.332V38.5Z" fill="black"/>
<path d="M109.734 38.5V77H111.601H113.468V38.5V1.52588e-05H111.601H109.734V38.5Z" fill="black"/>
<path d="M116.134 38.5V77H116.934H117.734V38.5V1.52588e-05H116.934H116.134V38.5Z" fill="black"/>
<path d="M122.533 38.5V77H124.267H126V38.5V1.52588e-05H124.267H122.533V38.5Z" fill="black"/>
<path d="M135.067 38.5V77H135.867H136.667V38.5V1.52588e-05H135.867H135.067V38.5Z" fill="black"/>
<path d="M141.466 38.5V77H142.266H143.066V38.5V1.52588e-05H142.266H141.466V38.5Z" fill="black"/>
<path d="M145.733 38.5V77H146.4H147.067V38.5V1.52588e-05H146.4H145.733V38.5Z" fill="black"/>
<path d="M156.134 38.5V77H158H159.867V38.5V1.52588e-05H158H156.134V38.5Z" fill="black"/>
<path d="M162.266 38.5V77H163.066H163.866V38.5V1.52588e-05H163.066H162.266V38.5Z" fill="black"/>
<path d="M168.667 38.5V77H169.467H170.267V38.5V1.52588e-05H169.467H168.667V38.5Z" fill="black"/>
<path d="M172.933 38.5V77H173.733H174.533V38.5V1.52588e-05H173.733H172.933V38.5Z" fill="black"/>
<path d="M179.065 38.5V77H183.065H187.065V38.5V1.52588e-05H183.065H179.065V38.5Z" fill="black"/>
<path d="M191.866 38.5V77H192.666H193.466V38.5V1.52588e-05H192.666H191.866V38.5Z" fill="black"/>
<path d="M196.133 38.5V77H197.866H199.599V38.5V1.52588e-05H197.866H196.133V38.5Z" fill="black"/>
<path d="M204.399 38.5V77H205.199H205.999V38.5V1.52588e-05H205.199H204.399V38.5Z" fill="black"/>
<path d="M214.799 38.5V77H215.599H216.399V38.5V1.52588e-05H215.599H214.799V38.5Z" fill="black"/>
<path d="M225.199 38.5V77H225.999H226.799V38.5V1.52588e-05H225.999H225.199V38.5Z" fill="black"/>
<path d="M231.601 38.5V77H233.467H235.334V38.5V1.52588e-05H233.467H231.601V38.5Z" fill="black"/>
<path d="M237.998 38.5V77H238.798H239.598V38.5V1.52588e-05H238.798H237.998V38.5Z" fill="black"/>
<path d="M248.399 38.5V77H250.266H252.133V38.5V1.52588e-05H250.266H248.399V38.5Z" fill="black"/>
<path d="M254.801 38.5V77H255.601H256.401V38.5V1.52588e-05H255.601H254.801V38.5Z" fill="black"/>
<path d="M261.067 38.5V77H261.814H262.534V38.5V1.52588e-05H261.814H261.067V38.5Z" fill="black"/>
<path d="M267.333 38.5V77H268.133H268.933V38.5V1.52588e-05H268.133H267.333V38.5Z" fill="black"/>
<path d="M271.599 38.5V77H273.465H275.332V38.5V1.52588e-05H273.465H271.599V38.5Z" fill="black"/>
<path d="M284.133 38.5V77H284.933H285.733V38.5V1.52588e-05H284.933H284.133V38.5Z" fill="black"/>
<path d="M288.399 38.5V77H292.266H296.133V38.5V1.52588e-05H292.266H288.399V38.5Z" fill="black"/>
<path d="M298.8 38.5V77H301.733H304.666V38.5V1.52588e-05H301.733H298.8V38.5Z" fill="black"/>
<path d="M307.332 38.5V77H309.199H311.065V38.5V1.52588e-05H309.199H307.332V38.5Z" fill="black"/>
<path d="M317.731 38.5V77H320.665H323.598V38.5V1.52588e-05H320.665H317.731V38.5Z" fill="black"/>
<path d="M326 38.5V77H326.8H327.6V38.5V1.52588e-05H326.8H326V38.5Z" fill="black"/>
<path d="M330.267 38.5V77H332.133H334V38.5V1.52588e-05H332.133H330.267V38.5Z" fill="black"/>
</svg>
