<svg width="20" height="21" viewBox="0 0 20 21" fill="none" xmlns="http://www.w3.org/2000/svg">
<g clip-path="url(#clip0_1_3124)">
<path fill-rule="evenodd" clip-rule="evenodd" d="M20 10.5C20 16.0228 15.5228 20.5 10 20.5C4.47715 20.5 0 16.0228 0 10.5C0 4.97715 4.47715 0.5 10 0.5C15.5228 0.5 20 4.97715 20 10.5ZM15.8333 10.5C15.8333 13.7217 13.2217 16.3333 10 16.3333C6.77834 16.3333 4.16667 13.7217 4.16667 10.5C4.16667 7.27834 6.77834 4.66667 10 4.66667C13.2217 4.66667 15.8333 7.27834 15.8333 10.5ZM8.95833 8.625C8.49808 8.625 8.125 8.99808 8.125 9.45833V11.5417C8.125 12.0019 8.49808 12.375 8.95833 12.375H11.0417C11.5019 12.375 11.875 12.0019 11.875 11.5417V9.45833C11.875 8.99808 11.5019 8.625 11.0417 8.625H8.95833Z" fill="#2D65F8"/>
</g>
<defs>
<clipPath id="clip0_1_3124">
<rect width="20" height="20" fill="white" transform="translate(0 0.5)"/>
</clipPath>
</defs>
</svg>
