<svg  viewBox="0 0 17 16"  xmlns="http://www.w3.org/2000/svg">
<path d="M9.83301 5.33203H3.16634C2.43101 5.33203 1.83301 5.93003 1.83301 6.66536V13.332C1.83301 14.0674 2.43101 14.6654 3.16634 14.6654H9.83301C10.5683 14.6654 11.1663 14.0674 11.1663 13.332V6.66536C11.1663 5.93003 10.5683 5.33203 9.83301 5.33203Z" />
<path d="M13.833 1.33203H7.16634C6.81272 1.33203 6.47358 1.47251 6.22353 1.72256C5.97348 1.9726 5.83301 2.31174 5.83301 2.66536V3.9987H11.1663C11.52 3.9987 11.8591 4.13917 12.1091 4.38922C12.3592 4.63927 12.4997 4.97841 12.4997 5.33203V10.6654H13.833C14.1866 10.6654 14.5258 10.5249 14.7758 10.2748C15.0259 10.0248 15.1663 9.68565 15.1663 9.33203V2.66536C15.1663 2.31174 15.0259 1.9726 14.7758 1.72256C14.5258 1.47251 14.1866 1.33203 13.833 1.33203Z" />
</svg>
