<svg width="42" height="42" viewBox="0 0 42 42" fill="none" xmlns="http://www.w3.org/2000/svg">
<rect width="42" height="42" rx="21" fill="#E6E8EC"/>
<path fill-rule="evenodd" clip-rule="evenodd" d="M25.7847 17.6667H16.2143C15.253 17.6667 14.4909 18.4778 14.5509 19.4373L14.9676 26.104C15.0225 26.9824 15.7509 27.6667 16.631 27.6667H25.368C26.2481 27.6667 26.9765 26.9824 27.0314 26.104L27.4481 19.4373C27.508 18.4778 26.746 17.6667 25.7847 17.6667ZM16.2143 16C14.2916 16 12.7675 17.6223 12.8875 19.5413L13.3042 26.2079C13.4139 27.9647 14.8708 29.3333 16.631 29.3333H25.368C27.1282 29.3333 28.585 27.9647 28.6948 26.2079L29.1115 19.5413C29.2314 17.6223 27.7074 16 25.7847 16H16.2143Z" fill="#777E91"/>
<path fill-rule="evenodd" clip-rule="evenodd" d="M16.834 16.8332C16.834 14.532 18.6995 12.6665 21.0007 12.6665C23.3018 12.6665 25.1673 14.532 25.1673 16.8332V18.4998C25.1673 18.9601 24.7942 19.3332 24.334 19.3332C23.8737 19.3332 23.5007 18.9601 23.5007 18.4998V16.8332C23.5007 15.4525 22.3814 14.3332 21.0007 14.3332C19.6199 14.3332 18.5007 15.4525 18.5007 16.8332V18.4998C18.5007 18.9601 18.1276 19.3332 17.6673 19.3332C17.2071 19.3332 16.834 18.9601 16.834 18.4998V16.8332Z" fill="#777E91"/>
</svg>
