<svg width="16" height="17" viewBox="0 0 16 17" fill="none" xmlns="http://www.w3.org/2000/svg">
<path d="M3.99961 14.1008H14.3996V15.7008H3.99961C2.67161 15.7008 1.59961 14.6288 1.59961 13.3008V3.70078C1.59961 2.37278 2.67161 1.30078 3.99961 1.30078H14.3996V12.5008H3.99961C3.55961 12.5008 3.19961 12.8608 3.19961 13.3008C3.19961 13.7408 3.55961 14.1008 3.99961 14.1008ZM5.59961 11.3008V2.50078C5.59961 2.27678 5.42361 2.10078 5.19961 2.10078C4.97561 2.10078 4.79961 2.27678 4.79961 2.50078V11.3008C4.79961 11.5248 4.97561 11.7008 5.19961 11.7008C5.42361 11.7008 5.59961 11.5248 5.59961 11.3008Z" fill="#777E90"/>
</svg>
