<svg width="17" height="17" viewBox="0 0 17 17" fill="none" xmlns="http://www.w3.org/2000/svg">
<g clip-path="url(#clip0_40_6501)">
<path fill-rule="evenodd" clip-rule="evenodd" d="M9.00558 12.597C7.56358 12.597 6.09858 11.741 5.24358 10.608C1.14158 10.608 1.01758 16.468 1.01758 16.468H16.9926C16.9926 16.468 17.3146 10.582 12.7016 10.582C11.8476 11.729 10.4476 12.597 9.00558 12.597Z" fill="#777E90"/>
<path fill-rule="evenodd" clip-rule="evenodd" d="M12.4424 5.56862C12.4424 7.25462 10.9034 10.4786 9.00341 10.4786C7.10641 10.4786 5.56641 7.25362 5.56641 5.56862C5.56641 3.88362 7.10541 2.51562 9.00341 2.51562C10.9034 2.51663 12.4424 3.88462 12.4424 5.56862Z" fill="#777E90"/>
<path fill-rule="evenodd" clip-rule="evenodd" d="M13.9762 4.11544C13.9762 3.79944 13.5362 3.54444 12.9902 3.54244V2.89144C12.9902 2.79444 13.0272 0.523438 9.01516 0.523438C5.00516 0.523438 5.04216 2.79444 5.04216 2.89144V3.56544C5.03216 3.56544 5.02416 3.56244 5.01516 3.56244C4.47216 3.56244 4.03516 3.81344 4.03516 4.12444V6.87844C4.03516 7.18744 4.47316 7.43944 5.01516 7.43944C5.55716 7.43944 5.99716 7.18744 5.99716 6.87844V4.12444C5.99716 4.08144 5.97016 4.04244 5.95416 4.00244V3.25144C5.95416 3.18244 5.66616 1.46844 9.01516 1.46844C12.3652 1.46844 12.0172 3.18244 12.0172 3.25144V4.04244C12.0112 4.06744 11.9922 4.08944 11.9922 4.11544V6.93244C11.9922 7.24944 12.4352 7.50644 12.9842 7.50644C12.9962 7.50644 13.0052 7.50244 13.0172 7.50244V8.53144H12.0332V9.50144H13.9862L13.9762 4.11544Z" fill="#777E90"/>
</g>
<defs>
<clipPath id="clip0_40_6501">
<rect width="17" height="16" fill="white" transform="translate(0 0.5)"/>
</clipPath>
</defs>
</svg>
