<svg  viewBox="0 0 16 16"  xmlns="http://www.w3.org/2000/svg">
<path fill-rule="evenodd" clip-rule="evenodd" d="M7.99967 2.66536C6.69819 2.66536 5.49845 2.7727 4.53548 2.89988C3.66882 3.01434 3.01532 3.66785 2.90086 4.5345C2.77368 5.49747 2.66634 6.69721 2.66634 7.9987C2.66634 9.30019 2.77368 10.4999 2.90086 11.4629C3.01532 12.3295 3.66882 12.9831 4.53548 13.0975C5.49845 13.2247 6.69819 13.332 7.99967 13.332C9.30116 13.332 10.5009 13.2247 11.4639 13.0975C12.3305 12.9831 12.984 12.3295 13.0985 11.4629C13.2257 10.4999 13.333 9.30019 13.333 7.9987C13.333 6.69721 13.2257 5.49747 13.0985 4.5345C12.984 3.66785 12.3305 3.01434 11.4639 2.89988C10.5009 2.7727 9.30116 2.66536 7.99967 2.66536ZM4.3609 1.57803C2.89637 1.77145 1.77242 2.89539 1.579 4.35992C1.44603 5.36675 1.33301 6.62621 1.33301 7.9987C1.33301 9.37118 1.44603 10.6306 1.579 11.6375C1.77242 13.102 2.89637 14.2259 4.3609 14.4194C5.36773 14.5523 6.62719 14.6654 7.99967 14.6654C9.37216 14.6654 10.6316 14.5523 11.6384 14.4194C13.103 14.2259 14.2269 13.102 14.4203 11.6375C14.5533 10.6306 14.6663 9.37118 14.6663 7.9987C14.6663 6.62621 14.5533 5.36675 14.4203 4.35992C14.2269 2.89539 13.103 1.77145 11.6384 1.57803C10.6316 1.44505 9.37216 1.33203 7.99967 1.33203C6.62719 1.33203 5.36773 1.44505 4.3609 1.57803Z" />
<path d="M6.00041 7.33464C6.73679 7.33464 7.33374 6.73768 7.33374 6.0013C7.33374 5.26492 6.73679 4.66797 6.00041 4.66797C5.26403 4.66797 4.66707 5.26492 4.66707 6.0013C4.66707 6.73768 5.26403 7.33464 6.00041 7.33464Z" />
<path d="M12.0813 8.47283L13.2775 9.66905C13.2362 10.2932 13.176 10.8723 13.1095 11.3867L11.1385 9.41564C10.8781 9.15529 10.456 9.15529 10.1957 9.41564L8.74795 10.8634C7.9669 11.6444 6.70057 11.6444 5.91952 10.8634L5.80514 10.749C5.54479 10.4886 5.12268 10.4886 4.86233 10.749L3.25629 12.355C3.07024 12.1028 2.94576 11.8 2.90158 11.4655C2.87749 11.2831 2.8541 11.0922 2.83203 10.8937L3.91953 9.80616C4.70057 9.02511 5.9669 9.02512 6.74795 9.80616L6.86233 9.92055C7.12268 10.1809 7.54479 10.1809 7.80514 9.92055L9.25286 8.47283C10.0339 7.69178 11.3002 7.69178 12.0813 8.47283Z" />
</svg>
