<svg width="14" height="14" viewBox="0 0 14 14" fill="none" xmlns="http://www.w3.org/2000/svg">
<path fill-rule="evenodd" clip-rule="evenodd" d="M4.50065 8.83333H12.834C13.055 8.83333 13.267 8.92113 13.4232 9.07741C13.5795 9.23369 13.6673 9.44565 13.6673 9.66667C13.6673 9.88768 13.5795 10.0996 13.4232 10.2559C13.267 10.4122 13.055 10.5 12.834 10.5H4.50065C4.27964 10.5 4.06768 10.4122 3.9114 10.2559C3.75512 10.0996 3.66732 9.88768 3.66732 9.66667C3.66732 9.44565 3.75512 9.23369 3.9114 9.07741C4.06768 8.92113 4.27964 8.83333 4.50065 8.83333ZM4.50065 12.1667H12.834C13.055 12.1667 13.267 12.2545 13.4232 12.4107C13.5795 12.567 13.6673 12.779 13.6673 13C13.6673 13.221 13.5795 13.433 13.4232 13.5893C13.267 13.7455 13.055 13.8333 12.834 13.8333H4.50065C4.27964 13.8333 4.06768 13.7455 3.9114 13.5893C3.75512 13.433 3.66732 13.221 3.66732 13C3.66732 12.779 3.75512 12.567 3.9114 12.4107C4.06768 12.2545 4.27964 12.1667 4.50065 12.1667ZM9.50065 5.5H12.834C13.055 5.5 13.267 5.5878 13.4232 5.74408C13.5795 5.90036 13.6673 6.11232 13.6673 6.33333C13.6673 6.55435 13.5795 6.76631 13.4232 6.92259C13.267 7.07887 13.055 7.16667 12.834 7.16667H9.50065C9.27964 7.16667 9.06768 7.07887 8.9114 6.92259C8.75512 6.76631 8.66732 6.55435 8.66732 6.33333C8.66732 6.11232 8.75512 5.90036 8.9114 5.74408C9.06768 5.5878 9.27964 5.5 9.50065 5.5ZM3.45315 7.095L0.333984 3.97667L1.51232 2.7975L3.45315 4.73833L7.69065 0.5L8.86982 1.67833L3.45315 7.095Z" fill="black"/>
</svg>
