<svg  viewBox="0 0 50 49"  xmlns="http://www.w3.org/2000/svg">
<path d="M0.833008 21.75H12.9163V26.5833H0.833008V21.75ZM37.083 21.75H49.1663V26.5833H37.083V21.75ZM22.583 36.25H27.4163V48.3333H22.583V36.25ZM22.583 0H27.4163V12.0833H22.583V0ZM6.20284 8.787L9.62001 5.36983L18.1653 13.9152L14.7482 17.3323L6.20284 8.787ZM43.7965 39.5463L40.3793 42.9635L31.834 34.4182L35.2512 31.001L43.7965 39.5463ZM14.7482 31.001L18.1653 34.4182L9.62001 42.9635L6.20284 39.5463L14.7482 31.001ZM31.834 13.9127L40.3793 5.36983L43.7965 8.78942L35.2512 17.3323L31.834 13.9127Z" />
</svg>
