<svg width="77" height="52" viewBox="0 0 77 52" fill="none" xmlns="http://www.w3.org/2000/svg">
<path d="M76.5963 8.29317V12.6011H46.7013C44.6602 12.6011 42.7027 11.7903 41.2595 10.347C39.8162 8.90376 39.0054 6.94627 39.0054 4.90518V0.601685H69.0073C71.0304 0.626887 72.962 1.44842 74.3834 2.8882C75.8048 4.32797 76.6015 6.26996 76.6008 8.29317H76.5963Z" fill="#1C1C1C"/>
<path d="M76.5963 13.5997V17.9099C76.5976 19.9142 75.8163 21.8398 74.4187 23.2765C73.0211 24.7132 71.1178 25.5474 69.1142 25.6014H39.0054V21.2957C39.0054 19.2546 39.8162 17.2971 41.2595 15.8538C42.7027 14.4106 44.6602 13.5997 46.7013 13.5997H76.5963Z" fill="#1C1C1C"/>
<path d="M38.007 0.603638V4.90713C38.007 6.94822 37.1961 8.90571 35.7529 10.349C34.3096 11.7923 32.3521 12.6031 30.311 12.6031H0.400391V0.603638H38.007Z" fill="#1C1C1C"/>
<path d="M35.7527 15.8539C37.196 17.2972 38.0069 19.2546 38.007 21.2957V25.6014H0.400391V13.5997H30.311C32.3521 13.5998 34.3095 14.4107 35.7527 15.8539Z" fill="#1C1C1C"/>
<path d="M76.5958 43.9585C76.5977 41.9192 75.7911 39.9623 74.3527 38.5168C72.9095 37.0735 70.9521 36.2626 68.911 36.2625H39.5506C39.4851 36.2625 39.4202 36.2496 39.3596 36.2246C39.2991 36.1995 39.2441 36.1627 39.1978 36.1164C39.1514 36.0701 39.1147 36.0151 39.0896 35.9545C39.0645 35.894 39.0516 35.8291 39.0516 35.7636C39.0516 35.6981 39.0645 35.6332 39.0896 35.5726C39.1147 35.5121 39.1514 35.4571 39.1978 35.4108C39.2441 35.3644 39.2991 35.3277 39.3596 35.3026C39.4202 35.2775 39.4851 35.2646 39.5506 35.2646H68.9021C70.9424 35.264 72.899 34.4533 74.3417 33.0105C75.7844 31.5678 76.5952 29.6112 76.5958 27.5709V26.5997H0.400391V33.3913C0.431253 35.391 1.23888 37.3002 2.65237 38.715C4.09559 40.1583 6.05304 40.9691 8.09411 40.9692H37.4456C37.5779 40.9692 37.7049 41.0218 37.7984 41.1153C37.892 41.2089 37.9446 41.3358 37.9446 41.4682C37.9446 41.5337 37.9317 41.5986 37.9066 41.6591C37.8815 41.7196 37.8448 41.7746 37.7984 41.821C37.7521 41.8673 37.6971 41.9041 37.6366 41.9291C37.576 41.9542 37.5111 41.9671 37.4456 41.9671H8.09411C6.05304 41.9672 4.09559 42.778 2.65237 44.2213C1.23881 45.6352 0.431128 47.5437 0.400391 49.5428L0.400391 51.5965H76.5958V43.9585Z" fill="#1C1C1C"/>
</svg>
