<svg width="20" height="21" viewBox="0 0 20 21" fill="none" xmlns="http://www.w3.org/2000/svg">
<path fill-rule="evenodd" clip-rule="evenodd" d="M2.75419 7.29374C6.14606 1.56843 14.4786 1.56843 17.8704 7.29374C19.0427 9.27052 19.0427 11.7295 17.8704 13.7062C14.4786 19.4316 6.14606 19.4316 2.75419 13.7062C1.58194 11.7295 1.58194 9.27052 2.75419 7.29374ZM7.842 10.5516C7.8405 9.89507 8.09999 9.2649 8.56332 8.79981C9.02665 8.33473 9.65582 8.07286 10.3123 8.07186C10.9689 8.07286 11.5982 8.3347 12.0616 8.79976C12.5251 9.26482 12.7848 9.89498 12.7836 10.5516C12.7851 11.9181 11.6788 13.0273 10.3123 13.0294C8.94629 13.0268 7.84086 11.9176 7.84294 10.5516H7.842ZM10.3123 6.90937C9.3485 6.9111 8.42489 7.29577 7.74478 7.97869C7.06467 8.66161 6.68382 9.58681 6.68606 10.5506C6.68432 11.5141 7.06539 12.4388 7.74544 13.1213C8.4255 13.8038 9.34883 14.1883 10.3123 14.19C11.276 14.1885 12.1997 13.8042 12.8801 13.1217C13.5605 12.4392 13.9419 11.5143 13.9404 10.5506C13.9424 9.58656 13.5612 8.66123 12.8808 7.9783C12.2003 7.29538 11.2764 6.91086 10.3123 6.90937Z" fill="url(#paint0_linear_1_3099)"/>
<defs>
<linearGradient id="paint0_linear_1_3099" x1="10.3123" y1="2.99976" x2="10.3123" y2="18.0002" gradientUnits="userSpaceOnUse">
<stop stop-color="white"/>
<stop offset="1" stop-color="white" stop-opacity="0.28"/>
</linearGradient>
</defs>
</svg>
