<svg width="18" height="10" viewBox="0 0 18 10" fill="none" xmlns="http://www.w3.org/2000/svg">
<path d="M0.666016 7.49974C0.666016 7.49974 0.666016 4.99974 2.33268 4.99974C2.89935 4.99974 3.54935 4.95807 4.23268 4.84974C4.99935 5.44974 6.08268 5.83307 7.33268 5.83307H7.54102L6.13268 4.40807C6.42435 4.31641 6.70768 4.20807 6.99102 4.09141L8.58268 5.68307C8.90768 5.61641 9.20768 5.52474 9.48268 5.41641L7.79102 3.70807C8.04102 3.56641 8.28268 3.42474 8.52435 3.25807L10.2493 4.99974C10.4993 4.82474 10.6993 4.63307 10.8743 4.43307L9.18268 2.74141C9.38268 2.55807 9.58268 2.35807 9.76602 2.14974L11.3243 3.70807C11.4243 3.44974 11.4993 3.19141 11.4993 2.91641C11.4993 2.20807 11.1243 1.57474 10.5327 1.06641C10.5743 0.991406 10.6243 0.916406 10.666 0.833073L11.941 0.191406C12.6493 0.97474 14.116 1.53307 15.8743 1.64141L15.916 1.66641H16.4993C16.4993 1.66641 17.3327 2.49974 17.3327 5.41641C17.3327 5.89141 17.3327 6.30807 17.2993 6.66641H14.8327C13.916 6.66641 12.816 6.88307 11.7493 7.08307C10.766 7.29974 9.74935 7.49974 8.99935 7.49974H0.666016ZM16.4993 9.16641C16.4993 9.16641 16.9827 9.16641 17.216 7.49974H14.8327C13.166 7.49974 10.666 8.33307 8.99935 8.33307H0.899349C1.18268 8.83307 1.71602 9.16641 2.33268 9.16641H16.4993Z" fill="black"/>
</svg>
