<svg width="36" height="36" viewBox="0 0 36 36" fill="none" xmlns="http://www.w3.org/2000/svg">
<path d="M18 0.5C8.34 0.5 0.5 8.34 0.5 18C0.5 27.66 8.34 35.5 18 35.5C27.66 35.5 35.5 27.66 35.5 18C35.5 8.34 27.66 0.5 18 0.5ZM18 29.375C16.5475 29.375 15.375 28.2025 15.375 26.75H20.625C20.625 28.2025 19.4525 29.375 18 29.375ZM25 25H11C10.0375 25 9.25 24.2125 9.25 23.25C9.25 22.2875 10.0375 21.5 11 21.5V16.25C11 12.995 13.24 10.2825 16.25 9.495V8.375C16.25 7.4125 17.0375 6.625 18 6.625C18.9625 6.625 19.75 7.4125 19.75 8.375V9.495C22.76 10.2825 25 12.995 25 16.25V21.5C25.9625 21.5 26.75 22.2875 26.75 23.25C26.75 24.2125 25.9625 25 25 25Z" fill="url(#paint0_linear_14_1102)"/>
<defs>
<linearGradient id="paint0_linear_14_1102" x1="18" y1="0.5" x2="18" y2="35.5" gradientUnits="userSpaceOnUse">
<stop stop-color="#1D1D3C"/>
<stop offset="1" stop-color="#1D1D3C" stop-opacity="0.62"/>
</linearGradient>
</defs>
</svg>
