<svg width="223" height="228" viewBox="0 0 223 228" fill="none" xmlns="http://www.w3.org/2000/svg">
<path d="M59.32 11.6283C59.32 11.1141 59.32 10.6467 59.32 10.1325C59.32 10.1792 59.32 9.52477 59.32 9.52477C58.0817 9.10406 57.1406 8.26264 56.5957 7.14075C56.6453 7.23424 56.5957 7.70169 56.5957 7.74844C56.5957 8.26264 56.5957 8.7301 56.5957 9.2443C56.5957 9.7585 56.5957 10.226 56.5957 10.7402C56.5957 10.8337 56.5462 11.2544 56.5957 11.3479C57.1406 12.4697 58.0817 13.3112 59.32 13.7319C59.1714 13.7319 59.32 11.7686 59.32 11.6283Z" fill="#FFCA0E"/>
<path d="M12.6081 69.4607C12.6081 68.9537 12.6081 68.4928 12.6081 67.9858C12.6081 67.4787 12.6081 67.0178 12.6081 66.5108C12.6081 66.5108 12.5523 65.9116 12.6081 65.9116C11.3252 66.9256 9.93071 67.7553 8.31314 68.3545C8.14581 68.4467 8.31314 70.2443 8.31314 70.4286C8.31314 70.5669 8.48048 72.4567 8.31314 72.5028C9.93071 71.9036 11.3252 71.0739 12.6081 70.0599C12.6638 70.0138 12.6081 69.4607 12.6081 69.4607Z" fill="#FFCA0E"/>
<path d="M40.6028 133C39.2347 132.328 37.8096 131.753 36.3275 131.274C36.4415 131.322 36.3275 133.288 36.3275 133.431C36.3275 133.575 36.1565 135.541 36.3275 135.589C37.8096 136.069 39.2347 136.644 40.6028 137.315C40.6028 137.315 40.6028 136.644 40.6028 136.692C40.6028 136.165 40.6028 135.685 40.6028 135.158C40.6028 134.63 40.6028 134.151 40.6028 133.623C40.6598 133.671 40.6598 133.048 40.6028 133Z" fill="#FFCA0E"/>
<path d="M75.2248 206.778C75.2248 206.271 75.2248 205.81 75.2248 205.302C75.2248 204.795 75.2248 204.334 75.2248 203.826C75.2248 203.826 75.1708 203.227 75.2248 203.227C74.3073 203.872 73.4439 204.472 72.5264 205.118C72.4725 205.164 72.5264 205.717 72.5264 205.717C72.5264 206.225 72.5264 206.686 72.5264 207.193C72.5264 207.7 72.5264 208.162 72.5264 208.669C72.5264 208.669 72.5804 209.269 72.5264 209.269C73.4439 208.623 74.3073 208.023 75.2248 207.378C75.2787 207.332 75.2248 206.778 75.2248 206.778Z" fill="#FFCA0E"/>
<path d="M20.8288 182.549C18.7893 181.989 16.9926 181.008 15.4873 179.608C15.6815 179.795 15.4873 181.428 15.4873 181.709C15.4873 181.989 15.2445 183.575 15.4873 183.809C16.9926 185.209 18.7893 186.189 20.8288 186.749C20.7803 186.749 20.8288 184.789 20.8288 184.649C20.8288 184.509 20.926 182.549 20.8288 182.549Z" fill="#FFCA0E"/>
<path d="M4.86656 1.44068C3.27065 0.990471 1.67473 0.495235 0.0788108 0C0.197027 0.0450214 0.0788108 1.8909 0.0788108 2.02596C0.0788108 2.16103 -0.0985135 4.0069 0.0788108 4.05193C1.67473 4.54716 3.27065 5.0424 4.80746 5.49261C4.68924 5.44759 4.80746 3.60171 4.80746 3.46665C4.86656 3.33158 5.04389 1.48571 4.86656 1.44068Z" fill="#FFCA0E"/>
<path d="M120.288 34.283C120.288 33.7795 120.288 33.3218 120.288 32.8183C120.288 32.3148 120.288 31.8571 120.288 31.3536C120.288 31.3536 120.229 30.7586 120.288 30.7586C119.112 31.674 117.584 32.1317 115.938 32.1317C115.879 32.1317 115.879 36.2512 115.938 36.2512C117.584 36.2512 119.112 35.7477 120.288 34.878C120.288 34.8323 120.288 34.283 120.288 34.283Z" fill="#FFCA0E"/>
<path d="M170.152 4.09079C168.232 3.62987 166.453 2.80021 164.862 1.64792C165.049 1.78619 164.862 3.49159 164.862 3.72205C164.862 3.95251 164.674 5.65791 164.862 5.79618C166.453 6.94848 168.232 7.73204 170.152 8.23905C169.871 8.14687 170.527 4.18297 170.152 4.09079Z" fill="#FFCA0E"/>
<path d="M218.033 26.8209C218.033 26.2849 218.033 25.7977 218.033 25.2617C218.033 24.7257 218.033 24.2385 218.033 23.7025C218.033 23.7512 217.979 23.0691 218.033 23.0691L214.785 24.7257C214.731 24.7257 214.785 25.4079 214.785 25.3592C214.785 25.8951 214.785 26.3824 214.785 26.9183C214.785 27.4543 214.785 27.9416 214.785 28.4775C214.785 28.4288 214.839 29.111 214.785 29.111L218.033 27.4543C218.087 27.4543 218.033 26.7722 218.033 26.8209Z" fill="#FFCA0E"/>
<path d="M199.837 71.9458C198.116 71.4079 196.632 70.4786 195.563 69.2071C195.623 69.256 195.563 69.8429 195.563 69.8429C195.563 70.3808 195.563 70.8699 195.563 71.4079C195.563 71.9458 195.563 72.4349 195.563 72.9729C195.563 73.0218 195.504 73.5598 195.563 73.6087C196.632 74.8313 198.116 75.7606 199.837 76.3475C199.718 76.2985 199.837 74.2934 199.837 74.1466C199.897 73.9999 200.015 72.0437 199.837 71.9458Z" fill="#FFCA0E"/>
<path d="M126.447 111.124C125.052 111.124 123.701 110.717 122.485 109.852C122.53 109.903 122.665 110.463 122.71 110.463C122.891 110.971 123.071 111.48 123.251 111.988C123.431 112.497 123.611 113.006 123.791 113.463C123.791 113.514 123.971 114.023 124.016 114.074C125.232 114.938 126.537 115.345 127.978 115.345C127.888 115.345 127.303 113.362 127.258 113.209C127.123 113.107 126.582 111.124 126.447 111.124Z" fill="#FFCA0E"/>
<path d="M219.127 124.492C219.127 123.97 219.127 123.495 219.127 122.973C219.127 122.451 219.127 121.976 219.127 121.454C219.127 121.407 219.065 120.885 219.127 120.837C218.059 122.214 216.612 123.4 214.789 124.255C214.726 124.302 214.789 124.872 214.789 124.872C214.789 125.394 214.789 125.869 214.789 126.391C214.789 126.913 214.789 127.388 214.789 127.91C214.789 127.862 214.852 128.527 214.789 128.527C216.612 127.625 218.059 126.486 219.127 125.109C219.19 125.062 219.127 124.587 219.127 124.492Z" fill="#FFCA0E"/>
<path d="M208.125 159.536C205.964 159.075 204.204 157.832 203.249 155.99C203.299 156.082 203.249 156.543 203.249 156.589C203.249 157.095 203.249 157.556 203.249 158.062C203.249 158.569 203.249 159.029 203.249 159.536C203.249 159.628 203.199 160.042 203.249 160.134C204.204 161.93 205.964 163.22 208.125 163.68C208.075 163.68 208.125 161.746 208.125 161.608C208.125 161.516 208.226 159.582 208.125 159.536Z" fill="#FFCA0E"/>
<path d="M208.17 203.679C208.17 203.143 208.17 202.657 208.17 202.121C208.17 201.586 208.17 201.099 208.17 200.564C208.17 200.564 208.114 199.931 208.17 199.931C206.714 201.051 205.257 202.17 203.801 203.241C203.745 203.289 203.801 203.873 203.801 203.873C203.801 204.409 203.801 204.895 203.801 205.431C203.801 205.966 203.801 206.453 203.801 206.988C203.801 206.988 203.857 207.621 203.801 207.621C205.257 206.501 206.714 205.382 208.17 204.311C208.17 204.311 208.17 203.727 208.17 203.679Z" fill="#FFCA0E"/>
<path d="M160.873 189.664C158.997 189.57 157.228 189.148 155.512 188.397C155.673 188.444 155.512 190.368 155.512 190.509C155.512 190.697 155.352 192.528 155.512 192.622C157.228 193.373 158.997 193.795 160.873 193.889C160.819 193.889 161.033 189.711 160.873 189.664Z" fill="#FFCA0E"/>
<path d="M124.089 221.98C122.47 221.404 120.852 220.829 119.233 220.254C119.331 220.301 119.233 222.267 119.233 222.411C119.233 222.555 119.135 224.521 119.233 224.569C120.852 225.145 122.47 225.72 124.089 226.295C123.991 226.247 124.089 224.281 124.089 224.138C124.089 223.994 124.187 222.028 124.089 221.98Z" fill="#FFCA0E"/>
<path d="M41.1707 225.39C41.1707 224.891 41.1707 224.438 41.1707 223.94C41.1707 223.442 41.1707 222.989 41.1707 222.491C41.1707 222.491 41.1165 221.947 41.1707 221.902C39.8156 223.215 37.7017 223.668 35.7503 223.034C35.8587 223.079 35.7503 224.937 35.7503 225.073C35.7503 225.208 35.6419 227.066 35.7503 227.111C37.6474 227.745 39.8156 227.292 41.1707 225.978C41.2249 225.933 41.1707 225.435 41.1707 225.39Z" fill="#FFCA0E"/>
<path d="M23.595 28.7076C21.7195 28.7076 20.0004 28.094 18.698 26.9139C18.7501 26.9611 18.698 27.5275 18.698 27.5275C18.698 28.0468 18.698 28.5188 18.698 29.038C18.698 29.5572 18.698 30.0292 18.698 30.5485C18.698 30.5485 18.6459 31.1149 18.698 31.1621C20.0525 32.3422 21.7195 32.9558 23.595 32.9558C23.6471 32.9558 23.595 28.7076 23.595 28.7076Z" fill="#1989F7"/>
<path d="M192.18 27.9465C190.312 27.8473 188.603 27.104 187.322 25.8155C187.375 25.865 187.322 26.4597 187.322 26.4597C187.322 27.0049 187.322 27.5004 187.322 28.0456C187.322 28.5907 187.322 29.0863 187.322 29.6314C187.322 29.6314 187.268 30.2261 187.322 30.2757C188.603 31.5641 190.312 32.258 192.18 32.4066C192.127 32.4066 192.341 27.9465 192.18 27.9465Z" fill="#1989F7"/>
<path d="M96.6337 11.6445C94.5772 11.5493 92.7777 10.4545 91.7494 8.78836C91.8008 8.88357 91.7494 9.35959 91.7494 9.40719C91.7494 9.93082 91.7494 10.4068 91.7494 10.9305C91.7494 11.4541 91.7494 11.9301 91.7494 12.4538C91.7494 12.549 91.698 12.9774 91.7494 13.0726C92.7777 14.7387 94.5772 15.8335 96.6337 15.9288C96.5823 15.9288 96.7365 11.6445 96.6337 11.6445Z" fill="#1989F7"/>
<path d="M144.983 18.3793C144.983 17.8723 144.983 17.4114 144.983 16.9044C144.983 16.3974 144.983 15.9364 144.983 15.4294C144.983 15.4294 144.933 14.8763 144.983 14.8302C144.232 15.7982 143.332 16.6278 142.281 17.2731C142.231 17.3192 142.281 17.8723 142.281 17.8723C142.281 18.3793 142.281 18.8402 142.281 19.3472C142.281 19.8542 142.281 20.3152 142.281 20.8222C142.281 20.7761 142.331 21.4214 142.281 21.4214C143.332 20.7761 144.232 19.9464 144.983 18.9785C145.033 18.8863 144.983 18.4254 144.983 18.3793Z" fill="#1989F7"/>
<path d="M21.3019 102.244C19.1832 101.812 17.3824 100.854 15.9523 99.4163C16.0052 99.4642 15.9523 100.039 15.9523 100.039C15.9523 100.566 15.9523 101.046 15.9523 101.573C15.9523 102.1 15.9523 102.579 15.9523 103.106C15.9523 103.154 15.8993 103.681 15.9523 103.729C17.3824 105.167 19.1832 106.173 21.3019 106.557C21.0371 106.509 21.6727 102.34 21.3019 102.244Z" fill="#1989F7"/>
<path d="M13.1598 144.406C13.1598 143.864 13.1598 143.371 13.1598 142.829C13.1598 142.287 13.1598 141.794 13.1598 141.252C13.1598 141.202 13.1095 140.66 13.1598 140.611C12.0533 142.336 10.3936 143.47 8.33151 143.864C8.02975 143.913 8.58299 148.251 8.33151 148.3C10.3433 147.906 12.0533 146.772 13.1598 145.047C13.2101 144.949 13.1598 144.505 13.1598 144.406Z" fill="#1989F7"/>
<path d="M26.3376 209.543C24.5042 209.543 22.8541 209.085 21.4485 208.17C21.5097 208.17 21.4485 208.811 21.4485 208.765C21.4485 209.269 21.4485 209.726 21.4485 210.23C21.4485 210.733 21.4485 211.191 21.4485 211.694C21.4485 211.694 21.3874 212.244 21.4485 212.289C22.793 213.205 24.5042 213.663 26.3376 213.663C26.3987 213.663 26.3376 209.543 26.3376 209.543Z" fill="#1989F7"/>
<path d="M179.016 218.568C177.083 217.977 175.295 217.091 173.652 215.86C173.846 216.007 173.652 217.829 173.652 218.076C173.652 218.322 173.459 220.144 173.652 220.292C175.295 221.523 177.083 222.409 179.016 223C178.968 223 179.016 220.932 179.016 220.784C179.016 220.636 179.113 218.568 179.016 218.568Z" fill="#1989F7"/>
<path d="M212.487 101.275C210.871 100.718 209.256 100.067 207.698 99.4163C207.871 99.4628 207.698 101.322 207.698 101.508C207.698 101.694 207.524 103.506 207.698 103.599C209.256 104.296 210.871 104.9 212.487 105.458C212.372 105.412 212.487 103.506 212.487 103.367C212.487 103.181 212.66 101.322 212.487 101.275Z" fill="#1989F7"/>
<path d="M72.9606 114.458C71.3496 113.9 69.7386 113.249 68.1851 112.599C68.3577 112.645 68.1851 114.504 68.1851 114.69C68.1851 114.876 68.0125 116.689 68.1851 116.782C69.7386 117.479 71.3496 118.083 72.9606 118.641C72.8455 118.594 72.9606 116.689 72.9606 116.549C73.0181 116.41 73.1332 114.551 72.9606 114.458Z" fill="#1989F7"/>
<path d="M223 56.4691C223 55.9348 223 55.4491 223 54.9148C223 54.3805 223 53.8947 223 53.3604C223 53.3604 222.937 52.7289 223 52.7289C221.545 53.6519 220.089 54.5748 218.634 55.4977C218.571 55.5462 218.634 56.1291 218.634 56.1291C218.634 56.6634 218.634 57.1492 218.634 57.6835C218.634 58.2178 218.634 58.7036 218.634 59.2379C218.634 59.2379 218.697 59.8693 218.634 59.8693C220.089 58.9464 221.545 58.0235 223 57.1006C223 57.052 223 56.4691 223 56.4691Z" fill="#1989F7"/>
<path d="M221.277 3.92336C219.708 3.25204 218.139 2.67663 216.458 2.19711C216.571 2.24506 216.458 4.21107 216.458 4.35492C216.458 4.49878 216.346 6.46478 216.458 6.51273C218.083 6.99225 219.708 7.56766 221.277 8.23898C221.109 8.19103 221.277 6.22503 221.277 6.08117C221.277 5.93732 221.445 4.01926 221.277 3.92336Z" fill="#1989F7"/>
<path d="M59.2782 59.8035C58.2204 59.1097 57.107 58.4159 56.0492 57.6726C56.0492 57.6726 56.0492 58.3664 56.0492 58.3168C56.0492 58.862 56.0492 59.3575 56.0492 59.9027C56.0492 60.4478 56.0492 60.9434 56.0492 61.4885C56.0492 61.4885 55.9935 62.1327 56.0492 62.1327C57.107 62.8265 58.2204 63.5203 59.2782 64.2637C59.2782 64.2637 59.2782 63.5699 59.2782 63.6195C59.2782 63.0743 59.2782 62.5788 59.2782 62.0336C59.2782 61.4885 59.2782 60.9929 59.2782 60.4478C59.3339 60.4478 59.3339 59.8035 59.2782 59.8035Z" fill="#1989F7"/>
<path d="M165.81 108.236C164.346 108.134 162.941 108.286 161.535 108.59C161.418 108.641 161.535 110.717 161.535 110.869C161.535 111.021 161.652 113.148 161.535 113.148C162.941 112.844 164.346 112.692 165.81 112.793C165.752 112.793 165.986 108.236 165.81 108.236Z" fill="#1989F7"/>
<path d="M106.432 85.5579C104.036 86.1357 101.59 85.3654 100.074 83.4878C100.319 83.7767 100.074 85.3172 100.074 85.6542C100.074 86.0394 99.8295 87.5318 100.074 87.8206C101.639 89.6982 104.085 90.4685 106.432 89.8908C106.823 89.7945 106.139 85.6061 106.432 85.5579Z" fill="#1989F7"/>
<path d="M171.315 58.3565C171.315 58.2011 171.193 56.0766 171.315 56.0247C169.724 56.5429 168.133 56.802 166.481 56.8538C166.358 56.8538 166.481 61.5174 166.481 61.5174C168.133 61.4655 169.785 61.2065 171.315 60.6883C171.438 60.6365 171.315 58.5638 171.315 58.3565Z" fill="#1989F7"/>
<path d="M140.022 148.477C138.082 148.57 136.363 147.916 135.143 146.653C135.198 146.7 135.143 147.261 135.143 147.261C135.143 147.775 135.143 148.243 135.143 148.757C135.143 149.272 135.143 149.74 135.143 150.254C135.143 150.301 135.087 150.815 135.143 150.862C136.363 152.125 138.137 152.779 140.022 152.686C140.133 152.639 139.967 148.477 140.022 148.477Z" fill="#1989F7"/>
<path d="M147.175 80.2093C145.123 79.8346 143.372 78.851 142.286 77.4459C142.346 77.4928 142.286 77.9143 142.286 77.9143C142.286 78.289 142.286 78.6637 142.286 79.0852C142.286 79.4599 142.286 79.8346 142.286 80.2561C142.286 80.3029 142.225 80.6776 142.286 80.7245C143.372 82.1295 145.123 83.1131 147.175 83.4878C147.115 83.4878 147.175 81.9422 147.175 81.8485C147.175 81.7549 147.236 80.2561 147.175 80.2093Z" fill="#FFCA0E"/>
<path d="M87.314 75.529C87.314 75.1255 87.314 74.722 87.314 74.268C87.314 73.8644 87.314 73.4609 87.314 73.0069C87.314 72.9565 87.2727 72.5529 87.314 72.5025C86.9835 73.2591 86.4052 73.7636 85.7029 73.9149C85.6616 73.9149 85.7029 75.5795 85.7029 75.6804C85.7029 75.7813 85.7442 77.4459 85.7029 77.4459C86.4052 77.2945 86.9835 76.7901 87.314 76.0335C87.3553 75.9326 87.314 75.5795 87.314 75.529Z" fill="#FFCA0E"/>
<path d="M95.5175 147.338C95.5175 147.236 95.3966 145.554 95.5175 145.554C93.8854 146.013 92.3138 146.472 90.6817 146.93C90.5608 146.981 90.6817 148.612 90.6817 148.714C90.6817 148.816 90.8026 150.498 90.6817 150.498C92.3138 150.039 93.8854 149.58 95.5175 149.122C95.6384 149.071 95.5175 147.44 95.5175 147.338Z" fill="#FFCA0E"/>
<path d="M177.939 140.206C176.504 139.891 175.356 139.08 174.686 137.865C174.734 137.91 174.686 138.27 174.686 138.315C174.686 138.675 174.686 139.035 174.686 139.44C174.686 139.801 174.686 140.161 174.686 140.566C174.686 140.656 174.638 140.926 174.686 141.016C175.356 142.232 176.504 143.087 177.939 143.357C177.892 143.357 177.939 141.872 177.939 141.781C177.939 141.646 177.987 140.206 177.939 140.206Z" fill="#FFCA0E"/>
</svg>
