<svg width="70" height="71" viewBox="0 0 70 71" fill="none" xmlns="http://www.w3.org/2000/svg">
<path fill-rule="evenodd" clip-rule="evenodd" d="M35 0.499997C15.67 0.499997 -3.12924e-06 16.17 -3.12924e-06 35.5C-3.12924e-06 54.83 15.67 70.5 35 70.5C54.33 70.5 70 54.83 70 35.5C70 16.17 54.33 0.499997 35 0.499997ZM34.5489 53C33.3407 53 32.3614 52.0206 32.3614 50.8125L32.3614 37.6875H19.2364C18.0282 37.6875 17.0488 36.7082 17.0488 35.5C17.0488 34.2918 18.0282 33.3125 19.2364 33.3125H32.3614V20.1875C32.3614 18.9793 33.3407 18 34.5489 18C35.757 18 36.7364 18.9793 36.7364 20.1875V33.3125L49.8614 33.3125C51.0695 33.3125 52.0489 34.2918 52.0489 35.5C52.0489 36.7082 51.0695 37.6875 49.8614 37.6875L36.7364 37.6875L36.7364 50.8125C36.7364 52.0206 35.757 53 34.5489 53Z" fill="#8F59E8"/>
</svg>
