<svg  viewBox="0 0 25 25"  xmlns="http://www.w3.org/2000/svg">
<path d="M24.6286 5.14403C23.7589 5.52945 22.8245 5.78986 21.8422 5.90757C22.8557 5.30111 23.614 4.3466 23.9755 3.22215C23.0233 3.78777 21.9811 4.1859 20.8943 4.39924C20.1634 3.61889 19.1954 3.10166 18.1404 2.92786C17.0855 2.75405 16.0027 2.9334 15.0601 3.43804C14.1176 3.94269 13.368 4.74441 12.9278 5.71872C12.4875 6.69304 12.3813 7.78544 12.6255 8.82632C10.696 8.72944 8.80847 8.22794 7.08534 7.35435C5.36221 6.48076 3.84202 5.25461 2.62344 3.75549C2.20677 4.47424 1.96719 5.30757 1.96719 6.19507C1.96672 6.99403 2.16347 7.78074 2.53998 8.48542C2.91648 9.19009 3.46111 9.79094 4.12552 10.2347C3.35498 10.2101 2.60143 10.0019 1.9276 9.62736V9.68986C1.92753 10.8104 2.31514 11.8965 3.02467 12.7638C3.7342 13.6311 4.72195 14.2262 5.82031 14.4482C5.1055 14.6417 4.35608 14.6701 3.62865 14.5315C3.93854 15.4957 4.54218 16.3389 5.35507 16.9429C6.16796 17.547 7.14939 17.8817 8.16198 17.9003C6.44306 19.2497 4.32019 19.9816 2.1349 19.9784C1.74779 19.9785 1.36102 19.9559 0.976562 19.9107C3.19477 21.3369 5.77692 22.0938 8.41406 22.0909C17.3411 22.0909 22.2214 14.6972 22.2214 8.28466C22.2214 8.07632 22.2161 7.8659 22.2068 7.65757C23.156 6.97109 23.9754 6.121 24.6266 5.14715L24.6286 5.14403Z" />
</svg>
