<svg width="36" height="36" viewBox="0 0 36 36" fill="none" xmlns="http://www.w3.org/2000/svg">
<path fill-rule="evenodd" clip-rule="evenodd" d="M35.5 17.9998C35.5 27.6647 27.6649 35.4998 18 35.4998C8.33501 35.4998 0.5 27.6647 0.5 17.9998C0.5 8.33483 8.33501 0.499817 18 0.499817C27.6649 0.499817 35.5 8.33483 35.5 17.9998ZM27.999 25.7009C28.5728 26.2862 28.5728 27.2136 27.9988 27.7991C25.458 30.3914 21.9169 31.9998 18.0002 31.9998C14.0833 31.9998 10.5421 30.3914 8.00113 27.7988C7.42729 27.2134 7.4273 26.2861 8.00115 25.7005C10.5421 23.1082 14.0832 21.4998 18 21.4998C21.9168 21.4998 25.458 23.1084 27.999 25.7009ZM18 17.9998C20.8996 17.9998 23.25 15.6494 23.25 12.7498C23.25 9.85033 20.8996 7.49982 18 7.49982C15.1004 7.49982 12.75 9.85033 12.75 12.7498C12.75 15.6494 15.1004 17.9998 18 17.9998Z" fill="url(#paint0_linear_14_567)"/>
<defs>
<linearGradient id="paint0_linear_14_567" x1="18" y1="0.499817" x2="18" y2="35.4998" gradientUnits="userSpaceOnUse">
<stop stop-color="#1D1D3C"/>
<stop offset="1" stop-color="#1D1D3C" stop-opacity="0.62"/>
</linearGradient>
</defs>
</svg>
