<svg width="51" height="50" viewBox="0 0 51 50" fill="none" xmlns="http://www.w3.org/2000/svg">
<path d="M2.22414 0H0.5V1.72414H2.22414V0Z" fill="black"/>
<path d="M2.22414 1.72412H0.5V3.44826H2.22414V1.72412Z" fill="black"/>
<path d="M2.22414 3.44824H0.5V5.17238H2.22414V3.44824Z" fill="black"/>
<path d="M2.22414 5.17236H0.5V6.8965H2.22414V5.17236Z" fill="black"/>
<path d="M2.22414 6.89648H0.5V8.62062H2.22414V6.89648Z" fill="black"/>
<path d="M2.22414 8.62061H0.5V10.3447H2.22414V8.62061Z" fill="black"/>
<path d="M2.22414 10.3447H0.5V12.0689H2.22414V10.3447Z" fill="black"/>
<path d="M2.22414 13.793H0.5V15.5171H2.22414V13.793Z" fill="black"/>
<path d="M2.22414 15.5176H0.5V17.2417H2.22414V15.5176Z" fill="black"/>
<path d="M2.22414 25.8623H0.5V27.5864H2.22414V25.8623Z" fill="black"/>
<path d="M2.22414 31.0342H0.5V32.7583H2.22414V31.0342Z" fill="black"/>
<path d="M2.22414 32.7588H0.5V34.4829H2.22414V32.7588Z" fill="black"/>
<path d="M2.22414 37.9312H0.5V39.6553H2.22414V37.9312Z" fill="black"/>
<path d="M2.22414 39.6553H0.5V41.3794H2.22414V39.6553Z" fill="black"/>
<path d="M2.22414 41.3794H0.5V43.1035H2.22414V41.3794Z" fill="black"/>
<path d="M2.22414 43.1035H0.5V44.8277H2.22414V43.1035Z" fill="black"/>
<path d="M2.22414 44.8276H0.5V46.5518H2.22414V44.8276Z" fill="black"/>
<path d="M2.22414 46.5518H0.5V48.2759H2.22414V46.5518Z" fill="black"/>
<path d="M2.22414 48.2759H0.5V50H2.22414V48.2759Z" fill="black"/>
<path d="M3.94875 0H2.22461V1.72414H3.94875V0Z" fill="black"/>
<path d="M3.94875 10.3447H2.22461V12.0689H3.94875V10.3447Z" fill="black"/>
<path d="M3.94875 13.793H2.22461V15.5171H3.94875V13.793Z" fill="black"/>
<path d="M3.94875 22.4141H2.22461V24.1382H3.94875V22.4141Z" fill="black"/>
<path d="M3.94875 24.1377H2.22461V25.8618H3.94875V24.1377Z" fill="black"/>
<path d="M3.94875 25.8623H2.22461V27.5864H3.94875V25.8623Z" fill="black"/>
<path d="M3.94875 27.5859H2.22461V29.3101H3.94875V27.5859Z" fill="black"/>
<path d="M3.94875 29.3105H2.22461V31.0347H3.94875V29.3105Z" fill="black"/>
<path d="M3.94875 31.0342H2.22461V32.7583H3.94875V31.0342Z" fill="black"/>
<path d="M3.94875 32.7588H2.22461V34.4829H3.94875V32.7588Z" fill="black"/>
<path d="M3.94875 37.9312H2.22461V39.6553H3.94875V37.9312Z" fill="black"/>
<path d="M3.94875 48.2759H2.22461V50H3.94875V48.2759Z" fill="black"/>
<path d="M5.67238 0H3.94824V1.72414H5.67238V0Z" fill="black"/>
<path d="M5.67238 3.44824H3.94824V5.17238H5.67238V3.44824Z" fill="black"/>
<path d="M5.67238 5.17236H3.94824V6.8965H5.67238V5.17236Z" fill="black"/>
<path d="M5.67238 6.89648H3.94824V8.62062H5.67238V6.89648Z" fill="black"/>
<path d="M5.67238 10.3447H3.94824V12.0689H5.67238V10.3447Z" fill="black"/>
<path d="M5.67238 15.5176H3.94824V17.2417H5.67238V15.5176Z" fill="black"/>
<path d="M5.67238 17.2412H3.94824V18.9653H5.67238V17.2412Z" fill="black"/>
<path d="M5.67238 18.9658H3.94824V20.69H5.67238V18.9658Z" fill="black"/>
<path d="M5.67238 22.4141H3.94824V24.1382H5.67238V22.4141Z" fill="black"/>
<path d="M5.67238 25.8623H3.94824V27.5864H5.67238V25.8623Z" fill="black"/>
<path d="M5.67238 27.5859H3.94824V29.3101H5.67238V27.5859Z" fill="black"/>
<path d="M5.67238 29.3105H3.94824V31.0347H5.67238V29.3105Z" fill="black"/>
<path d="M5.67238 31.0342H3.94824V32.7583H5.67238V31.0342Z" fill="black"/>
<path d="M5.67238 37.9312H3.94824V39.6553H5.67238V37.9312Z" fill="black"/>
<path d="M5.67238 41.3794H3.94824V43.1035H5.67238V41.3794Z" fill="black"/>
<path d="M5.67238 43.1035H3.94824V44.8277H5.67238V43.1035Z" fill="black"/>
<path d="M5.67238 44.8276H3.94824V46.5518H5.67238V44.8276Z" fill="black"/>
<path d="M5.67238 48.2759H3.94824V50H5.67238V48.2759Z" fill="black"/>
<path d="M7.39601 0H5.67188V1.72414H7.39601V0Z" fill="black"/>
<path d="M7.39601 3.44824H5.67188V5.17238H7.39601V3.44824Z" fill="black"/>
<path d="M7.39601 5.17236H5.67188V6.8965H7.39601V5.17236Z" fill="black"/>
<path d="M7.39601 6.89648H5.67188V8.62062H7.39601V6.89648Z" fill="black"/>
<path d="M7.39601 10.3447H5.67188V12.0689H7.39601V10.3447Z" fill="black"/>
<path d="M7.39601 20.6895H5.67188V22.4136H7.39601V20.6895Z" fill="black"/>
<path d="M7.39601 24.1377H5.67188V25.8618H7.39601V24.1377Z" fill="black"/>
<path d="M7.39601 25.8623H5.67188V27.5864H7.39601V25.8623Z" fill="black"/>
<path d="M7.39601 29.3105H5.67188V31.0347H7.39601V29.3105Z" fill="black"/>
<path d="M7.39601 37.9312H5.67188V39.6553H7.39601V37.9312Z" fill="black"/>
<path d="M7.39601 41.3794H5.67188V43.1035H7.39601V41.3794Z" fill="black"/>
<path d="M7.39601 43.1035H5.67188V44.8277H7.39601V43.1035Z" fill="black"/>
<path d="M7.39601 44.8276H5.67188V46.5518H7.39601V44.8276Z" fill="black"/>
<path d="M7.39601 48.2759H5.67188V50H7.39601V48.2759Z" fill="black"/>
<path d="M9.12062 0H7.39648V1.72414H9.12062V0Z" fill="black"/>
<path d="M9.12062 3.44824H7.39648V5.17238H9.12062V3.44824Z" fill="black"/>
<path d="M9.12062 5.17236H7.39648V6.8965H9.12062V5.17236Z" fill="black"/>
<path d="M9.12062 6.89648H7.39648V8.62062H9.12062V6.89648Z" fill="black"/>
<path d="M9.12062 10.3447H7.39648V12.0689H9.12062V10.3447Z" fill="black"/>
<path d="M9.12062 13.793H7.39648V15.5171H9.12062V13.793Z" fill="black"/>
<path d="M9.12062 17.2412H7.39648V18.9653H9.12062V17.2412Z" fill="black"/>
<path d="M9.12062 18.9658H7.39648V20.69H9.12062V18.9658Z" fill="black"/>
<path d="M9.12062 20.6895H7.39648V22.4136H9.12062V20.6895Z" fill="black"/>
<path d="M9.12062 22.4141H7.39648V24.1382H9.12062V22.4141Z" fill="black"/>
<path d="M9.12062 24.1377H7.39648V25.8618H9.12062V24.1377Z" fill="black"/>
<path d="M9.12062 25.8623H7.39648V27.5864H9.12062V25.8623Z" fill="black"/>
<path d="M9.12062 31.0342H7.39648V32.7583H9.12062V31.0342Z" fill="black"/>
<path d="M9.12062 32.7588H7.39648V34.4829H9.12062V32.7588Z" fill="black"/>
<path d="M9.12062 34.4824H7.39648V36.2066H9.12062V34.4824Z" fill="black"/>
<path d="M9.12062 37.9312H7.39648V39.6553H9.12062V37.9312Z" fill="black"/>
<path d="M9.12062 41.3794H7.39648V43.1035H9.12062V41.3794Z" fill="black"/>
<path d="M9.12062 43.1035H7.39648V44.8277H9.12062V43.1035Z" fill="black"/>
<path d="M9.12062 44.8276H7.39648V46.5518H9.12062V44.8276Z" fill="black"/>
<path d="M9.12062 48.2759H7.39648V50H9.12062V48.2759Z" fill="black"/>
<path d="M10.8452 0H9.12109V1.72414H10.8452V0Z" fill="black"/>
<path d="M10.8452 10.3447H9.12109V12.0689H10.8452V10.3447Z" fill="black"/>
<path d="M10.8452 13.793H9.12109V15.5171H10.8452V13.793Z" fill="black"/>
<path d="M10.8452 17.2412H9.12109V18.9653H10.8452V17.2412Z" fill="black"/>
<path d="M10.8452 24.1377H9.12109V25.8618H10.8452V24.1377Z" fill="black"/>
<path d="M10.8452 29.3105H9.12109V31.0347H10.8452V29.3105Z" fill="black"/>
<path d="M10.8452 31.0342H9.12109V32.7583H10.8452V31.0342Z" fill="black"/>
<path d="M10.8452 32.7588H9.12109V34.4829H10.8452V32.7588Z" fill="black"/>
<path d="M10.8452 37.9312H9.12109V39.6553H10.8452V37.9312Z" fill="black"/>
<path d="M10.8452 48.2759H9.12109V50H10.8452V48.2759Z" fill="black"/>
<path d="M12.5689 0H10.8447V1.72414H12.5689V0Z" fill="black"/>
<path d="M12.5689 1.72412H10.8447V3.44826H12.5689V1.72412Z" fill="black"/>
<path d="M12.5689 3.44824H10.8447V5.17238H12.5689V3.44824Z" fill="black"/>
<path d="M12.5689 5.17236H10.8447V6.8965H12.5689V5.17236Z" fill="black"/>
<path d="M12.5689 6.89648H10.8447V8.62062H12.5689V6.89648Z" fill="black"/>
<path d="M12.5689 8.62061H10.8447V10.3447H12.5689V8.62061Z" fill="black"/>
<path d="M12.5689 10.3447H10.8447V12.0689H12.5689V10.3447Z" fill="black"/>
<path d="M12.5689 13.793H10.8447V15.5171H12.5689V13.793Z" fill="black"/>
<path d="M12.5689 17.2412H10.8447V18.9653H12.5689V17.2412Z" fill="black"/>
<path d="M12.5689 20.6895H10.8447V22.4136H12.5689V20.6895Z" fill="black"/>
<path d="M12.5689 24.1377H10.8447V25.8618H12.5689V24.1377Z" fill="black"/>
<path d="M12.5689 27.5859H10.8447V29.3101H12.5689V27.5859Z" fill="black"/>
<path d="M12.5689 31.0342H10.8447V32.7583H12.5689V31.0342Z" fill="black"/>
<path d="M12.5689 34.4824H10.8447V36.2066H12.5689V34.4824Z" fill="black"/>
<path d="M12.5689 37.9312H10.8447V39.6553H12.5689V37.9312Z" fill="black"/>
<path d="M12.5689 39.6553H10.8447V41.3794H12.5689V39.6553Z" fill="black"/>
<path d="M12.5689 41.3794H10.8447V43.1035H12.5689V41.3794Z" fill="black"/>
<path d="M12.5689 43.1035H10.8447V44.8277H12.5689V43.1035Z" fill="black"/>
<path d="M12.5689 44.8276H10.8447V46.5518H12.5689V44.8276Z" fill="black"/>
<path d="M12.5689 46.5518H10.8447V48.2759H12.5689V46.5518Z" fill="black"/>
<path d="M12.5689 48.2759H10.8447V50H12.5689V48.2759Z" fill="black"/>
<path d="M14.2935 15.5176H12.5693V17.2417H14.2935V15.5176Z" fill="black"/>
<path d="M14.2935 17.2412H12.5693V18.9653H14.2935V17.2412Z" fill="black"/>
<path d="M14.2935 22.4141H12.5693V24.1382H14.2935V22.4141Z" fill="black"/>
<path d="M14.2935 27.5859H12.5693V29.3101H14.2935V27.5859Z" fill="black"/>
<path d="M14.2935 31.0342H12.5693V32.7583H14.2935V31.0342Z" fill="black"/>
<path d="M14.2935 32.7588H12.5693V34.4829H14.2935V32.7588Z" fill="black"/>
<path d="M16.0171 0H14.293V1.72414H16.0171V0Z" fill="black"/>
<path d="M16.0171 1.72412H14.293V3.44826H16.0171V1.72412Z" fill="black"/>
<path d="M16.0171 3.44824H14.293V5.17238H16.0171V3.44824Z" fill="black"/>
<path d="M16.0171 5.17236H14.293V6.8965H16.0171V5.17236Z" fill="black"/>
<path d="M16.0171 8.62061H14.293V10.3447H16.0171V8.62061Z" fill="black"/>
<path d="M16.0171 10.3447H14.293V12.0689H16.0171V10.3447Z" fill="black"/>
<path d="M16.0171 17.2412H14.293V18.9653H16.0171V17.2412Z" fill="black"/>
<path d="M16.0171 20.6895H14.293V22.4136H16.0171V20.6895Z" fill="black"/>
<path d="M16.0171 25.8623H14.293V27.5864H16.0171V25.8623Z" fill="black"/>
<path d="M16.0171 27.5859H14.293V29.3101H16.0171V27.5859Z" fill="black"/>
<path d="M16.0171 29.3105H14.293V31.0347H16.0171V29.3105Z" fill="black"/>
<path d="M16.0171 31.0342H14.293V32.7583H16.0171V31.0342Z" fill="black"/>
<path d="M16.0171 32.7588H14.293V34.4829H16.0171V32.7588Z" fill="black"/>
<path d="M16.0171 36.207H14.293V37.9312H16.0171V36.207Z" fill="black"/>
<path d="M16.0171 39.6553H14.293V41.3794H16.0171V39.6553Z" fill="black"/>
<path d="M16.0171 41.3794H14.293V43.1035H16.0171V41.3794Z" fill="black"/>
<path d="M16.0171 46.5518H14.293V48.2759H16.0171V46.5518Z" fill="black"/>
<path d="M16.0171 48.2759H14.293V50H16.0171V48.2759Z" fill="black"/>
<path d="M17.7417 0H16.0176V1.72414H17.7417V0Z" fill="black"/>
<path d="M17.7417 1.72412H16.0176V3.44826H17.7417V1.72412Z" fill="black"/>
<path d="M17.7417 5.17236H16.0176V6.8965H17.7417V5.17236Z" fill="black"/>
<path d="M17.7417 12.0688H16.0176V13.793H17.7417V12.0688Z" fill="black"/>
<path d="M17.7417 15.5176H16.0176V17.2417H17.7417V15.5176Z" fill="black"/>
<path d="M17.7417 22.4141H16.0176V24.1382H17.7417V22.4141Z" fill="black"/>
<path d="M17.7417 25.8623H16.0176V27.5864H17.7417V25.8623Z" fill="black"/>
<path d="M17.7417 27.5859H16.0176V29.3101H17.7417V27.5859Z" fill="black"/>
<path d="M17.7417 29.3105H16.0176V31.0347H17.7417V29.3105Z" fill="black"/>
<path d="M17.7417 31.0342H16.0176V32.7583H17.7417V31.0342Z" fill="black"/>
<path d="M17.7417 32.7588H16.0176V34.4829H17.7417V32.7588Z" fill="black"/>
<path d="M17.7417 34.4824H16.0176V36.2066H17.7417V34.4824Z" fill="black"/>
<path d="M17.7417 36.207H16.0176V37.9312H17.7417V36.207Z" fill="black"/>
<path d="M17.7417 37.9312H16.0176V39.6553H17.7417V37.9312Z" fill="black"/>
<path d="M17.7417 44.8276H16.0176V46.5518H17.7417V44.8276Z" fill="black"/>
<path d="M17.7417 46.5518H16.0176V48.2759H17.7417V46.5518Z" fill="black"/>
<path d="M17.7417 48.2759H16.0176V50H17.7417V48.2759Z" fill="black"/>
<path d="M19.4653 0H17.7412V1.72414H19.4653V0Z" fill="black"/>
<path d="M19.4653 1.72412H17.7412V3.44826H19.4653V1.72412Z" fill="black"/>
<path d="M19.4653 3.44824H17.7412V5.17238H19.4653V3.44824Z" fill="black"/>
<path d="M19.4653 10.3447H17.7412V12.0689H19.4653V10.3447Z" fill="black"/>
<path d="M19.4653 15.5176H17.7412V17.2417H19.4653V15.5176Z" fill="black"/>
<path d="M19.4653 18.9658H17.7412V20.69H19.4653V18.9658Z" fill="black"/>
<path d="M19.4653 20.6895H17.7412V22.4136H19.4653V20.6895Z" fill="black"/>
<path d="M19.4653 24.1377H17.7412V25.8618H19.4653V24.1377Z" fill="black"/>
<path d="M19.4653 29.3105H17.7412V31.0347H19.4653V29.3105Z" fill="black"/>
<path d="M19.4653 32.7588H17.7412V34.4829H19.4653V32.7588Z" fill="black"/>
<path d="M19.4653 34.4824H17.7412V36.2066H19.4653V34.4824Z" fill="black"/>
<path d="M19.4653 39.6553H17.7412V41.3794H19.4653V39.6553Z" fill="black"/>
<path d="M19.4653 41.3794H17.7412V43.1035H19.4653V41.3794Z" fill="black"/>
<path d="M19.4653 44.8276H17.7412V46.5518H19.4653V44.8276Z" fill="black"/>
<path d="M19.4653 46.5518H17.7412V48.2759H19.4653V46.5518Z" fill="black"/>
<path d="M19.4653 48.2759H17.7412V50H19.4653V48.2759Z" fill="black"/>
<path d="M21.19 3.44824H19.4658V5.17238H21.19V3.44824Z" fill="black"/>
<path d="M21.19 5.17236H19.4658V6.8965H21.19V5.17236Z" fill="black"/>
<path d="M21.19 8.62061H19.4658V10.3447H21.19V8.62061Z" fill="black"/>
<path d="M21.19 13.793H19.4658V15.5171H21.19V13.793Z" fill="black"/>
<path d="M21.19 17.2412H19.4658V18.9653H21.19V17.2412Z" fill="black"/>
<path d="M21.19 18.9658H19.4658V20.69H21.19V18.9658Z" fill="black"/>
<path d="M21.19 27.5859H19.4658V29.3101H21.19V27.5859Z" fill="black"/>
<path d="M21.19 31.0342H19.4658V32.7583H21.19V31.0342Z" fill="black"/>
<path d="M21.19 32.7588H19.4658V34.4829H21.19V32.7588Z" fill="black"/>
<path d="M21.19 41.3794H19.4658V43.1035H21.19V41.3794Z" fill="black"/>
<path d="M21.19 44.8276H19.4658V46.5518H21.19V44.8276Z" fill="black"/>
<path d="M21.19 46.5518H19.4658V48.2759H21.19V46.5518Z" fill="black"/>
<path d="M22.9136 0H21.1895V1.72414H22.9136V0Z" fill="black"/>
<path d="M22.9136 8.62061H21.1895V10.3447H22.9136V8.62061Z" fill="black"/>
<path d="M22.9136 10.3447H21.1895V12.0689H22.9136V10.3447Z" fill="black"/>
<path d="M22.9136 12.0688H21.1895V13.793H22.9136V12.0688Z" fill="black"/>
<path d="M22.9136 15.5176H21.1895V17.2417H22.9136V15.5176Z" fill="black"/>
<path d="M22.9136 17.2412H21.1895V18.9653H22.9136V17.2412Z" fill="black"/>
<path d="M22.9136 20.6895H21.1895V22.4136H22.9136V20.6895Z" fill="black"/>
<path d="M22.9136 25.8623H21.1895V27.5864H22.9136V25.8623Z" fill="black"/>
<path d="M22.9136 29.3105H21.1895V31.0347H22.9136V29.3105Z" fill="black"/>
<path d="M22.9136 31.0342H21.1895V32.7583H22.9136V31.0342Z" fill="black"/>
<path d="M22.9136 34.4824H21.1895V36.2066H22.9136V34.4824Z" fill="black"/>
<path d="M22.9136 39.6553H21.1895V41.3794H22.9136V39.6553Z" fill="black"/>
<path d="M22.9136 43.1035H21.1895V44.8277H22.9136V43.1035Z" fill="black"/>
<path d="M22.9136 44.8276H21.1895V46.5518H22.9136V44.8276Z" fill="black"/>
<path d="M22.9136 48.2759H21.1895V50H22.9136V48.2759Z" fill="black"/>
<path d="M24.6382 0H22.9141V1.72414H24.6382V0Z" fill="black"/>
<path d="M24.6382 5.17236H22.9141V6.8965H24.6382V5.17236Z" fill="black"/>
<path d="M24.6382 6.89648H22.9141V8.62062H24.6382V6.89648Z" fill="black"/>
<path d="M24.6382 8.62061H22.9141V10.3447H24.6382V8.62061Z" fill="black"/>
<path d="M24.6382 15.5176H22.9141V17.2417H24.6382V15.5176Z" fill="black"/>
<path d="M24.6382 17.2412H22.9141V18.9653H24.6382V17.2412Z" fill="black"/>
<path d="M24.6382 22.4141H22.9141V24.1382H24.6382V22.4141Z" fill="black"/>
<path d="M24.6382 24.1377H22.9141V25.8618H24.6382V24.1377Z" fill="black"/>
<path d="M24.6382 29.3105H22.9141V31.0347H24.6382V29.3105Z" fill="black"/>
<path d="M24.6382 36.207H22.9141V37.9312H24.6382V36.207Z" fill="black"/>
<path d="M24.6382 37.9312H22.9141V39.6553H24.6382V37.9312Z" fill="black"/>
<path d="M24.6382 41.3794H22.9141V43.1035H24.6382V41.3794Z" fill="black"/>
<path d="M24.6382 44.8276H22.9141V46.5518H24.6382V44.8276Z" fill="black"/>
<path d="M24.6382 46.5518H22.9141V48.2759H24.6382V46.5518Z" fill="black"/>
<path d="M24.6382 48.2759H22.9141V50H24.6382V48.2759Z" fill="black"/>
<path d="M26.3618 0H24.6377V1.72414H26.3618V0Z" fill="black"/>
<path d="M26.3618 1.72412H24.6377V3.44826H26.3618V1.72412Z" fill="black"/>
<path d="M26.3618 5.17236H24.6377V6.8965H26.3618V5.17236Z" fill="black"/>
<path d="M26.3618 6.89648H24.6377V8.62062H26.3618V6.89648Z" fill="black"/>
<path d="M26.3618 10.3447H24.6377V12.0689H26.3618V10.3447Z" fill="black"/>
<path d="M26.3618 13.793H24.6377V15.5171H26.3618V13.793Z" fill="black"/>
<path d="M26.3618 18.9658H24.6377V20.69H26.3618V18.9658Z" fill="black"/>
<path d="M26.3618 20.6895H24.6377V22.4136H26.3618V20.6895Z" fill="black"/>
<path d="M26.3618 25.8623H24.6377V27.5864H26.3618V25.8623Z" fill="black"/>
<path d="M26.3618 27.5859H24.6377V29.3101H26.3618V27.5859Z" fill="black"/>
<path d="M26.3618 32.7588H24.6377V34.4829H26.3618V32.7588Z" fill="black"/>
<path d="M26.3618 36.207H24.6377V37.9312H26.3618V36.207Z" fill="black"/>
<path d="M26.3618 39.6553H24.6377V41.3794H26.3618V39.6553Z" fill="black"/>
<path d="M26.3618 41.3794H24.6377V43.1035H26.3618V41.3794Z" fill="black"/>
<path d="M26.3618 43.1035H24.6377V44.8277H26.3618V43.1035Z" fill="black"/>
<path d="M26.3618 44.8276H24.6377V46.5518H26.3618V44.8276Z" fill="black"/>
<path d="M28.0864 3.44824H26.3623V5.17238H28.0864V3.44824Z" fill="black"/>
<path d="M28.0864 5.17236H26.3623V6.8965H28.0864V5.17236Z" fill="black"/>
<path d="M28.0864 6.89648H26.3623V8.62062H28.0864V6.89648Z" fill="black"/>
<path d="M28.0864 12.0688H26.3623V13.793H28.0864V12.0688Z" fill="black"/>
<path d="M28.0864 13.793H26.3623V15.5171H28.0864V13.793Z" fill="black"/>
<path d="M28.0864 15.5176H26.3623V17.2417H28.0864V15.5176Z" fill="black"/>
<path d="M28.0864 17.2412H26.3623V18.9653H28.0864V17.2412Z" fill="black"/>
<path d="M28.0864 24.1377H26.3623V25.8618H28.0864V24.1377Z" fill="black"/>
<path d="M28.0864 25.8623H26.3623V27.5864H28.0864V25.8623Z" fill="black"/>
<path d="M28.0864 29.3105H26.3623V31.0347H28.0864V29.3105Z" fill="black"/>
<path d="M28.0864 31.0342H26.3623V32.7583H28.0864V31.0342Z" fill="black"/>
<path d="M28.0864 32.7588H26.3623V34.4829H28.0864V32.7588Z" fill="black"/>
<path d="M28.0864 36.207H26.3623V37.9312H28.0864V36.207Z" fill="black"/>
<path d="M28.0864 37.9312H26.3623V39.6553H28.0864V37.9312Z" fill="black"/>
<path d="M28.0864 43.1035H26.3623V44.8277H28.0864V43.1035Z" fill="black"/>
<path d="M28.0864 44.8276H26.3623V46.5518H28.0864V44.8276Z" fill="black"/>
<path d="M29.8101 0H28.0859V1.72414H29.8101V0Z" fill="black"/>
<path d="M29.8101 1.72412H28.0859V3.44826H29.8101V1.72412Z" fill="black"/>
<path d="M29.8101 8.62061H28.0859V10.3447H29.8101V8.62061Z" fill="black"/>
<path d="M29.8101 10.3447H28.0859V12.0689H29.8101V10.3447Z" fill="black"/>
<path d="M29.8101 12.0688H28.0859V13.793H29.8101V12.0688Z" fill="black"/>
<path d="M29.8101 13.793H28.0859V15.5171H29.8101V13.793Z" fill="black"/>
<path d="M29.8101 17.2412H28.0859V18.9653H29.8101V17.2412Z" fill="black"/>
<path d="M29.8101 22.4141H28.0859V24.1382H29.8101V22.4141Z" fill="black"/>
<path d="M29.8101 24.1377H28.0859V25.8618H29.8101V24.1377Z" fill="black"/>
<path d="M29.8101 25.8623H28.0859V27.5864H29.8101V25.8623Z" fill="black"/>
<path d="M29.8101 27.5859H28.0859V29.3101H29.8101V27.5859Z" fill="black"/>
<path d="M29.8101 34.4824H28.0859V36.2066H29.8101V34.4824Z" fill="black"/>
<path d="M29.8101 41.3794H28.0859V43.1035H29.8101V41.3794Z" fill="black"/>
<path d="M29.8101 44.8276H28.0859V46.5518H29.8101V44.8276Z" fill="black"/>
<path d="M29.8101 46.5518H28.0859V48.2759H29.8101V46.5518Z" fill="black"/>
<path d="M31.5347 1.72412H29.8105V3.44826H31.5347V1.72412Z" fill="black"/>
<path d="M31.5347 3.44824H29.8105V5.17238H31.5347V3.44824Z" fill="black"/>
<path d="M31.5347 8.62061H29.8105V10.3447H31.5347V8.62061Z" fill="black"/>
<path d="M31.5347 12.0688H29.8105V13.793H31.5347V12.0688Z" fill="black"/>
<path d="M31.5347 13.793H29.8105V15.5171H31.5347V13.793Z" fill="black"/>
<path d="M31.5347 18.9658H29.8105V20.69H31.5347V18.9658Z" fill="black"/>
<path d="M31.5347 20.6895H29.8105V22.4136H31.5347V20.6895Z" fill="black"/>
<path d="M31.5347 25.8623H29.8105V27.5864H31.5347V25.8623Z" fill="black"/>
<path d="M31.5347 27.5859H29.8105V29.3101H31.5347V27.5859Z" fill="black"/>
<path d="M31.5347 32.7588H29.8105V34.4829H31.5347V32.7588Z" fill="black"/>
<path d="M31.5347 37.9312H29.8105V39.6553H31.5347V37.9312Z" fill="black"/>
<path d="M31.5347 39.6553H29.8105V41.3794H31.5347V39.6553Z" fill="black"/>
<path d="M31.5347 41.3794H29.8105V43.1035H31.5347V41.3794Z" fill="black"/>
<path d="M31.5347 44.8276H29.8105V46.5518H31.5347V44.8276Z" fill="black"/>
<path d="M31.5347 46.5518H29.8105V48.2759H31.5347V46.5518Z" fill="black"/>
<path d="M31.5347 48.2759H29.8105V50H31.5347V48.2759Z" fill="black"/>
<path d="M33.2583 1.72412H31.5342V3.44826H33.2583V1.72412Z" fill="black"/>
<path d="M33.2583 10.3447H31.5342V12.0689H33.2583V10.3447Z" fill="black"/>
<path d="M33.2583 12.0688H31.5342V13.793H33.2583V12.0688Z" fill="black"/>
<path d="M33.2583 13.793H31.5342V15.5171H33.2583V13.793Z" fill="black"/>
<path d="M33.2583 18.9658H31.5342V20.69H33.2583V18.9658Z" fill="black"/>
<path d="M33.2583 22.4141H31.5342V24.1382H33.2583V22.4141Z" fill="black"/>
<path d="M33.2583 25.8623H31.5342V27.5864H33.2583V25.8623Z" fill="black"/>
<path d="M33.2583 27.5859H31.5342V29.3101H33.2583V27.5859Z" fill="black"/>
<path d="M33.2583 32.7588H31.5342V34.4829H33.2583V32.7588Z" fill="black"/>
<path d="M33.2583 36.207H31.5342V37.9312H33.2583V36.207Z" fill="black"/>
<path d="M33.2583 39.6553H31.5342V41.3794H33.2583V39.6553Z" fill="black"/>
<path d="M33.2583 41.3794H31.5342V43.1035H33.2583V41.3794Z" fill="black"/>
<path d="M33.2583 46.5518H31.5342V48.2759H33.2583V46.5518Z" fill="black"/>
<path d="M34.9829 1.72412H33.2588V3.44826H34.9829V1.72412Z" fill="black"/>
<path d="M34.9829 3.44824H33.2588V5.17238H34.9829V3.44824Z" fill="black"/>
<path d="M34.9829 8.62061H33.2588V10.3447H34.9829V8.62061Z" fill="black"/>
<path d="M34.9829 20.6895H33.2588V22.4136H34.9829V20.6895Z" fill="black"/>
<path d="M34.9829 27.5859H33.2588V29.3101H34.9829V27.5859Z" fill="black"/>
<path d="M34.9829 32.7588H33.2588V34.4829H34.9829V32.7588Z" fill="black"/>
<path d="M34.9829 34.4824H33.2588V36.2066H34.9829V34.4824Z" fill="black"/>
<path d="M34.9829 36.207H33.2588V37.9312H34.9829V36.207Z" fill="black"/>
<path d="M34.9829 37.9312H33.2588V39.6553H34.9829V37.9312Z" fill="black"/>
<path d="M34.9829 39.6553H33.2588V41.3794H34.9829V39.6553Z" fill="black"/>
<path d="M34.9829 41.3794H33.2588V43.1035H34.9829V41.3794Z" fill="black"/>
<path d="M34.9829 43.1035H33.2588V44.8277H34.9829V43.1035Z" fill="black"/>
<path d="M36.7066 0H34.9824V1.72414H36.7066V0Z" fill="black"/>
<path d="M36.7066 5.17236H34.9824V6.8965H36.7066V5.17236Z" fill="black"/>
<path d="M36.7066 6.89648H34.9824V8.62062H36.7066V6.89648Z" fill="black"/>
<path d="M36.7066 8.62061H34.9824V10.3447H36.7066V8.62061Z" fill="black"/>
<path d="M36.7066 10.3447H34.9824V12.0689H36.7066V10.3447Z" fill="black"/>
<path d="M36.7066 15.5176H34.9824V17.2417H36.7066V15.5176Z" fill="black"/>
<path d="M36.7066 17.2412H34.9824V18.9653H36.7066V17.2412Z" fill="black"/>
<path d="M36.7066 18.9658H34.9824V20.69H36.7066V18.9658Z" fill="black"/>
<path d="M36.7066 22.4141H34.9824V24.1382H36.7066V22.4141Z" fill="black"/>
<path d="M36.7066 25.8623H34.9824V27.5864H36.7066V25.8623Z" fill="black"/>
<path d="M36.7066 29.3105H34.9824V31.0347H36.7066V29.3105Z" fill="black"/>
<path d="M36.7066 31.0342H34.9824V32.7583H36.7066V31.0342Z" fill="black"/>
<path d="M36.7066 34.4824H34.9824V36.2066H36.7066V34.4824Z" fill="black"/>
<path d="M36.7066 36.207H34.9824V37.9312H36.7066V36.207Z" fill="black"/>
<path d="M36.7066 37.9312H34.9824V39.6553H36.7066V37.9312Z" fill="black"/>
<path d="M36.7066 39.6553H34.9824V41.3794H36.7066V39.6553Z" fill="black"/>
<path d="M36.7066 41.3794H34.9824V43.1035H36.7066V41.3794Z" fill="black"/>
<path d="M36.7066 46.5518H34.9824V48.2759H36.7066V46.5518Z" fill="black"/>
<path d="M36.7066 48.2759H34.9824V50H36.7066V48.2759Z" fill="black"/>
<path d="M38.4312 20.6895H36.707V22.4136H38.4312V20.6895Z" fill="black"/>
<path d="M38.4312 24.1377H36.707V25.8618H38.4312V24.1377Z" fill="black"/>
<path d="M38.4312 27.5859H36.707V29.3101H38.4312V27.5859Z" fill="black"/>
<path d="M38.4312 34.4824H36.707V36.2066H38.4312V34.4824Z" fill="black"/>
<path d="M38.4312 41.3794H36.707V43.1035H38.4312V41.3794Z" fill="black"/>
<path d="M38.4312 46.5518H36.707V48.2759H38.4312V46.5518Z" fill="black"/>
<path d="M40.1548 0H38.4307V1.72414H40.1548V0Z" fill="black"/>
<path d="M40.1548 1.72412H38.4307V3.44826H40.1548V1.72412Z" fill="black"/>
<path d="M40.1548 3.44824H38.4307V5.17238H40.1548V3.44824Z" fill="black"/>
<path d="M40.1548 5.17236H38.4307V6.8965H40.1548V5.17236Z" fill="black"/>
<path d="M40.1548 6.89648H38.4307V8.62062H40.1548V6.89648Z" fill="black"/>
<path d="M40.1548 8.62061H38.4307V10.3447H40.1548V8.62061Z" fill="black"/>
<path d="M40.1548 10.3447H38.4307V12.0689H40.1548V10.3447Z" fill="black"/>
<path d="M40.1548 17.2412H38.4307V18.9653H40.1548V17.2412Z" fill="black"/>
<path d="M40.1548 18.9658H38.4307V20.69H40.1548V18.9658Z" fill="black"/>
<path d="M40.1548 24.1377H38.4307V25.8618H40.1548V24.1377Z" fill="black"/>
<path d="M40.1548 29.3105H38.4307V31.0347H40.1548V29.3105Z" fill="black"/>
<path d="M40.1548 31.0342H38.4307V32.7583H40.1548V31.0342Z" fill="black"/>
<path d="M40.1548 32.7588H38.4307V34.4829H40.1548V32.7588Z" fill="black"/>
<path d="M40.1548 34.4824H38.4307V36.2066H40.1548V34.4824Z" fill="black"/>
<path d="M40.1548 37.9312H38.4307V39.6553H40.1548V37.9312Z" fill="black"/>
<path d="M40.1548 41.3794H38.4307V43.1035H40.1548V41.3794Z" fill="black"/>
<path d="M40.1548 46.5518H38.4307V48.2759H40.1548V46.5518Z" fill="black"/>
<path d="M41.8794 0H40.1553V1.72414H41.8794V0Z" fill="black"/>
<path d="M41.8794 10.3447H40.1553V12.0689H41.8794V10.3447Z" fill="black"/>
<path d="M41.8794 13.793H40.1553V15.5171H41.8794V13.793Z" fill="black"/>
<path d="M41.8794 15.5176H40.1553V17.2417H41.8794V15.5176Z" fill="black"/>
<path d="M41.8794 17.2412H40.1553V18.9653H41.8794V17.2412Z" fill="black"/>
<path d="M41.8794 18.9658H40.1553V20.69H41.8794V18.9658Z" fill="black"/>
<path d="M41.8794 20.6895H40.1553V22.4136H41.8794V20.6895Z" fill="black"/>
<path d="M41.8794 27.5859H40.1553V29.3101H41.8794V27.5859Z" fill="black"/>
<path d="M41.8794 31.0342H40.1553V32.7583H41.8794V31.0342Z" fill="black"/>
<path d="M41.8794 32.7588H40.1553V34.4829H41.8794V32.7588Z" fill="black"/>
<path d="M41.8794 34.4824H40.1553V36.2066H41.8794V34.4824Z" fill="black"/>
<path d="M41.8794 41.3794H40.1553V43.1035H41.8794V41.3794Z" fill="black"/>
<path d="M41.8794 43.1035H40.1553V44.8277H41.8794V43.1035Z" fill="black"/>
<path d="M41.8794 44.8276H40.1553V46.5518H41.8794V44.8276Z" fill="black"/>
<path d="M41.8794 46.5518H40.1553V48.2759H41.8794V46.5518Z" fill="black"/>
<path d="M43.603 0H41.8789V1.72414H43.603V0Z" fill="black"/>
<path d="M43.603 3.44824H41.8789V5.17238H43.603V3.44824Z" fill="black"/>
<path d="M43.603 5.17236H41.8789V6.8965H43.603V5.17236Z" fill="black"/>
<path d="M43.603 6.89648H41.8789V8.62062H43.603V6.89648Z" fill="black"/>
<path d="M43.603 10.3447H41.8789V12.0689H43.603V10.3447Z" fill="black"/>
<path d="M43.603 15.5176H41.8789V17.2417H43.603V15.5176Z" fill="black"/>
<path d="M43.603 17.2412H41.8789V18.9653H43.603V17.2412Z" fill="black"/>
<path d="M43.603 22.4141H41.8789V24.1382H43.603V22.4141Z" fill="black"/>
<path d="M43.603 29.3105H41.8789V31.0347H43.603V29.3105Z" fill="black"/>
<path d="M43.603 31.0342H41.8789V32.7583H43.603V31.0342Z" fill="black"/>
<path d="M43.603 34.4824H41.8789V36.2066H43.603V34.4824Z" fill="black"/>
<path d="M43.603 36.207H41.8789V37.9312H43.603V36.207Z" fill="black"/>
<path d="M43.603 37.9312H41.8789V39.6553H43.603V37.9312Z" fill="black"/>
<path d="M43.603 39.6553H41.8789V41.3794H43.603V39.6553Z" fill="black"/>
<path d="M43.603 41.3794H41.8789V43.1035H43.603V41.3794Z" fill="black"/>
<path d="M43.603 46.5518H41.8789V48.2759H43.603V46.5518Z" fill="black"/>
<path d="M43.603 48.2759H41.8789V50H43.603V48.2759Z" fill="black"/>
<path d="M45.3277 0H43.6035V1.72414H45.3277V0Z" fill="black"/>
<path d="M45.3277 3.44824H43.6035V5.17238H45.3277V3.44824Z" fill="black"/>
<path d="M45.3277 5.17236H43.6035V6.8965H45.3277V5.17236Z" fill="black"/>
<path d="M45.3277 6.89648H43.6035V8.62062H45.3277V6.89648Z" fill="black"/>
<path d="M45.3277 10.3447H43.6035V12.0689H45.3277V10.3447Z" fill="black"/>
<path d="M45.3277 13.793H43.6035V15.5171H45.3277V13.793Z" fill="black"/>
<path d="M45.3277 17.2412H43.6035V18.9653H45.3277V17.2412Z" fill="black"/>
<path d="M45.3277 18.9658H43.6035V20.69H45.3277V18.9658Z" fill="black"/>
<path d="M45.3277 20.6895H43.6035V22.4136H45.3277V20.6895Z" fill="black"/>
<path d="M45.3277 22.4141H43.6035V24.1382H45.3277V22.4141Z" fill="black"/>
<path d="M45.3277 24.1377H43.6035V25.8618H45.3277V24.1377Z" fill="black"/>
<path d="M45.3277 29.3105H43.6035V31.0347H45.3277V29.3105Z" fill="black"/>
<path d="M45.3277 31.0342H43.6035V32.7583H45.3277V31.0342Z" fill="black"/>
<path d="M45.3277 36.207H43.6035V37.9312H45.3277V36.207Z" fill="black"/>
<path d="M45.3277 39.6553H43.6035V41.3794H45.3277V39.6553Z" fill="black"/>
<path d="M45.3277 41.3794H43.6035V43.1035H45.3277V41.3794Z" fill="black"/>
<path d="M45.3277 43.1035H43.6035V44.8277H45.3277V43.1035Z" fill="black"/>
<path d="M45.3277 44.8276H43.6035V46.5518H45.3277V44.8276Z" fill="black"/>
<path d="M47.0523 0H45.3281V1.72414H47.0523V0Z" fill="black"/>
<path d="M47.0523 3.44824H45.3281V5.17238H47.0523V3.44824Z" fill="black"/>
<path d="M47.0523 5.17236H45.3281V6.8965H47.0523V5.17236Z" fill="black"/>
<path d="M47.0523 6.89648H45.3281V8.62062H47.0523V6.89648Z" fill="black"/>
<path d="M47.0523 10.3447H45.3281V12.0689H47.0523V10.3447Z" fill="black"/>
<path d="M47.0523 13.793H45.3281V15.5171H47.0523V13.793Z" fill="black"/>
<path d="M47.0523 15.5176H45.3281V17.2417H47.0523V15.5176Z" fill="black"/>
<path d="M47.0523 22.4141H45.3281V24.1382H47.0523V22.4141Z" fill="black"/>
<path d="M47.0523 24.1377H45.3281V25.8618H47.0523V24.1377Z" fill="black"/>
<path d="M47.0523 36.207H45.3281V37.9312H47.0523V36.207Z" fill="black"/>
<path d="M47.0523 43.1035H45.3281V44.8277H47.0523V43.1035Z" fill="black"/>
<path d="M48.7759 0H47.0518V1.72414H48.7759V0Z" fill="black"/>
<path d="M48.7759 10.3447H47.0518V12.0689H48.7759V10.3447Z" fill="black"/>
<path d="M48.7759 13.793H47.0518V15.5171H48.7759V13.793Z" fill="black"/>
<path d="M48.7759 18.9658H47.0518V20.69H48.7759V18.9658Z" fill="black"/>
<path d="M48.7759 25.8623H47.0518V27.5864H48.7759V25.8623Z" fill="black"/>
<path d="M48.7759 29.3105H47.0518V31.0347H48.7759V29.3105Z" fill="black"/>
<path d="M48.7759 32.7588H47.0518V34.4829H48.7759V32.7588Z" fill="black"/>
<path d="M48.7759 36.207H47.0518V37.9312H48.7759V36.207Z" fill="black"/>
<path d="M48.7759 37.9312H47.0518V39.6553H48.7759V37.9312Z" fill="black"/>
<path d="M48.7759 39.6553H47.0518V41.3794H48.7759V39.6553Z" fill="black"/>
<path d="M48.7759 44.8276H47.0518V46.5518H48.7759V44.8276Z" fill="black"/>
<path d="M48.7759 46.5518H47.0518V48.2759H48.7759V46.5518Z" fill="black"/>
<path d="M48.7759 48.2759H47.0518V50H48.7759V48.2759Z" fill="black"/>
<path d="M50.4995 0H48.7754V1.72414H50.4995V0Z" fill="black"/>
<path d="M50.4995 1.72412H48.7754V3.44826H50.4995V1.72412Z" fill="black"/>
<path d="M50.4995 3.44824H48.7754V5.17238H50.4995V3.44824Z" fill="black"/>
<path d="M50.4995 5.17236H48.7754V6.8965H50.4995V5.17236Z" fill="black"/>
<path d="M50.4995 6.89648H48.7754V8.62062H50.4995V6.89648Z" fill="black"/>
<path d="M50.4995 8.62061H48.7754V10.3447H50.4995V8.62061Z" fill="black"/>
<path d="M50.4995 10.3447H48.7754V12.0689H50.4995V10.3447Z" fill="black"/>
<path d="M50.4995 13.793H48.7754V15.5171H50.4995V13.793Z" fill="black"/>
<path d="M50.4995 15.5176H48.7754V17.2417H50.4995V15.5176Z" fill="black"/>
<path d="M50.4995 17.2412H48.7754V18.9653H50.4995V17.2412Z" fill="black"/>
<path d="M50.4995 22.4141H48.7754V24.1382H50.4995V22.4141Z" fill="black"/>
<path d="M50.4995 24.1377H48.7754V25.8618H50.4995V24.1377Z" fill="black"/>
<path d="M50.4995 25.8623H48.7754V27.5864H50.4995V25.8623Z" fill="black"/>
<path d="M50.4995 27.5859H48.7754V29.3101H50.4995V27.5859Z" fill="black"/>
<path d="M50.4995 29.3105H48.7754V31.0347H50.4995V29.3105Z" fill="black"/>
<path d="M50.4995 31.0342H48.7754V32.7583H50.4995V31.0342Z" fill="black"/>
<path d="M50.4995 32.7588H48.7754V34.4829H50.4995V32.7588Z" fill="black"/>
<path d="M50.4995 36.207H48.7754V37.9312H50.4995V36.207Z" fill="black"/>
<path d="M50.4995 37.9312H48.7754V39.6553H50.4995V37.9312Z" fill="black"/>
<path d="M50.4995 41.3794H48.7754V43.1035H50.4995V41.3794Z" fill="black"/>
<path d="M50.4995 43.1035H48.7754V44.8277H50.4995V43.1035Z" fill="black"/>
<path d="M50.4995 44.8276H48.7754V46.5518H50.4995V44.8276Z" fill="black"/>
<path d="M50.4995 46.5518H48.7754V48.2759H50.4995V46.5518Z" fill="black"/>
</svg>
