<svg width="16" height="17" viewBox="0 0 16 17" fill="none" xmlns="http://www.w3.org/2000/svg">
<path d="M8.00039 5.30156C11.1204 5.30156 13.6004 4.58156 13.6004 3.70156C13.6004 2.82156 11.1204 2.10156 8.00039 2.10156C4.88039 2.10156 2.40039 2.82156 2.40039 3.70156C2.40039 4.58156 4.88039 5.30156 8.00039 5.30156ZM8.00039 12.5016C4.88039 12.5016 2.40039 11.7816 2.40039 10.9016V13.3016C2.40039 14.1816 4.88039 14.9016 8.00039 14.9016C11.1204 14.9016 13.6004 14.1816 13.6004 13.3016V10.9016C13.6004 11.7816 11.1204 12.5016 8.00039 12.5016ZM8.00039 9.30156C4.88039 9.30156 2.40039 8.58156 2.40039 7.70156V10.1016C2.40039 10.9816 4.88039 11.7016 8.00039 11.7016C11.1204 11.7016 13.6004 10.9816 13.6004 10.1016V7.70156C13.6004 8.58156 11.1204 9.30156 8.00039 9.30156ZM8.00039 6.10156C4.88039 6.10156 2.40039 5.38156 2.40039 4.50156V6.90156C2.40039 7.78156 4.88039 8.50156 8.00039 8.50156C11.1204 8.50156 13.6004 7.78156 13.6004 6.90156V4.50156C13.6004 5.38156 11.1204 6.10156 8.00039 6.10156Z" fill="#777E90"/>
</svg>
