<svg width="81" height="80" viewBox="0 0 81 80" fill="none" xmlns="http://www.w3.org/2000/svg">
<g clip-path="url(#clip0_1_5255)">
<path fill-rule="evenodd" clip-rule="evenodd" d="M1.69482 45.0287H16.6354C13.8742 34.0187 2.19842 33.561 2.19842 33.561C1.88154 34.8901 1.71529 36.3676 1.71154 37.912L1.69482 45.0287Z" fill="white"/>
<path fill-rule="evenodd" clip-rule="evenodd" d="M15.0233 41.0224C24.9039 39.8996 30.5161 38.1222 34.4095 36.1266C33.8687 29.9702 31.1676 29.5905 27.7892 30.5178C24.9725 31.2911 21.6851 32.9728 18.7865 32.9728C13.7865 32.9728 12.0678 27.6338 7.53654 27.6338C4.87732 27.6338 3.02561 30.0921 2.19873 33.5608C2.19857 33.5605 10.8547 33.8999 15.0233 41.0224Z" fill="#D56A4E"/>
<path fill-rule="evenodd" clip-rule="evenodd" d="M27.7891 30.5185C31.1673 29.5912 33.8686 29.9709 34.4094 36.1273C38.0938 34.2387 40.2387 32.1545 43.0053 30.244C43.0053 30.244 32.6928 21.656 31.2866 20.5156C29.8803 19.3751 24.9938 23.2295 27.7891 30.5185Z" fill="white"/>
<path fill-rule="evenodd" clip-rule="evenodd" d="M31.5994 45.0301C35.2164 45.0301 38.4598 45.315 41.5539 45.7482C46.1584 39.2236 56.7697 46.9509 59.4694 40.477C54.2112 38.4693 49.664 35.8193 43.0051 30.2451C40.2387 32.1556 38.0936 34.2398 34.4092 36.1284C30.5159 38.1242 24.9037 39.9014 15.0229 41.0242C15.6958 42.1737 16.2517 43.5 16.6354 45.0301H31.5994Z" fill="#D56A4E"/>
<path fill-rule="evenodd" clip-rule="evenodd" d="M1.68359 49.7958H31.5992C48.1587 49.7958 56.8873 55.7665 79.3067 54.6119C79.3138 54.6041 79.3209 54.5965 79.328 54.5886V49.9893C79.328 48.6983 78.8075 47.6944 77.9884 46.919C73.7562 49.9354 69.1819 49.9844 65.0223 49.6071C55.8763 48.7774 49.1672 46.813 41.5539 45.7469C38.4598 45.3137 35.2164 45.0288 31.5994 45.0288H1.69484L1.68359 49.7958Z" fill="#D56A4E"/>
<path fill-rule="evenodd" clip-rule="evenodd" d="M65.0226 49.6076C69.1823 49.985 73.7565 49.9361 77.9887 46.9195C77.1201 46.0972 75.9159 45.5315 74.6408 45.1531C68.2148 43.2458 63.6208 42.0611 59.4697 40.4761C56.7698 46.95 46.1587 39.2226 41.5542 45.7473C49.1673 46.8136 55.8764 48.7779 65.0226 49.6076Z" fill="white"/>
<path fill-rule="evenodd" clip-rule="evenodd" d="M6.35938 59.6673H54.8027C63.8537 59.6673 74.1327 60.2673 79.3069 54.612C56.8875 55.7664 48.1589 49.7959 31.5994 49.7959H1.68375L1.67188 54.8306C1.67188 57.4909 3.78125 59.6673 6.35938 59.6673Z" fill="white"/>
<path fill-rule="evenodd" clip-rule="evenodd" d="M1.69482 45.0287H5.21045L5.22717 37.9118C5.23029 36.5945 5.3517 35.3257 5.5842 34.1563C3.61842 33.6173 2.19842 33.561 2.19842 33.561C1.88154 34.8901 1.71529 36.3676 1.71154 37.912L1.69482 45.0287Z" fill="#EEF4F9"/>
<path fill-rule="evenodd" clip-rule="evenodd" d="M9.43295 27.9698C8.85154 27.7598 8.22686 27.6353 7.53654 27.6353C4.87733 27.6353 3.02561 30.0935 2.19873 33.5623C2.19873 33.5623 3.61842 33.6181 5.58451 34.1573C6.08951 31.8426 7.08545 28.9931 9.43295 27.9698Z" fill="#CE3F29"/>
<path fill-rule="evenodd" clip-rule="evenodd" d="M1.68359 49.7958H5.21047V45.0288H1.69484L1.68359 49.7958Z" fill="#CE3F29"/>
<path fill-rule="evenodd" clip-rule="evenodd" d="M1.67188 54.8299C1.67188 57.0817 3.18313 58.9868 5.21063 59.5188V49.7954H1.68375L1.67188 54.8299Z" fill="#EEF4F9"/>
<path d="M39.1772 41.6639H36.8335V39.3202H39.1772V41.6639ZM43.8647 39.3203H41.521V36.9766H43.8647V39.3203Z" fill="white"/>
<path d="M55.4306 58.4961L55.4243 60.8398C56.006 60.8414 56.5921 60.8447 57.181 60.848L57.7649 60.8512L57.7774 58.5075L57.1942 58.5042C56.6029 58.5009 56.0145 58.4977 55.4306 58.4961Z" fill="black"/>
<path d="M74.9741 44.0294C73.2455 43.5163 71.6773 43.0637 70.1611 42.6259C59.1145 39.4363 54.0728 37.9807 43.7573 29.3452C43.7573 29.3452 33.2256 20.5791 32.0247 19.6052C31.1511 18.8968 29.8458 19.0101 28.6181 19.901C26.4067 21.506 24.9406 25.1099 26.2953 29.7493C25.717 29.9407 25.1294 30.1518 24.535 30.3655C22.5717 31.0716 20.5414 31.8015 18.7864 31.8015C16.6455 31.8015 15.1717 30.5869 13.6112 29.301C11.9967 27.9705 10.1669 26.4624 7.53641 26.4624C5.80469 26.4624 3.41094 27.2591 1.84125 31.0543C0.888125 33.3584 0.544062 36.1062 0.539844 37.9094L0.5 54.8307C0.5 58.1438 3.12844 60.8393 6.35938 60.8393H53.0839V58.4955H6.35938C4.42078 58.4955 2.84375 56.8515 2.84375 54.8334L2.85281 50.9679H31.5994C38.663 50.9679 44.2887 52.0738 50.2452 53.2446C56.9892 54.5702 63.9256 55.9338 73.6306 55.9338C74.3244 55.9338 75.0325 55.9268 75.7556 55.9123C71.5777 58.2502 65.5925 58.4998 60.1122 58.5132L60.118 60.8569C67.4361 60.839 75.6264 60.3991 80.195 55.3774L80.5 55.0421V49.9896C80.5 47.2038 78.5375 45.0871 74.9741 44.0294ZM74.3072 46.2763C74.8892 46.449 75.4023 46.6487 75.8531 46.8719C72.3523 48.7612 68.6477 48.7596 65.1281 48.4402C59.7016 47.948 55.1239 47.048 50.697 46.1779C48.4817 45.7424 46.3111 45.316 44.0934 44.9498C46.0086 43.8207 48.5527 44.0384 51.2097 44.2671C54.473 44.548 58.1309 44.863 60.0273 41.9298C62.8469 42.953 65.8812 43.8294 69.5109 44.8774C71.0233 45.3143 72.5869 45.7657 74.3072 46.2763ZM29.2442 22.5504C29.8353 21.7713 30.4148 21.5177 30.6294 21.4916C31.9448 22.5643 38.4159 27.9485 41.093 30.1768C40.635 30.5173 40.1886 30.8584 39.7509 31.1935C38.4066 32.223 37.0431 33.2673 35.3409 34.2716C34.9137 32.0077 34.0722 30.4965 32.7894 29.676C31.5397 28.8768 30.1031 28.8298 28.5542 29.1316C27.4655 25.4837 28.6452 23.3399 29.2442 22.5504ZM7.53656 28.8063C9.32578 28.8063 10.6211 29.8738 12.1209 31.1099C13.8475 32.5327 15.8044 34.1455 18.7866 34.1455C20.9502 34.1455 23.1758 33.3452 25.3283 32.5713C27.8427 31.6671 30.2175 30.8132 31.5267 31.6505C32.3456 32.1743 32.8923 33.446 33.1555 35.4355C31.0733 36.4309 28.4969 37.3613 25.0744 38.1673L25.6116 40.4487C34.1455 38.4387 37.7197 35.7015 41.1761 33.0543C41.7764 32.5946 42.353 32.153 42.9486 31.7205C48.7966 36.5418 53.1092 39.131 57.74 41.0451C56.5519 42.2924 54.4477 42.1938 51.4108 41.9324C47.9925 41.638 43.7834 41.2777 41.0464 44.4946C38.1103 44.1066 35.0269 43.8574 31.5994 43.8574H17.525C17.3263 43.2101 17.0916 42.5863 16.8242 41.9854C19.1519 41.6887 21.3194 41.3432 23.2808 40.9532L22.8237 38.6544C20.663 39.0841 18.2406 39.4593 15.6186 39.7729C14.015 37.3341 11.7383 35.4112 8.86844 34.1005C6.88406 33.1943 5.02578 32.7665 3.78438 32.5655C4.49906 30.5149 5.69016 28.8063 7.53656 28.8063ZM3.19062 34.8446C4.25297 35.0016 6.01094 35.3719 7.89484 36.2323C11.4092 37.8373 13.8112 40.399 15.0552 43.8571H2.86969L2.88375 37.9149C2.88578 37.0746 2.97891 35.981 3.19062 34.8446ZM50.6972 50.9449C44.6259 49.7515 38.8911 48.6241 31.5994 48.6241H2.85844L2.86422 46.2009H31.5995C38.6631 46.2009 44.2891 47.3068 50.2453 48.4776C54.7309 49.3593 59.3692 50.2712 64.9167 50.7743C65.9744 50.8702 67.0758 50.9396 68.2041 50.9396C71.3033 50.9396 74.6042 50.4155 77.7505 48.4816C78.0194 48.9362 78.1566 49.4387 78.1566 49.9896V53.4926C66.2148 53.9944 58.3295 52.4452 50.6972 50.9449Z" fill="black"/>
<path d="M8.06348 53.5591H25.876V55.9028H8.06348V53.5591Z" fill="black"/>
</g>
<defs>
<clipPath id="clip0_1_5255">
<rect width="80" height="80" fill="white" transform="translate(0.5)"/>
</clipPath>
</defs>
</svg>
