<svg width="26" height="26" viewBox="0 0 26 26" fill="none" xmlns="http://www.w3.org/2000/svg">
<path d="M13 25.5C6.1 25.4925 0.5075 19.9 0.5 13V12.75C0.6375 5.88125 6.29375 0.409996 13.1625 0.499996C20.0338 0.592496 25.5425 6.21125 25.4975 13.0812C25.4525 19.9525 19.8713 25.5 13 25.5ZM12.98 23H13C15.6513 22.9973 18.193 21.9419 20.0664 20.0658C21.9397 18.1896 22.9913 15.6463 22.99 12.995C22.9887 10.3437 21.9345 7.80145 20.0593 5.92717C18.1841 4.05288 15.6413 3 12.99 3C10.3387 3 7.79592 4.05288 5.9207 5.92717C4.04548 7.80145 2.99133 10.3437 2.99 12.995C2.98868 15.6463 4.04029 18.1896 5.91363 20.0658C7.78698 21.9419 10.3287 22.9973 12.98 23ZM14.25 20.5H11.75V18H14.25V20.5ZM14.25 16.75H11.75C11.7306 15.9506 11.9256 15.1606 12.3146 14.4621C12.7037 13.7635 13.2727 13.1819 13.9625 12.7775C14.7875 12.145 15.5 11.6 15.5 10.5C15.5 9.83695 15.2366 9.20107 14.7678 8.73223C14.2989 8.26339 13.663 7.99999 13 7.99999C12.337 7.99999 11.7011 8.26339 11.2322 8.73223C10.7634 9.20107 10.5 9.83695 10.5 10.5H8V10.3875C8.01492 9.06141 8.55601 7.79557 9.50424 6.86844C10.4525 5.9413 11.7302 5.42883 13.0562 5.44375C14.3823 5.45866 15.6482 5.99976 16.5753 6.94799C17.5024 7.89622 18.0149 9.17391 18 10.5C17.9559 11.1651 17.7565 11.8106 17.4178 12.3848C17.0792 12.959 16.6107 13.4458 16.05 13.8062C15.543 14.1245 15.1166 14.556 14.8043 15.0667C14.492 15.5775 14.3022 16.1536 14.25 16.75Z" fill="black"/>
</svg>
