<svg width="20" height="20" viewBox="0 0 20 20" fill="none" xmlns="http://www.w3.org/2000/svg">
<path d="M3.06251 9.1254C2.83194 9.12563 2.60756 9.05078 2.42331 8.91216C2.23906 8.77354 2.10495 8.57869 2.04128 8.35709C1.9776 8.13548 1.98782 7.89917 2.07038 7.68388C2.15294 7.4686 2.30336 7.28605 2.49888 7.16385L5.35205 4.31069C5.55122 4.11166 5.82129 3.9999 6.10286 4C6.38443 4.0001 6.65443 4.11205 6.85346 4.31122C7.05249 4.51039 7.16425 4.78047 7.16415 5.06203C7.16405 5.3436 7.0521 5.6136 6.85293 5.81263L5.66305 7.00145H13.677C13.9585 7.00145 14.2285 7.11328 14.4275 7.31234C14.6266 7.5114 14.7384 7.78138 14.7384 8.06289C14.7384 8.34441 14.6266 8.61439 14.4275 8.81345C14.2285 9.01251 13.9585 9.12434 13.677 9.12434H3.06251V9.1254Z" fill="url(#paint0_linear_1_3102)"/>
<path d="M17.9376 11.2155C18.1682 11.2152 18.3926 11.2901 18.5768 11.4287C18.7611 11.5673 18.8952 11.7622 18.9588 11.9838C19.0225 12.2054 19.0123 12.4417 18.9297 12.657C18.8472 12.8723 18.6968 13.0548 18.5012 13.177L15.6481 16.0302C15.5495 16.1287 15.4324 16.2069 15.3036 16.2602C15.1747 16.3135 15.0367 16.3409 14.8973 16.3409C14.7578 16.3408 14.6198 16.3133 14.491 16.2599C14.3622 16.2065 14.2452 16.1283 14.1467 16.0296C14.0481 15.931 13.97 15.814 13.9166 15.6851C13.8633 15.5563 13.8359 15.4182 13.836 15.2788C13.836 15.1394 13.8635 15.0014 13.9169 14.8726C13.9703 14.7438 14.0486 14.6268 14.1472 14.5282L15.3371 13.3394H7.32316C7.04165 13.3394 6.77167 13.2276 6.57261 13.0285C6.37355 12.8295 6.26172 12.5595 6.26172 12.278C6.26172 11.9964 6.37355 11.7265 6.57261 11.5274C6.77167 11.3283 7.04165 11.2165 7.32316 11.2165H17.9376V11.2155Z" fill="url(#paint1_linear_1_3102)"/>
<defs>
<linearGradient id="paint0_linear_1_3102" x1="8.3692" y1="4" x2="8.3692" y2="9.1254" gradientUnits="userSpaceOnUse">
<stop stop-color="white"/>
<stop offset="1" stop-color="white" stop-opacity="0.39"/>
</linearGradient>
<linearGradient id="paint1_linear_1_3102" x1="12.6309" y1="11.2155" x2="12.6309" y2="16.3409" gradientUnits="userSpaceOnUse">
<stop stop-color="white"/>
<stop offset="1" stop-color="white" stop-opacity="0.39"/>
</linearGradient>
</defs>
</svg>
