<svg width="14" height="10" viewBox="0 0 14 10" fill="none" xmlns="http://www.w3.org/2000/svg">
<path d="M1.16034 4.18017C0.979321 4.18035 0.803163 4.12158 0.658509 4.01275C0.513855 3.90393 0.408571 3.75095 0.35858 3.57697C0.308588 3.40299 0.316608 3.21746 0.381427 3.04844C0.446245 2.87943 0.564336 2.73611 0.717842 2.64017L2.95784 0.400169C3.11421 0.243912 3.32625 0.156172 3.5473 0.15625C3.76836 0.156328 3.98034 0.244219 4.13659 0.400586C4.29285 0.556953 4.38059 0.768988 4.38051 0.990047C4.38043 1.21111 4.29254 1.42308 4.13618 1.57934L3.20201 2.51267H9.49368C9.71469 2.51267 9.92665 2.60047 10.0829 2.75675C10.2392 2.91303 10.327 3.12499 10.327 3.346C10.327 3.56702 10.2392 3.77898 10.0829 3.93526C9.92665 4.09154 9.71469 4.17934 9.49368 4.17934H1.16034V4.18017Z" fill="black"/>
<path d="M12.8385 5.82031C13.0196 5.82013 13.1957 5.8789 13.3404 5.98773C13.485 6.09656 13.5903 6.24953 13.6403 6.42351C13.6903 6.59749 13.6823 6.78302 13.6175 6.95204C13.5526 7.12106 13.4345 7.26437 13.281 7.36031L11.041 9.60031C10.9636 9.67768 10.8717 9.73905 10.7706 9.7809C10.6694 9.82275 10.561 9.84427 10.4516 9.84423C10.3421 9.84419 10.2337 9.82259 10.1326 9.78067C10.0315 9.73875 9.93966 9.67732 9.86229 9.5999C9.78492 9.52247 9.72356 9.43056 9.68171 9.32942C9.63985 9.22828 9.61833 9.11989 9.61837 9.01043C9.61841 8.90098 9.64001 8.7926 9.68193 8.69149C9.72386 8.59038 9.78528 8.49852 9.86271 8.42115L10.7969 7.48781H4.50521C4.28419 7.48781 4.07223 7.40002 3.91595 7.24374C3.75967 7.08745 3.67188 6.87549 3.67188 6.65448C3.67188 6.43347 3.75967 6.2215 3.91595 6.06522C4.07223 5.90894 4.28419 5.82115 4.50521 5.82115H12.8385V5.82031Z" fill="black"/>
</svg>
