<svg width="17" height="17" viewBox="0 0 17 17" fill="none" xmlns="http://www.w3.org/2000/svg">
<path d="M8.5 0C13.1942 0 17 3.80579 17 8.5C17 13.1942 13.194 17 8.5 17C3.80596 17 0 13.1952 0 8.5C0 3.80477 3.80528 0 8.5 0Z" fill="#53AE94"/>
<path d="M9.54952 7.36728V6.10282H12.441V4.17621H4.56733V6.10282H7.4592V7.36626C5.10895 7.47421 3.3418 7.93967 3.3418 8.49727C3.3418 9.05487 5.1098 9.52033 7.4592 9.62896V13.6792H9.5502V9.62862C11.8962 9.52033 13.6598 9.05521 13.6598 8.49812C13.6598 7.94103 11.8962 7.47591 9.5502 7.36762L9.54952 7.36728ZM9.5502 9.28556V9.28454C9.49121 9.28828 9.1881 9.30647 8.5132 9.30647C7.97362 9.30647 7.59401 9.29117 7.46022 9.2842V9.2859C5.38384 9.19393 3.83395 8.83234 3.83395 8.39969C3.83395 7.96704 5.38401 7.60596 7.46022 7.51382V8.92567C7.59622 8.93502 7.98518 8.95797 8.52204 8.95797C9.16685 8.95797 9.49104 8.93111 9.55054 8.92567V7.51382C11.6228 7.60613 13.1692 7.96806 13.1692 8.39918C13.1692 8.8303 11.6222 9.1924 9.55054 9.28471" fill="white"/>
</svg>
